<?xml version="1.0" encoding="UTF-8" standalone="no"?>
<!-- Created with Fritzing (http://www.fritzing.org/) -->

<svg
   xmlns:dc="http://purl.org/dc/elements/1.1/"
   xmlns:cc="http://creativecommons.org/ns#"
   xmlns:rdf="http://www.w3.org/1999/02/22-rdf-syntax-ns#"
   xmlns:svg="http://www.w3.org/2000/svg"
   xmlns="http://www.w3.org/2000/svg"
   xmlns:sodipodi="http://sodipodi.sourceforge.net/DTD/sodipodi-0.dtd"
   xmlns:inkscape="http://www.inkscape.org/namespaces/inkscape"
   version="1.2"
   height="1.70344in"
   viewBox="0 0 115.244 122.648"
   width="1.60061in"
   x="0in"
   y="0in"
   id="svg2"
   inkscape:version="0.91 r13725"
   sodipodi:docname="chatiere_etch_copper_bottom_mirror.svg">
  <metadata
     id="metadata367">
    <rdf:RDF>
      <cc:Work
         rdf:about="">
        <dc:format>image/svg+xml</dc:format>
        <dc:type
           rdf:resource="http://purl.org/dc/dcmitype/StillImage" />
      </cc:Work>
    </rdf:RDF>
  </metadata>
  <defs
     id="defs365" />
  <sodipodi:namedview
     pagecolor="#ffffff"
     bordercolor="#666666"
     borderopacity="1"
     objecttolerance="10"
     gridtolerance="10"
     guidetolerance="10"
     inkscape:pageopacity="0"
     inkscape:pageshadow="2"
     inkscape:window-width="1121"
     inkscape:window-height="670"
     id="namedview363"
     showgrid="false"
     inkscape:zoom="3.0787375"
     inkscape:cx="67.157772"
     inkscape:cy="82.456542"
     inkscape:window-x="444"
     inkscape:window-y="195"
     inkscape:window-maximized="0"
     inkscape:current-layer="svg2" />
  <path
     style="color:#000000;font-style:normal;font-variant:normal;font-weight:normal;font-stretch:normal;font-size:medium;line-height:normal;font-family:sans-serif;text-indent:0;text-align:start;text-decoration:none;text-decoration-line:none;text-decoration-style:solid;text-decoration-color:#000000;letter-spacing:normal;word-spacing:normal;text-transform:none;direction:ltr;block-progression:tb;writing-mode:lr-tb;baseline-shift:baseline;text-anchor:start;white-space:normal;clip-rule:nonzero;display:inline;overflow:visible;visibility:visible;opacity:1;isolation:auto;mix-blend-mode:normal;color-interpolation:sRGB;color-interpolation-filters:linearRGB;solid-color:#000000;solid-opacity:1;fill:#000000;fill-opacity:1;fill-rule:nonzero;stroke:none;stroke-width:0.5;stroke-linecap:butt;stroke-linejoin:miter;stroke-miterlimit:4;stroke-dasharray:none;stroke-dashoffset:0;stroke-opacity:1;color-rendering:auto;image-rendering:auto;shape-rendering:auto;text-rendering:auto;enable-background:accumulate"
     d="M 0.046875 0.046875 L 0.046875 153.26172 L 144.00586 153.26172 L 144.00586 0.359375 L 144.00586 0.046875 L 0.046875 0.046875 z M 0.671875 0.671875 L 143.38086 0.671875 L 143.38086 152.63672 L 0.671875 152.63672 L 0.671875 0.671875 z M 97.527344 2.9296875 C 96.965315 2.9296875 96.53066 3.1553278 96.232422 3.6015625 C 95.936374 4.0456341 95.789062 4.6885266 95.789062 5.5292969 C 95.789062 6.3678553 95.936416 7.0088278 96.232422 7.4550781 C 96.530676 7.8990963 96.965341 8.125 97.527344 8.125 C 98.089346 8.125 98.522324 7.8991303 98.818359 7.4550781 C 99.116609 7.0088249 99.261719 6.367873 99.261719 5.5292969 C 99.261719 4.688509 99.116651 4.0456367 98.818359 3.6015625 C 98.522341 3.1552942 98.089374 2.9296875 97.527344 2.9296875 z M 97.527344 2.9707031 C 98.078802 2.9707031 98.493641 3.1865109 98.783203 3.6230469 C 99.074925 4.0573407 99.222656 4.6932004 99.222656 5.5292969 C 99.222656 6.3631691 99.074969 6.9970427 98.783203 7.4335938 C 98.493659 7.8679097 98.078829 8.0839844 97.527344 8.0839844 C 96.97586 8.0839844 96.555432 7.8679436 96.263672 7.4335938 C 95.974098 6.9970398 95.830078 6.3631869 95.830078 5.5292969 C 95.830078 4.6931827 95.97414 4.0573433 96.263672 3.6230469 C 96.55545 3.1864772 96.975886 2.9707031 97.527344 2.9707031 z M 90.785156 3.0195312 L 89.580078 3.2636719 L 89.580078 3.9160156 L 90.775391 3.6757812 L 90.775391 7.421875 L 89.677734 7.421875 L 89.677734 7.4414062 L 89.677734 8.0273438 L 92.578125 8.0273438 L 92.578125 7.421875 L 91.482422 7.421875 L 91.482422 3.0195312 L 90.785156 3.0195312 z M 90.791016 3.0585938 L 91.439453 3.0585938 L 91.439453 7.4609375 L 92.539062 7.4609375 L 92.539062 7.9882812 L 89.716797 7.9882812 L 89.716797 7.4609375 L 90.814453 7.4609375 L 90.814453 3.6269531 L 89.621094 3.8671875 L 89.621094 3.2949219 L 90.791016 3.0585938 z M 73.732422 3.203125 L 73.732422 4.2597656 L 73.283203 4.2597656 L 73.283203 4.7773438 L 73.732422 4.7773438 L 73.732422 6.7792969 C 73.732422 7.2476696 73.821922 7.5742164 74.007812 7.7578125 C 74.193752 7.9391608 74.527026 8.0273438 75.001953 8.0273438 L 75.648438 8.0273438 L 75.648438 7.4746094 L 75.001953 7.4746094 C 74.749133 7.4746094 74.583109 7.4308448 74.505859 7.3515625 C 74.431835 7.273539 74.388672 7.0813763 74.388672 6.7792969 L 74.388672 4.7773438 L 75.648438 4.7773438 L 75.648438 4.2597656 L 74.388672 4.2597656 L 74.388672 3.203125 L 74.369141 3.203125 L 73.732422 3.203125 z M 76.408203 3.203125 L 76.408203 4.2597656 L 75.958984 4.2597656 L 75.958984 4.7773438 L 76.408203 4.7773438 L 76.408203 6.7792969 C 76.408203 7.2476696 76.497703 7.5742164 76.683594 7.7578125 C 76.869533 7.9391608 77.200852 8.0273438 77.675781 8.0273438 L 78.324219 8.0273438 L 78.324219 7.4746094 L 77.675781 7.4746094 C 77.422961 7.4746094 77.25889 7.4308448 77.181641 7.3515625 C 77.107616 7.273539 77.064453 7.0813763 77.064453 6.7792969 L 77.064453 4.7773438 L 78.324219 4.7773438 L 78.324219 4.2597656 L 77.064453 4.2597656 L 77.064453 3.203125 L 77.042969 3.203125 L 76.408203 3.203125 z M 73.773438 3.2421875 L 74.347656 3.2421875 L 74.347656 4.3007812 L 75.609375 4.3007812 L 75.609375 4.7363281 L 74.347656 4.7363281 L 74.347656 6.7792969 C 74.347656 7.0849773 74.386444 7.2819641 74.476562 7.3769531 C 74.567887 7.4706816 74.744611 7.5136718 75.001953 7.5136719 L 75.609375 7.5136719 L 75.609375 7.9882812 L 75.001953 7.9882812 C 74.531971 7.9882812 74.210503 7.8976279 74.037109 7.7285156 C 73.863667 7.5572156 73.773438 7.2425268 73.773438 6.7792969 L 73.773438 4.7363281 L 73.324219 4.7363281 L 73.324219 4.3007812 L 73.773438 4.3007812 L 73.773438 3.2421875 z M 76.447266 3.2421875 L 77.023438 3.2421875 L 77.023438 4.3007812 L 78.285156 4.3007812 L 78.285156 4.7363281 L 77.023438 4.7363281 L 77.023438 6.7792969 C 77.023438 7.0849773 77.062225 7.2819641 77.152344 7.3769531 C 77.243669 7.4706816 77.418438 7.5136718 77.675781 7.5136719 L 78.285156 7.5136719 L 78.285156 7.9882812 L 77.675781 7.9882812 C 77.205799 7.9882812 76.88433 7.8976279 76.710938 7.7285156 C 76.537495 7.5572156 76.447266 7.2425268 76.447266 6.7792969 L 76.447266 4.7363281 L 75.998047 4.7363281 L 75.998047 4.3007812 L 76.447266 4.3007812 L 76.447266 3.2421875 z M 97.527344 3.4609375 C 97.17474 3.4609375 96.904233 3.6399837 96.726562 3.9863281 C 96.551084 4.3305356 96.464844 4.8444335 96.464844 5.5292969 C 96.464844 6.2119478 96.551133 6.7239459 96.726562 7.0703125 L 96.726562 7.0722656 C 96.904255 7.4164036 97.174782 7.5898438 97.527344 7.5898438 C 97.882083 7.5898438 98.14874 7.4145193 98.324219 7.0703125 C 98.501362 6.7239409 98.591797 6.2109206 98.591797 5.5292969 C 98.591797 4.8454626 98.501407 4.3305505 98.324219 3.9863281 C 98.148763 3.6399192 97.882125 3.4609375 97.527344 3.4609375 z M 97.527344 3.5039062 C 97.869047 3.5039062 98.120449 3.667144 98.291016 4.0039062 C 98.463736 4.3384146 98.548828 4.8478317 98.548828 5.5292969 C 98.548828 6.2085384 98.46378 6.7159491 98.291016 7.0527344 C 98.120471 7.3872665 97.869089 7.5507812 97.527344 7.5507812 C 97.187858 7.5507812 96.934487 7.3873355 96.761719 7.0527344 C 96.591128 6.7159258 96.503906 6.2085602 96.503906 5.5292969 C 96.503906 4.8478101 96.591168 4.3384377 96.761719 4.0039062 C 96.934508 3.6670756 97.187902 3.5039062 97.527344 3.5039062 z M 51.960938 4.1699219 C 51.3758 4.1699219 50.911206 4.3468116 50.572266 4.6992188 C 50.235536 5.0516626 50.068358 5.535075 50.068359 6.1464844 C 50.068359 6.7490506 50.234 7.231091 50.568359 7.5878906 C 50.902719 7.9446899 51.356506 8.125 51.921875 8.125 C 52.129449 8.125 52.324382 8.104718 52.507812 8.0644531 C 52.693362 8.0242132 52.872789 7.9632902 53.044922 7.8828125 L 53.056641 7.875 L 53.056641 7.265625 L 53.025391 7.2792969 C 52.853616 7.3739929 52.681437 7.4457894 52.507812 7.4941406 C 52.336458 7.5402743 52.16398 7.5664063 51.988281 7.5664062 C 51.59545 7.5664062 51.291828 7.4414643 51.076172 7.1953125 C 50.860471 6.94693 50.751954 6.5979755 50.751953 6.1464844 C 50.751953 5.6949931 50.860527 5.347699 51.076172 5.1015625 C 51.291851 4.8532047 51.595486 4.7285156 51.988281 4.7285156 C 52.163896 4.7285156 52.33652 4.7544208 52.507812 4.8027344 C 52.681347 4.8488643 52.853674 4.9190073 53.025391 5.0136719 L 53.056641 5.0292969 L 53.056641 4.4121094 L 53.044922 4.40625 C 52.875011 4.3280015 52.698714 4.2684849 52.517578 4.2304688 C 52.336466 4.1902214 52.150888 4.1699219 51.960938 4.1699219 z M 55.939453 4.1699219 C 55.64194 4.1699219 55.38752 4.2270557 55.177734 4.3398438 C 54.982965 4.4424647 54.831318 4.609642 54.705078 4.8144531 L 54.705078 4.2597656 L 54.050781 4.2597656 L 54.050781 8.0273438 L 54.705078 8.0273438 L 54.705078 6.0449219 C 54.705078 5.6263949 54.798316 5.307166 54.978516 5.0878906 C 55.160974 4.8663342 55.4181 4.7558594 55.759766 4.7558594 C 55.856003 4.7558594 55.94154 4.7656601 56.019531 4.7851562 L 56.023438 4.7851562 C 56.103612 4.80249 56.175301 4.8322576 56.242188 4.8710938 L 56.271484 4.8867188 L 56.271484 4.8535156 L 56.269531 4.2070312 L 56.251953 4.203125 C 56.189366 4.19195 56.13378 4.1861406 56.082031 4.1816406 C 56.030319 4.1748906 55.982654 4.1699219 55.939453 4.1699219 z M 58.205078 4.1699219 C 57.666201 4.1699219 57.24131 4.3468728 56.933594 4.6972656 C 56.628093 5.0476932 56.474609 5.5310034 56.474609 6.1464844 C 56.474609 6.7597591 56.628148 7.2450463 56.933594 7.5976562 C 57.24131 7.9480491 57.666201 8.125 58.205078 8.125 C 58.741755 8.125 59.166909 7.9480309 59.474609 7.5976562 C 59.782292 7.2450557 59.935547 6.7597834 59.935547 6.1464844 C 59.935547 5.5309793 59.782349 5.0476836 59.474609 4.6972656 C 59.166909 4.3468909 58.741755 4.1699219 58.205078 4.1699219 z M 62.191406 4.1699219 C 61.735811 4.1699219 61.361324 4.3534291 61.074219 4.7167969 C 60.789266 5.0802807 60.646484 5.5576986 60.646484 6.1464844 C 60.646484 6.7352701 60.789266 7.2146412 61.074219 7.578125 C 61.361324 7.9414928 61.735811 8.125 62.191406 8.125 C 62.469032 8.125 62.709544 8.0692977 62.908203 7.9609375 C 63.094311 7.858474 63.241735 7.6944588 63.367188 7.4941406 L 63.367188 9.4453125 L 64.017578 9.4453125 L 64.017578 4.2597656 L 63.367188 4.2597656 L 63.367188 4.7988281 C 63.241729 4.5986928 63.09435 4.4363316 62.908203 4.3359375 C 62.709521 4.2253082 62.469086 4.1699219 62.191406 4.1699219 z M 71.144531 4.1699219 C 70.581284 4.1699219 70.131174 4.3533296 69.796875 4.7167969 C 69.464756 5.078088 69.298828 5.5680749 69.298828 6.1816406 C 69.298828 6.7755653 69.474176 7.2495666 69.824219 7.5996094 C 70.176497 7.9496437 70.653621 8.125 71.251953 8.125 C 71.490661 8.125 71.724991 8.0979142 71.957031 8.0488281 C 72.188978 7.999762 72.415964 7.9295909 72.636719 7.8359375 L 72.648438 7.8320312 L 72.648438 7.2050781 L 72.619141 7.2207031 C 72.403036 7.3353716 72.185051 7.4212617 71.964844 7.4785156 C 71.746947 7.5357405 71.522546 7.5664063 71.289062 7.5664062 C 70.886756 7.5664062 70.575761 7.4557258 70.351562 7.2402344 C 70.134732 7.0276997 70.018586 6.7141524 69.988281 6.3105469 L 72.792969 6.3105469 L 72.792969 5.9902344 C 72.792969 5.432189 72.644298 4.9879651 72.347656 4.6621094 C 72.053267 4.3340114 71.650129 4.1699219 71.144531 4.1699219 z M 80.673828 4.1699219 C 80.110582 4.1699219 79.660471 4.3533296 79.326172 4.7167969 C 78.994053 5.078088 78.828125 5.5680749 78.828125 6.1816406 C 78.828125 6.7755653 79.003473 7.2495666 79.353516 7.5996094 C 79.705793 7.9496437 80.182918 8.125 80.78125 8.125 C 81.019958 8.125 81.254287 8.0979142 81.486328 8.0488281 C 81.718275 7.999762 81.945261 7.9295909 82.166016 7.8359375 L 82.177734 7.8320312 L 82.177734 7.2050781 L 82.148438 7.2207031 C 81.932333 7.3353716 81.714349 7.4212617 81.494141 7.4785156 C 81.276245 7.5357405 81.051843 7.5664063 80.818359 7.5664062 C 80.416053 7.5664062 80.105058 7.4557258 79.880859 7.2402344 C 79.664029 7.0276997 79.54593 6.7141524 79.515625 6.3105469 L 82.322266 6.3105469 L 82.322266 5.9902344 C 82.322266 5.432189 82.173595 4.9879651 81.876953 4.6621094 C 81.582564 4.3340114 81.179427 4.1699219 80.673828 4.1699219 z M 51.960938 4.2109375 C 52.148065 4.2109375 52.331546 4.2299264 52.509766 4.2695312 C 52.683678 4.3060312 52.852152 4.3632644 53.015625 4.4375 L 53.015625 4.9648438 C 52.851585 4.8770537 52.685885 4.8080785 52.519531 4.7636719 L 52.517578 4.7636719 C 52.343612 4.7148308 52.164803 4.6894531 51.986328 4.6894531 C 51.585042 4.6894531 51.270379 4.8188027 51.046875 5.0761719 C 50.823332 5.3313262 50.712891 5.6885541 50.712891 6.1464844 C 50.712891 6.6044145 50.823389 6.9633584 51.046875 7.2207031 C 51.270403 7.4758423 51.585079 7.6054687 51.986328 7.6054688 C 52.165526 7.6054688 52.342909 7.5802292 52.517578 7.5332031 L 52.519531 7.5332031 C 52.686487 7.4867095 52.850972 7.4163555 53.015625 7.328125 L 53.015625 7.8515625 C 52.849865 7.9280074 52.678348 7.9867127 52.5 8.0253906 C 52.319662 8.0649768 52.126868 8.0839844 51.921875 8.0839844 C 51.364885 8.0839844 50.92429 7.9091037 50.597656 7.5605469 C 50.271021 7.2119904 50.107422 6.7416927 50.107422 6.1464844 C 50.107422 5.5423742 50.272862 5.0706026 50.601562 4.7265625 C 50.932489 4.382486 51.38379 4.2109375 51.960938 4.2109375 z M 55.939453 4.2109375 C 55.980541 4.2109375 56.025853 4.2141406 56.076172 4.2207031 L 56.080078 4.2207031 C 56.125903 4.2246906 56.175214 4.2307407 56.230469 4.2402344 L 56.232422 4.8242188 C 56.169272 4.7909751 56.104516 4.761935 56.03125 4.7460938 C 55.949538 4.7256663 55.858725 4.7167969 55.759766 4.7167969 C 55.409383 4.7167969 55.137449 4.8315635 54.947266 5.0625 C 54.759257 5.291281 54.666016 5.6205704 54.666016 6.0449219 L 54.666016 7.9882812 L 54.089844 7.9882812 L 54.089844 4.3007812 L 54.666016 4.3007812 L 54.666016 4.9355469 L 54.703125 4.8710938 C 54.830063 4.6476461 54.994529 4.4818185 55.197266 4.375 C 55.400046 4.2659778 55.646953 4.2109375 55.939453 4.2109375 z M 58.205078 4.2109375 C 58.733089 4.2109375 59.145253 4.3829364 59.445312 4.7246094 C 59.745333 5.066239 59.894531 5.5375975 59.894531 6.1464844 C 59.894531 6.7531409 59.745388 7.2264293 59.445312 7.5703125 C 59.145253 7.9119855 58.733089 8.0839844 58.205078 8.0839844 C 57.674831 8.0839844 57.262935 7.9119673 56.962891 7.5703125 C 56.665013 7.2264387 56.515625 6.7531651 56.515625 6.1464844 C 56.515625 5.5375734 56.665069 5.0662293 56.962891 4.7246094 C 57.262935 4.3829545 57.674831 4.2109375 58.205078 4.2109375 z M 62.191406 4.2109375 C 62.463817 4.2109375 62.696967 4.2663018 62.888672 4.3730469 C 63.082573 4.4776228 63.242022 4.6362978 63.369141 4.8554688 L 63.40625 4.921875 L 63.40625 4.3007812 L 63.978516 4.3007812 L 63.978516 9.4042969 L 63.40625 9.4042969 L 63.40625 7.3730469 L 63.369141 7.4394531 C 63.242007 7.658649 63.082655 7.8209344 62.888672 7.9277344 C 62.696946 8.0323116 62.463871 8.0839844 62.191406 8.0839844 C 61.746452 8.0839844 61.386197 7.9060782 61.105469 7.5507812 C 60.827024 7.1956003 60.6875 6.7288559 60.6875 6.1464844 C 60.6875 5.5650418 60.827909 5.0991127 61.105469 4.7441406 C 61.386197 4.3888437 61.746452 4.2109375 62.191406 4.2109375 z M 71.144531 4.2109375 C 71.641515 4.2109375 72.029652 4.3698656 72.316406 4.6894531 L 72.320312 4.6894531 C 72.609249 5.0068467 72.751953 5.439229 72.751953 5.9902344 L 72.751953 6.2695312 L 69.9375 6.2695312 L 69.9375 6.2910156 C 69.964325 6.7157922 70.091779 7.0435627 70.322266 7.2695312 C 70.554998 7.4932242 70.879544 7.6054688 71.289062 7.6054688 C 71.525817 7.6054688 71.753321 7.575693 71.974609 7.5175781 C 72.188088 7.4620733 72.400249 7.375977 72.609375 7.2675781 L 72.609375 7.8046875 C 72.394816 7.894821 72.176315 7.9621391 71.951172 8.0097656 C 71.721847 8.0582767 71.48792 8.0839844 71.251953 8.0839844 C 70.661382 8.0839844 70.195769 7.9123258 69.851562 7.5703125 C 69.509558 7.2283078 69.337891 6.7677458 69.337891 6.1816406 C 69.337891 5.5752506 69.501733 5.0970781 69.826172 4.7441406 C 70.152866 4.3889431 70.589855 4.2109375 71.144531 4.2109375 z M 80.673828 4.2109375 C 81.170813 4.2109375 81.560902 4.3698656 81.847656 4.6894531 C 82.136593 5.0068467 82.279297 5.439229 82.279297 5.9902344 L 82.279297 6.2695312 L 79.464844 6.2695312 L 79.464844 6.2910156 C 79.491669 6.7157922 79.621076 7.0435627 79.851562 7.2695312 C 80.084294 7.4932242 80.40884 7.6054688 80.818359 7.6054688 C 81.055114 7.6054688 81.282618 7.575693 81.503906 7.5175781 C 81.717384 7.4620733 81.929545 7.375977 82.138672 7.2675781 L 82.138672 7.8046875 C 81.924111 7.894821 81.703659 7.9621391 81.478516 8.0097656 C 81.249191 8.0582767 81.017216 8.0839844 80.78125 8.0839844 C 80.190679 8.0839844 79.723113 7.9123258 79.378906 7.5703125 C 79.036902 7.2283072 78.867188 6.7677458 78.867188 6.1816406 C 78.867188 5.5752506 79.03103 5.0970781 79.355469 4.7441406 C 79.682163 4.3889431 80.119153 4.2109375 80.673828 4.2109375 z M 65.175781 4.2597656 L 65.175781 6.5351562 C 65.175781 7.0504236 65.285868 7.4457762 65.511719 7.7167969 C 65.737581 7.9878298 66.071667 8.125 66.503906 8.125 C 66.766216 8.125 66.996828 8.0695035 67.195312 7.9589844 C 67.381795 7.8542197 67.542776 7.6872256 67.685547 7.4824219 L 67.685547 8.0273438 L 68.337891 8.0273438 L 68.337891 4.2597656 L 67.685547 4.2597656 L 67.685547 6.3945312 C 67.685547 6.7547633 67.589498 7.0337421 67.400391 7.2402344 C 67.21349 7.4466936 66.959059 7.5507812 66.632812 7.5507812 C 66.362014 7.5507812 66.162822 7.4670108 66.029297 7.296875 C 65.895705 7.1244978 65.828125 6.8637504 65.828125 6.5136719 L 65.828125 4.2597656 L 65.175781 4.2597656 z M 84.994141 4.2597656 L 85.003906 4.2871094 L 86.40625 8.0273438 L 87.265625 8.0273438 L 88.679688 4.2597656 L 87.986328 4.2597656 L 86.835938 7.3515625 L 85.685547 4.2597656 L 84.994141 4.2597656 z M 65.216797 4.3007812 L 65.789062 4.3007812 L 65.789062 6.5136719 C 65.789062 6.8689496 65.856598 7.1397466 65.998047 7.3222656 C 66.139568 7.5025898 66.353521 7.5898438 66.632812 7.5898438 C 66.967559 7.5898438 67.235074 7.4825582 67.429688 7.2675781 C 67.626534 7.0526312 67.724609 6.7618364 67.724609 6.3945312 L 67.724609 4.3007812 L 68.294922 4.3007812 L 68.294922 7.9882812 L 67.724609 7.9882812 L 67.724609 7.3671875 L 67.6875 7.4238281 C 67.540294 7.6479314 67.369998 7.8127648 67.175781 7.921875 C 66.98388 8.0287297 66.760632 8.0839844 66.503906 8.0839844 C 66.079957 8.0839844 65.762681 7.9546703 65.544922 7.6933594 C 65.327156 7.4320353 65.216797 7.0446516 65.216797 6.5351562 L 65.216797 4.3007812 z M 85.050781 4.3007812 L 85.65625 4.3007812 L 86.835938 7.4648438 L 88.015625 4.3007812 L 88.621094 4.3007812 L 87.238281 7.9882812 L 86.433594 7.9882812 L 85.050781 4.3007812 z M 62.341797 4.6816406 C 62.012658 4.6816406 61.750095 4.8163671 61.560547 5.078125 C 61.373176 5.3377349 61.279297 5.693484 61.279297 6.1464844 C 61.279297 6.5994847 61.373236 6.9569602 61.560547 7.21875 L 61.560547 7.2207031 C 61.750123 7.4802414 62.012703 7.6113281 62.341797 7.6113281 C 62.670891 7.6113281 62.933471 7.4802414 63.123047 7.2207031 C 63.312618 6.9589146 63.40625 6.5995174 63.40625 6.1464844 C 63.40625 5.6934512 63.312674 5.3377329 63.123047 5.078125 C 62.933497 4.8163671 62.670936 4.6816405 62.341797 4.6816406 z M 58.205078 4.6894531 C 57.871574 4.6894531 57.606134 4.8203223 57.412109 5.0820312 C 57.218005 5.3415884 57.121094 5.6977936 57.121094 6.1464844 C 57.121094 6.5951419 57.214457 6.9531016 57.40625 7.2148438 C 57.600325 7.4743617 57.869435 7.6054688 58.205078 7.6054688 C 58.5364 7.6054688 58.802089 7.4726168 58.996094 7.2109375 C 59.190125 6.9492203 59.287109 6.5929712 59.287109 6.1464844 C 59.287109 5.7022011 59.190108 5.3495857 58.996094 5.0878906 C 58.802115 4.8239903 58.536445 4.6894531 58.205078 4.6894531 z M 71.152344 4.6894531 C 70.80699 4.6894531 70.526712 4.7876379 70.316406 4.984375 C 70.108318 5.1811547 69.990349 5.4585249 69.958984 5.8125 L 69.955078 5.8339844 L 72.179688 5.8320312 L 72.179688 5.8105469 C 72.175261 5.471998 72.080405 5.1978086 71.892578 4.9941406 C 71.706986 4.7904425 71.458417 4.6894531 71.152344 4.6894531 z M 80.681641 4.6894531 C 80.336287 4.6894531 80.056009 4.7876379 79.845703 4.984375 C 79.637615 5.1811547 79.517693 5.4585249 79.486328 5.8125 L 79.484375 5.8339844 L 81.708984 5.8320312 L 81.708984 5.8105469 C 81.704558 5.471998 81.607749 5.1978086 81.419922 4.9941406 C 81.23433 4.7904425 80.987714 4.6894531 80.681641 4.6894531 z M 62.341797 4.7246094 C 62.660342 4.7246094 62.906752 4.8467686 63.089844 5.0996094 C 63.272858 5.3501647 63.367187 5.6989684 63.367188 6.1464844 C 63.367188 6.5940002 63.27291 6.9444547 63.089844 7.1972656 C 62.906779 7.4478905 62.660389 7.5703125 62.341797 7.5703125 C 62.023205 7.5703125 61.774861 7.4478901 61.591797 7.1972656 C 61.410906 6.9444559 61.320313 6.5940331 61.320312 6.1464844 C 61.320312 5.6989356 61.410964 5.3501628 61.591797 5.0996094 C 61.774889 4.8467679 62.02325 4.7246094 62.341797 4.7246094 z M 58.205078 4.7285156 C 58.525834 4.7285156 58.777308 4.8561918 58.964844 5.1113281 C 59.152342 5.3642324 59.248047 5.7079633 59.248047 6.1464844 C 59.248047 6.5872379 59.152322 6.9346177 58.964844 7.1875 C 58.777334 7.4404203 58.525879 7.5664062 58.205078 7.5664062 C 57.879726 7.5664062 57.626893 7.4400985 57.439453 7.1894531 C 57.25417 6.9365959 57.160156 6.5895034 57.160156 6.1464844 C 57.160156 5.7034984 57.255945 5.3580281 57.443359 5.1074219 C 57.630848 4.8545314 57.882024 4.7285156 58.205078 4.7285156 z M 71.152344 4.7285156 C 71.449594 4.7285156 71.685104 4.8259236 71.863281 5.0214844 C 72.039161 5.2121967 72.124238 5.4713431 72.132812 5.7910156 L 70.003906 5.7949219 C 70.037869 5.4600185 70.148484 5.1983253 70.34375 5.0136719 C 70.546011 4.8244595 70.814522 4.7285156 71.152344 4.7285156 z M 80.681641 4.7285156 C 80.978891 4.7285156 81.212448 4.8259236 81.390625 5.0214844 C 81.566505 5.2121967 81.653534 5.4713431 81.662109 5.7910156 L 79.533203 5.7949219 C 79.567166 5.4600185 79.677781 5.1983253 79.873047 5.0136719 C 80.075308 4.8244595 80.343819 4.7285156 80.681641 4.7285156 z M 112.0918 6.3808594 L 112.0918 11.548828 L 105.05469 16.755859 L 42.929688 15.146484 C 42.482834 11.67388 39.496086 8.9589844 35.908203 8.9589844 C 32.015367 8.9589843 28.820312 12.152085 28.820312 16.044922 C 28.820313 19.937758 32.015367 23.132812 35.908203 23.132812 C 35.95766 23.132812 36.005462 23.126026 36.054688 23.125 L 37.119141 29.197266 A 1.0801052 1.0801051 0 0 0 37.181641 29.486328 A 1.0801052 1.0801051 0 0 0 37.416016 29.892578 L 41.626953 36.289062 C 41.191085 36.852235 40.919922 37.548357 40.919922 38.310547 C 40.919922 40.140588 42.419957 41.640625 44.25 41.640625 C 46.080042 41.640625 47.580078 40.140588 47.580078 38.310547 C 47.580078 36.480504 46.080042 34.980469 44.25 34.980469 C 43.964546 34.980469 43.69269 35.029104 43.427734 35.097656 L 39.228516 28.716797 L 38.179688 22.748047 C 40.580163 21.925942 42.409615 19.847222 42.873047 17.306641 L 105.14062 18.919922 A 1.0801052 1.0801051 0 0 0 105.98633 18.751953 A 1.0806845 1.0806844 0 0 0 106.03711 18.714844 A 1.0801052 1.0801051 0 0 0 106.03906 18.712891 A 1.0806845 1.0806844 0 0 0 106.08984 18.675781 L 112.73047 13.761719 L 114.99219 13.761719 C 115.24796 13.818487 115.51121 13.851562 115.7832 13.851562 C 116.05519 13.851562 116.31852 13.818487 116.57422 13.761719 L 119.47266 13.761719 L 119.47266 13.048828 L 125.94727 16.023438 L 125.94727 19.958984 L 132.9668 19.958984 L 132.9668 13.837891 L 132.9668 12.9375 L 125.94727 12.9375 L 125.94727 13.646484 L 119.47266 10.669922 L 119.47266 6.3808594 L 112.99219 6.3808594 L 112.0918 6.3808594 z M 93.898438 7.140625 L 93.898438 7.1621094 L 93.898438 8.0273438 L 94.640625 8.0273438 L 94.640625 7.140625 L 93.898438 7.140625 z M 93.939453 7.1816406 L 94.601562 7.1816406 L 94.601562 7.9882812 L 93.939453 7.9882812 L 93.939453 7.1816406 z M 115.7832 8.2714844 C 116.83768 8.2714844 117.67383 9.1056807 117.67383 10.160156 C 117.67383 10.317234 117.64831 10.46788 117.61328 10.613281 A 1.0801052 1.0801051 0 0 0 117.31641 11.267578 C 117.0799 11.597356 116.73916 11.841547 116.33984 11.962891 L 115.22852 11.962891 C 114.95265 11.87927 114.70324 11.738525 114.49805 11.548828 A 1.0801052 1.0801051 0 0 0 114.08398 10.986328 C 113.96415 10.736938 113.89062 10.458222 113.89062 10.160156 C 113.89062 9.1056807 114.72873 8.2714844 115.7832 8.2714844 z M 18.105469 9.2597656 C 14.212633 9.2597656 11.017578 12.452867 11.017578 16.345703 C 11.017578 20.238539 14.212633 23.431641 18.105469 23.431641 C 18.352182 23.431641 18.595487 23.419558 18.835938 23.394531 L 23.746094 42.121094 C 22.731606 42.487856 21.938941 43.305963 21.601562 44.333984 L 19.244141 44.333984 C 18.78313 42.931583 17.47337 41.902344 15.923828 41.902344 C 13.995974 41.902344 12.412109 43.484256 12.412109 45.412109 C 12.412109 47.339964 13.995974 48.923828 15.923828 48.923828 C 17.472997 48.923828 18.782825 47.89407 19.244141 46.492188 L 21.603516 46.492188 C 22.064284 47.893947 23.372795 48.923828 24.921875 48.923828 C 26.332463 48.923828 27.551125 48.071258 28.107422 46.861328 L 41.021484 48.087891 C 41.035158 48.144245 41.057695 48.196732 41.074219 48.251953 L 9.5195312 70.761719 C 8.9640534 70.358907 8.289731 70.115234 7.5566406 70.115234 C 5.7033445 70.115234 4.1796875 71.636938 4.1796875 73.490234 C 4.1796875 75.343529 5.7033445 76.865234 7.5566406 76.865234 C 7.7668931 76.865234 7.969965 76.840144 8.1699219 76.802734 L 15.103516 89.208984 C 14.522394 89.83628 14.158203 90.666731 14.158203 91.582031 C 14.158203 93.509885 15.740114 95.089844 17.667969 95.089844 C 19.595823 95.089844 21.177734 93.509885 21.177734 91.582031 C 21.177734 89.654178 19.595823 88.070312 17.667969 88.070312 C 17.432354 88.070312 17.203518 88.095599 16.980469 88.140625 L 10.048828 75.738281 C 10.589766 75.139164 10.929687 74.354504 10.929688 73.490234 C 10.929688 73.151924 10.863653 72.832489 10.769531 72.523438 L 42.322266 50.013672 C 42.868238 50.405359 43.531449 50.642578 44.25 50.642578 C 46.080042 50.642578 47.580078 49.142543 47.580078 47.3125 C 47.580078 45.482459 46.080042 43.982422 44.25 43.982422 C 42.914673 43.982422 41.763752 44.784988 41.234375 45.927734 L 28.347656 44.662109 C 28.076049 43.435549 27.152124 42.456241 25.966797 42.080078 L 20.923828 22.839844 C 23.426867 21.742573 25.191406 19.238468 25.191406 16.345703 C 25.191406 12.452867 21.998305 9.2597656 18.105469 9.2597656 z M 35.908203 12.501953 C 37.807023 12.501953 39.309403 13.949126 39.427734 15.814453 A 1.0806845 1.0806844 0 0 0 39.410156 16.453125 C 39.246645 17.903453 38.242749 19.061998 36.876953 19.443359 A 1.0801052 1.0801051 0 0 0 36.701172 19.425781 A 1.0801052 1.0801051 0 0 0 36.162109 19.564453 C 36.076689 19.570435 35.995326 19.589844 35.908203 19.589844 C 33.930311 19.589844 32.363281 18.022814 32.363281 16.044922 C 32.363281 14.067028 33.930311 12.501953 35.908203 12.501953 z M 18.105469 12.802734 C 20.083362 12.802733 21.648438 14.36781 21.648438 16.345703 C 21.648437 17.874635 20.709127 19.148477 19.371094 19.652344 A 1.0801052 1.0801051 0 0 0 19.285156 19.646484 A 1.0801052 1.0801051 0 0 0 18.640625 19.837891 C 18.465111 19.863958 18.289022 19.890625 18.105469 19.890625 C 16.127575 19.890625 14.560547 18.323597 14.560547 16.345703 C 14.560547 14.36781 16.127575 12.802734 18.105469 12.802734 z M 129.45703 14.738281 C 130.41209 14.738281 131.16602 15.492201 131.16602 16.447266 C 131.16602 17.402331 130.41209 18.15625 129.45703 18.15625 C 128.50196 18.15625 127.74609 17.402331 127.74609 16.447266 C 127.74609 16.301817 127.76962 16.163463 127.80273 16.029297 A 1.0803803 1.0803802 0 0 0 128.06445 15.451172 C 128.37295 15.018598 128.8768 14.738281 129.45703 14.738281 z M 129.45703 21.9375 C 127.52917 21.9375 125.94727 23.519411 125.94727 25.447266 C 125.94727 25.915626 126.04379 26.361596 126.21289 26.771484 L 117.77539 33.888672 C 117.19913 33.515247 116.51643 33.292969 115.7832 33.292969 C 113.75594 33.292969 112.0918 34.955156 112.0918 36.982422 C 112.0918 38.848535 113.5071 40.387404 115.3125 40.623047 L 116.99609 50.443359 A 1.0801052 1.0801051 0 0 0 117.46094 51.330078 A 1.0801052 1.0801051 0 0 0 117.49023 51.349609 A 1.0801052 1.0801051 0 0 0 117.52344 51.371094 A 1.0801052 1.0801051 0 0 0 117.88086 51.515625 L 125.71094 53.988281 C 125.71086 53.998324 125.70703 54.007518 125.70703 54.017578 C 125.70703 56.044843 127.36921 57.708984 129.39648 57.708984 C 131.42374 57.708984 133.08789 56.044843 133.08789 54.017578 C 133.08789 51.990312 131.42374 50.330078 129.39648 50.330078 C 128.14381 50.330078 127.03295 50.966556 126.36523 51.929688 L 119.04688 49.617188 L 117.44141 40.257812 C 118.63868 39.646029 119.47266 38.411376 119.47266 36.982422 C 119.47266 36.470018 119.36522 35.981874 119.17383 35.537109 L 127.61133 28.416016 C 128.15011 28.753645 128.77911 28.957031 129.45703 28.957031 C 131.38488 28.957031 132.9668 27.375119 132.9668 25.447266 C 132.9668 23.519411 131.38488 21.9375 129.45703 21.9375 z M 129.45703 23.738281 C 130.41209 23.738281 131.16602 24.492201 131.16602 25.447266 C 131.16602 26.402331 130.41209 27.158203 129.45703 27.158203 C 129.05237 27.158203 128.68934 27.016258 128.39844 26.787109 A 1.0801052 1.0801051 0 0 0 127.95703 26.263672 C 127.82607 26.020866 127.74609 25.746034 127.74609 25.447266 C 127.74609 24.492201 128.50196 23.738281 129.45703 23.738281 z M 48.75 25.980469 C 46.919957 25.980469 45.419922 27.480504 45.419922 29.310547 C 45.419922 31.140588 46.919957 32.640625 48.75 32.640625 C 50.580043 32.640625 52.080078 31.140588 52.080078 29.310547 C 52.080078 27.480504 50.580043 25.980469 48.75 25.980469 z M 57.751953 25.980469 C 55.92191 25.980469 54.421875 27.480504 54.421875 29.310547 C 54.421875 31.140588 55.92191 32.640625 57.751953 32.640625 C 59.581996 32.640625 61.082031 31.140588 61.082031 29.310547 C 61.082031 27.480504 59.581996 25.980469 57.751953 25.980469 z M 66.75 25.980469 C 64.919957 25.980469 63.419922 27.480504 63.419922 29.310547 C 63.419922 31.140588 64.919957 32.640625 66.75 32.640625 C 68.580042 32.640625 70.080078 31.140588 70.080078 29.310547 C 70.080078 27.480504 68.580042 25.980469 66.75 25.980469 z M 75.75 25.980469 C 73.919958 25.980469 72.419922 27.480504 72.419922 29.310547 C 72.419922 31.140588 73.919958 32.640625 75.75 32.640625 C 77.580043 32.640625 79.080078 31.140588 79.080078 29.310547 C 79.080078 27.480504 77.580043 25.980469 75.75 25.980469 z M 84.75 25.980469 C 82.919958 25.980469 81.419922 27.480504 81.419922 29.310547 C 81.419922 31.140588 82.919958 32.640625 84.75 32.640625 C 86.580043 32.640625 88.080078 31.140588 88.080078 29.310547 C 88.080078 27.480504 86.580043 25.980469 84.75 25.980469 z M 93.75 25.980469 C 91.919957 25.980469 90.419922 27.480504 90.419922 29.310547 C 90.419922 31.140588 91.919957 32.640625 93.75 32.640625 C 95.580043 32.640625 97.080078 31.140588 97.080078 29.310547 C 97.080078 27.480504 95.580043 25.980469 93.75 25.980469 z M 48.75 27.511719 C 49.753171 27.511719 50.548828 28.307376 50.548828 29.310547 C 50.548828 30.313718 49.753171 31.111328 48.75 31.111328 C 47.746829 31.111328 46.951172 30.313718 46.951172 29.310547 C 46.951172 28.307376 47.746829 27.511719 48.75 27.511719 z M 57.751953 27.511719 C 58.755124 27.511719 59.550781 28.307376 59.550781 29.310547 C 59.550781 30.313718 58.755124 31.111328 57.751953 31.111328 C 56.748782 31.111328 55.949219 30.313718 55.949219 29.310547 C 55.949219 28.307376 56.748782 27.511719 57.751953 27.511719 z M 66.75 27.511719 C 67.753171 27.511719 68.548828 28.307376 68.548828 29.310547 C 68.548828 30.313718 67.753171 31.111328 66.75 31.111328 C 65.746829 31.111328 64.951172 30.313718 64.951172 29.310547 C 64.951172 28.307376 65.746829 27.511719 66.75 27.511719 z M 75.75 27.511719 C 76.753171 27.511719 77.550781 28.307376 77.550781 29.310547 C 77.550781 30.313718 76.753171 31.111328 75.75 31.111328 C 74.746829 31.111328 73.949219 30.313718 73.949219 29.310547 C 73.949219 28.307376 74.746829 27.511719 75.75 27.511719 z M 84.75 27.511719 C 85.753171 27.511719 86.550781 28.307376 86.550781 29.310547 C 86.550781 30.313718 85.753171 31.111328 84.75 31.111328 C 83.746829 31.111328 82.949219 30.313718 82.949219 29.310547 C 82.949219 28.307376 83.746829 27.511719 84.75 27.511719 z M 93.75 27.511719 C 94.753171 27.511719 95.548828 28.307376 95.548828 29.310547 C 95.548828 30.313718 94.753171 31.111328 93.75 31.111328 C 92.746829 31.111328 91.951172 30.313718 91.951172 29.310547 C 91.951172 28.307376 92.746829 27.511719 93.75 27.511719 z M 98.25 34.980469 C 96.419958 34.980469 94.919922 36.480504 94.919922 38.310547 C 94.919922 40.140588 96.419958 41.640625 98.25 41.640625 C 100.08004 41.640625 101.58008 40.140588 101.58008 38.310547 C 101.58008 36.480504 100.08004 34.980469 98.25 34.980469 z M 115.7832 35.091797 C 116.25011 35.091797 116.66865 35.263087 116.99609 35.537109 A 1.0801756 1.0801755 0 0 0 117.41211 36.03125 C 117.57398 36.310639 117.67383 36.631985 117.67383 36.982422 C 117.67383 37.803711 117.16369 38.485764 116.44141 38.75 A 1.0801052 1.0801051 0 0 0 116.2832 38.734375 A 1.0801052 1.0801051 0 0 0 115.75195 38.867188 C 114.71272 38.850336 113.89062 38.026108 113.89062 36.982422 C 113.89062 35.927946 114.72873 35.091797 115.7832 35.091797 z M 44.25 36.511719 C 45.253171 36.511719 46.050781 37.307376 46.050781 38.310547 C 46.050781 39.313717 45.253171 40.109375 44.25 40.109375 C 43.246829 40.109375 42.451172 39.313717 42.451172 38.310547 C 42.451172 37.79584 42.662354 37.337854 43.001953 37.011719 A 1.0803642 1.0803641 0 0 0 43.552734 36.648438 C 43.766942 36.559617 44.001398 36.511719 44.25 36.511719 z M 98.25 36.511719 C 99.253171 36.511719 100.05078 37.307376 100.05078 38.310547 C 100.05078 39.313717 99.253171 40.109375 98.25 40.109375 C 97.246829 40.109375 96.449219 39.313717 96.449219 38.310547 C 96.449219 37.307376 97.246829 36.511719 98.25 36.511719 z M 129.39648 41.328125 C 127.36921 41.328125 125.70703 42.992265 125.70703 45.019531 C 125.70703 47.046797 127.36921 48.708984 129.39648 48.708984 C 130.73145 48.708984 131.89834 47.981176 132.54688 46.910156 L 135.76367 47.708984 L 136.91797 68.970703 L 115.66406 68.878906 L 101.55664 65.080078 C 101.43525 63.357962 100.00135 61.980469 98.25 61.980469 C 96.419958 61.980469 94.919922 63.480504 94.919922 65.310547 C 94.919922 67.140589 96.419958 68.640625 98.25 68.640625 C 99.392254 68.640625 100.40525 68.056145 101.00586 67.171875 L 114.86914 70.904297 L 127.54883 88.380859 L 127.70898 136.2832 L 121.82812 136.62695 C 121.31379 135.32475 120.04586 134.39258 118.56836 134.39258 C 116.6405 134.39258 115.05859 135.97449 115.05859 137.90234 C 115.05859 139.83019 116.6405 141.41406 118.56836 141.41406 C 120.19005 141.41406 121.55508 140.28842 121.95117 138.78516 L 128.82422 138.38281 A 1.0803287 1.0803286 0 0 0 128.82812 138.38281 L 128.83984 138.38086 A 1.0803287 1.0803286 0 0 0 128.85547 138.38086 A 1.0806262 1.0806261 0 0 0 129.87305 137.01953 L 129.70703 88.042969 A 1.0811909 1.0811908 0 0 0 129.70703 88.021484 A 1.0801052 1.0801051 0 0 0 129.42188 87.28125 L 117.64062 71.046875 L 137.77539 71.132812 A 1.0801052 1.0801051 0 0 0 139.13867 70.072266 A 1.0803307 1.0803306 0 0 0 139.13086 69.917969 L 137.87891 46.794922 A 1.0801052 1.0801051 0 0 0 136.88867 45.761719 L 133.06836 44.816406 C 132.95963 42.884174 131.35423 41.328125 129.39648 41.328125 z M 129.39648 43.128906 C 130.45096 43.128906 131.28711 43.965055 131.28711 45.019531 C 131.28711 45.058346 131.27762 45.094623 131.27539 45.132812 A 1.0801052 1.0801051 0 0 0 131.11133 45.808594 C 130.81531 46.46024 130.16705 46.908203 129.39648 46.908203 C 128.34201 46.908203 127.50781 46.074007 127.50781 45.019531 C 127.50781 43.965055 128.34201 43.128906 129.39648 43.128906 z M 108.97852 43.15625 C 107.12522 43.15625 105.60547 44.679908 105.60547 46.533203 C 105.60547 48.373773 107.10543 49.881657 108.94141 49.902344 L 112.33594 60.341797 A 1.0801052 1.0801051 0 0 0 113.22461 61.224609 L 113.24609 61.228516 L 125.70703 63.457031 L 125.70703 66.708984 L 132.1875 66.708984 L 133.08789 66.708984 L 133.08789 59.328125 L 125.70703 59.328125 L 125.70703 61.261719 L 114.24414 59.212891 L 110.99023 49.222656 C 111.81256 48.605303 112.35547 47.632103 112.35547 46.533203 C 112.35547 44.679908 110.83181 43.15625 108.97852 43.15625 z M 15.923828 43.703125 C 16.741336 43.703125 17.405954 44.257529 17.582031 45.015625 A 1.0801052 1.0801051 0 0 0 17.582031 45.808594 C 17.405954 46.567205 16.741336 47.123047 15.923828 47.123047 C 14.968764 47.123047 14.210938 46.367174 14.210938 45.412109 C 14.210938 44.457044 14.968764 43.703125 15.923828 43.703125 z M 24.201172 43.863281 L 24.628906 45.494141 A 1.0801481 1.080148 0 0 0 25.113281 46.451172 A 1.0801052 1.0801051 0 0 0 25.115234 46.453125 A 1.0801052 1.0801051 0 0 0 25.960938 46.658203 L 26.083984 46.669922 C 25.779952 46.950453 25.374619 47.123047 24.921875 47.123047 C 24.104166 47.123047 23.437596 46.567492 23.261719 45.808594 A 1.0801052 1.0801051 0 0 0 23.263672 45.015625 C 23.383833 44.498274 23.731013 44.078845 24.201172 43.863281 z M 98.25 43.982422 C 96.419958 43.982422 94.919922 45.482459 94.919922 47.3125 C 94.919922 49.142543 96.419958 50.642578 98.25 50.642578 C 100.08004 50.642578 101.58008 49.142543 101.58008 47.3125 C 101.58008 45.482459 100.08004 43.982422 98.25 43.982422 z M 108.97852 44.958984 C 109.85902 44.958984 110.55469 45.652698 110.55469 46.533203 C 110.55469 47.119569 110.24307 47.617549 109.77734 47.888672 A 1.0801052 1.0801051 0 0 0 109.74023 47.888672 A 1.0801052 1.0801051 0 0 0 109.14062 48.091797 C 109.08686 48.097159 109.03388 48.107422 108.97852 48.107422 C 108.09801 48.107422 107.4043 47.41371 107.4043 46.533203 C 107.4043 45.652698 108.09801 44.958984 108.97852 44.958984 z M 44.25 45.509766 C 45.253171 45.509766 46.050781 46.309329 46.050781 47.3125 C 46.050781 48.315671 45.253171 49.111328 44.25 49.111328 C 43.768646 49.111328 43.338516 48.92457 43.017578 48.623047 A 1.0801052 1.0801051 0 0 0 42.611328 48.050781 C 42.539549 47.889706 42.494738 47.716212 42.472656 47.533203 A 1.0801052 1.0801051 0 0 0 42.546875 46.755859 C 42.77914 46.031332 43.442881 45.509766 44.25 45.509766 z M 98.25 45.509766 C 99.253171 45.509766 100.05078 46.309329 100.05078 47.3125 C 100.05078 48.315671 99.253171 49.111328 98.25 49.111328 C 97.246829 49.111329 96.449219 48.315671 96.449219 47.3125 C 96.449219 46.309329 97.246829 45.509766 98.25 45.509766 z M 129.39648 52.128906 C 130.45096 52.128906 131.28711 52.963102 131.28711 54.017578 C 131.28711 55.072053 130.45096 55.908203 129.39648 55.908203 C 128.34201 55.908203 127.50781 55.072053 127.50781 54.017578 C 127.50781 53.928129 127.52156 53.843729 127.5332 53.757812 A 1.0805967 1.0805966 0 0 0 127.72266 53.152344 C 128.03416 52.543671 128.65729 52.128906 129.39648 52.128906 z M 44.25 52.980469 C 42.419957 52.980469 40.919922 54.480504 40.919922 56.310547 C 40.919922 58.140589 42.419957 59.640625 44.25 59.640625 C 46.080042 59.640625 47.580078 58.140589 47.580078 56.310547 C 47.580078 54.480504 46.080042 52.980469 44.25 52.980469 z M 98.25 52.980469 C 96.419958 52.980469 94.919922 54.480504 94.919922 56.310547 C 94.919922 58.140589 96.419958 59.640625 98.25 59.640625 C 100.08004 59.640625 101.58008 58.140589 101.58008 56.310547 C 101.58008 54.480504 100.08004 52.980469 98.25 52.980469 z M 44.25 54.511719 C 45.253171 54.511719 46.050781 55.307376 46.050781 56.310547 C 46.050781 57.313718 45.253171 58.109375 44.25 58.109375 C 43.246829 58.109375 42.451172 57.313718 42.451172 56.310547 C 42.451172 55.307376 43.246829 54.511719 44.25 54.511719 z M 98.25 54.511719 C 99.253171 54.511719 100.05078 55.307376 100.05078 56.310547 C 100.05078 57.313718 99.253171 58.109375 98.25 58.109375 C 97.246829 58.109375 96.449219 57.313718 96.449219 56.310547 C 96.449219 55.307376 97.246829 54.511719 98.25 54.511719 z M 61.601562 59.554688 A 1.0801052 1.0801051 0 0 0 61.148438 59.652344 L 47.009766 63.453125 C 47.009766 63.453125 47.009766 63.451172 47.009766 63.451172 C 46.409461 62.564923 45.393776 61.980469 44.25 61.980469 C 42.419957 61.980469 40.919922 63.480504 40.919922 65.310547 C 40.919922 65.681274 40.995985 66.03132 41.109375 66.365234 L 26.433594 77.640625 A 1.0801052 1.0801051 0 0 0 26.09375 77.9375 A 1.0801052 1.0801051 0 0 0 25.876953 78.878906 L 25.876953 93.175781 L 19.703125 97.736328 C 19.127042 97.321109 18.427034 97.070312 17.667969 97.070312 C 15.740114 97.070312 14.158203 98.652223 14.158203 100.58008 C 14.158203 102.50793 15.740114 104.0918 17.667969 104.0918 C 19.595823 104.0918 21.177734 102.50793 21.177734 100.58008 C 21.177734 100.19183 21.098596 99.824766 20.980469 99.474609 L 27.591797 94.59375 A 1.0803197 1.0803196 0 0 0 27.597656 94.589844 A 1.0801052 1.0801051 0 0 0 27.675781 94.525391 A 1.0803197 1.0803196 0 0 0 27.681641 94.521484 A 1.0801052 1.0801051 0 0 0 28.037109 93.548828 L 28.037109 79.130859 L 42.416016 68.082031 C 42.943288 68.433029 43.573353 68.640625 44.25 68.640625 C 46.001119 68.640625 47.434923 67.262817 47.556641 65.541016 L 60.744141 61.998047 L 75.632812 143.9668 A 1.0805823 1.0805822 0 0 0 75.640625 144.00586 A 1.0803333 1.0803332 0 0 0 75.644531 144.01562 A 1.0805823 1.0805822 0 0 0 75.810547 144.39062 A 1.0803333 1.0803332 0 0 0 75.832031 144.41992 A 1.0805823 1.0805822 0 0 0 75.882812 144.48242 A 1.0803333 1.0803332 0 0 0 75.892578 144.49414 A 1.0805823 1.0805822 0 0 0 76.130859 144.69336 A 1.0803333 1.0803332 0 0 0 76.132812 144.69531 A 1.0803333 1.0803332 0 0 0 76.134766 144.69727 A 1.0805823 1.0805822 0 0 0 76.330078 144.78906 A 1.0805823 1.0805822 0 0 0 76.423828 144.81836 A 1.0803333 1.0803332 0 0 0 76.443359 144.82227 A 1.0805823 1.0805822 0 0 0 76.519531 144.83789 A 1.0803333 1.0803332 0 0 0 76.554688 144.84375 A 1.0805823 1.0805822 0 0 0 76.728516 144.85352 L 107.17773 145.01953 A 1.0806887 1.0806886 0 0 0 108.26172 144.23438 A 1.0803333 1.0803332 0 0 0 108.28516 144.14062 A 1.0806887 1.0806886 0 0 0 108.29297 144.0957 L 110.31836 130.22656 L 115.27734 130.07812 C 115.76583 131.43113 117.0538 132.41211 118.56836 132.41211 C 120.49621 132.41211 122.07812 130.83214 122.07812 128.9043 C 122.07812 126.97644 120.49621 125.39258 118.56836 125.39258 C 116.98363 125.39258 115.64773 126.46837 115.2168 127.91992 L 109.52539 128.08789 A 1.0801052 1.0801051 0 0 0 109.41602 128.07812 A 1.0801052 1.0801051 0 0 0 108.36328 128.80664 A 1.0807821 1.080782 0 0 0 108.35938 128.81445 A 1.0801052 1.0801051 0 0 0 108.3457 128.86328 A 1.0807821 1.080782 0 0 0 108.30273 129.08203 L 106.29102 142.85352 L 77.597656 142.69727 L 62.6875 60.607422 A 1.0801052 1.0801051 0 0 0 62.375 59.888672 A 1.0801052 1.0801051 0 0 0 62.302734 59.820312 A 1.0801052 1.0801051 0 0 0 62.296875 59.814453 A 1.0801052 1.0801051 0 0 0 61.601562 59.554688 z M 129.39648 61.126953 C 130.45096 61.126953 131.28711 61.965055 131.28711 63.019531 C 131.28711 64.074006 130.45096 64.910156 129.39648 64.910156 C 128.34201 64.910156 127.50781 64.074006 127.50781 63.019531 C 127.50781 63.0162 127.5078 63.013092 127.50781 63.009766 A 1.0801488 1.0801487 0 0 0 127.62305 62.378906 C 127.88268 61.647002 128.56882 61.126953 129.39648 61.126953 z M 44.25 63.509766 C 44.950527 63.509766 45.54379 63.902663 45.841797 64.478516 A 1.0801052 1.0801051 0 0 0 46.042969 65.232422 C 46.044095 65.258933 46.050781 65.283728 46.050781 65.310547 C 46.050781 66.313718 45.253171 67.111328 44.25 67.111328 C 43.790881 67.111328 43.380369 66.939709 43.064453 66.662109 A 1.0801052 1.0801051 0 0 0 42.644531 66.113281 C 42.524593 65.870946 42.451172 65.601978 42.451172 65.310547 C 42.451172 64.307376 43.246829 63.509766 44.25 63.509766 z M 98.25 63.509766 C 99.253171 63.509766 100.05078 64.307376 100.05078 65.310547 C 100.05078 65.356175 100.04036 65.398634 100.03711 65.443359 A 1.0801052 1.0801051 0 0 0 99.863281 66.103516 C 99.571618 66.700955 98.965841 67.111328 98.25 67.111328 C 97.246829 67.111328 96.449219 66.313718 96.449219 65.310547 C 96.449219 64.307376 97.246829 63.509766 98.25 63.509766 z M 54.601562 66.029297 C 52.77152 66.029297 51.271484 67.529334 51.271484 69.359375 C 51.271484 71.189418 52.77152 72.689453 54.601562 72.689453 C 56.431604 72.689453 57.931641 71.189418 57.931641 69.359375 C 57.931641 67.529334 56.431604 66.029297 54.601562 66.029297 z M 54.601562 67.560547 C 55.604734 67.560547 56.400391 68.356204 56.400391 69.359375 C 56.400391 70.362546 55.604734 71.162109 54.601562 71.162109 C 53.598391 71.162109 52.802734 70.362546 52.802734 69.359375 C 52.802734 68.356204 53.598391 67.560547 54.601562 67.560547 z M 44.25 70.980469 C 42.419957 70.980469 40.919922 72.480504 40.919922 74.310547 C 40.919922 76.140588 42.419957 77.640625 44.25 77.640625 C 46.080042 77.640625 47.580078 76.140588 47.580078 74.310547 C 47.580078 72.480504 46.080042 70.980469 44.25 70.980469 z M 98.25 70.980469 C 96.419958 70.980469 94.919922 72.480504 94.919922 74.310547 C 94.919922 76.140588 96.419958 77.640625 98.25 77.640625 C 100.08004 77.640625 101.58008 76.140588 101.58008 74.310547 C 101.58008 72.480504 100.08004 70.980469 98.25 70.980469 z M 7.5566406 71.914062 C 7.9614272 71.914062 8.3229187 72.065908 8.5996094 72.310547 A 1.0801052 1.0801051 0 0 0 9.0136719 72.890625 C 9.0881035 73.07524 9.1308594 73.276669 9.1308594 73.490234 C 9.1308594 73.961055 8.9286967 74.375478 8.609375 74.662109 A 1.0801052 1.0801051 0 0 0 8.0058594 74.994141 C 7.8629037 75.03584 7.7144998 75.066406 7.5566406 75.066406 C 6.6761343 75.066406 5.9785156 74.370741 5.9785156 73.490234 C 5.9785156 72.609728 6.6761343 71.914062 7.5566406 71.914062 z M 44.25 72.511719 C 45.253171 72.511719 46.050781 73.307376 46.050781 74.310547 C 46.050781 75.313718 45.253171 76.111328 44.25 76.111328 C 43.246829 76.111328 42.451172 75.313718 42.451172 74.310547 C 42.451172 73.307376 43.246829 72.511719 44.25 72.511719 z M 98.25 72.511719 C 99.253171 72.511719 100.05078 73.307376 100.05078 74.310547 C 100.05078 75.313718 99.253171 76.111328 98.25 76.111328 C 97.246829 76.111328 96.449219 75.313718 96.449219 74.310547 C 96.449219 73.307376 97.246829 72.511719 98.25 72.511719 z M 54.601562 75.03125 C 52.77152 75.03125 51.271484 76.531286 51.271484 78.361328 C 51.271484 80.191371 52.77152 81.691406 54.601562 81.691406 C 56.431604 81.691406 57.931641 80.191371 57.931641 78.361328 C 57.931641 76.531286 56.431604 75.03125 54.601562 75.03125 z M 54.601562 76.560547 C 55.604734 76.560547 56.400391 77.358157 56.400391 78.361328 C 56.400391 79.364499 55.604734 80.160156 54.601562 80.160156 C 53.598391 80.160156 52.802734 79.364499 52.802734 78.361328 C 52.802734 77.358157 53.598391 76.560547 54.601562 76.560547 z M 108.97852 79.158203 C 107.41858 79.158203 106.10674 80.239297 105.72656 81.685547 L 101.31055 82.005859 C 100.80002 80.818351 99.617876 79.980469 98.25 79.980469 C 96.419958 79.980469 94.919922 81.480504 94.919922 83.310547 C 94.919922 85.140588 96.419958 86.640625 98.25 86.640625 C 99.783312 86.640625 101.07133 85.581933 101.45312 84.164062 L 105.87109 83.841797 C 106.38567 85.052044 107.58854 85.908203 108.97852 85.908203 C 110.83181 85.908203 112.35547 84.384545 112.35547 82.53125 C 112.35547 80.677954 110.83181 79.158203 108.97852 79.158203 z M 44.25 79.980469 C 42.755316 79.980469 41.497008 80.987756 41.080078 82.351562 L 36.833984 82.515625 C 36.336516 81.178853 35.055147 80.212891 33.552734 80.212891 C 31.624879 80.212891 30.044922 81.794801 30.044922 83.722656 C 30.044922 85.65051 31.624879 87.230469 33.552734 87.230469 C 35.149187 87.230469 36.493704 86.141197 36.914062 84.673828 L 41.154297 84.509766 C 41.639528 85.751175 42.843155 86.640625 44.25 86.640625 C 46.080042 86.640625 47.580078 85.140588 47.580078 83.310547 C 47.580078 81.480504 46.080042 79.980469 44.25 79.980469 z M 108.97852 80.957031 C 109.85902 80.957031 110.55469 81.650744 110.55469 82.53125 C 110.55469 83.411756 109.85902 84.109375 108.97852 84.109375 C 108.25293 84.109375 107.661 83.631841 107.47266 82.972656 A 1.0801052 1.0801051 0 0 0 107.42578 82.308594 C 107.53243 81.537648 108.17451 80.957031 108.97852 80.957031 z M 44.25 81.511719 C 45.253171 81.511719 46.050781 82.307376 46.050781 83.310547 C 46.050781 84.313717 45.253171 85.109375 44.25 85.109375 C 43.393158 85.109375 42.693535 84.526969 42.505859 83.732422 A 1.0801052 1.0801051 0 0 0 42.480469 83.029297 C 42.614079 82.163676 43.343416 81.511719 44.25 81.511719 z M 98.25 81.511719 C 99.098171 81.511719 99.793575 82.083046 99.990234 82.865234 A 1.0807054 1.0807053 0 0 0 100.0332 83.494141 C 99.941354 84.40772 99.190141 85.109375 98.25 85.109375 C 97.246829 85.109375 96.449219 84.313717 96.449219 83.310547 C 96.449219 82.307376 97.246829 81.511719 98.25 81.511719 z M 33.552734 82.011719 C 34.363214 82.011719 35.025492 82.558062 35.208984 83.306641 A 1.0801052 1.0801051 0 0 0 35.234375 84.005859 C 35.101192 84.8217 34.410526 85.431641 33.552734 85.431641 C 32.597669 85.431641 31.84375 84.67772 31.84375 83.722656 C 31.84375 82.767591 32.597669 82.011719 33.552734 82.011719 z M 44.25 88.982422 C 42.75562 88.982422 41.497272 89.988183 41.080078 91.351562 L 36.833984 91.513672 C 36.336516 90.1769 35.055147 89.210938 33.552734 89.210938 C 31.624879 89.210938 30.044922 90.794803 30.044922 92.722656 C 30.044922 94.650511 31.624879 96.232422 33.552734 96.232422 C 35.149431 96.232422 36.493927 95.140162 36.914062 93.671875 L 41.154297 93.511719 C 41.639909 94.752359 42.84371 95.642578 44.25 95.642578 C 46.080042 95.642578 47.580078 94.142543 47.580078 92.3125 C 47.580078 90.482459 46.080042 88.982422 44.25 88.982422 z M 98.25 88.982422 C 96.419958 88.982422 94.919922 90.482459 94.919922 92.3125 C 94.919922 94.142543 96.419958 95.642578 98.25 95.642578 C 99.667761 95.642578 100.87787 94.737029 101.35547 93.480469 L 115.21875 93.886719 C 115.65011 95.337597 116.98411 96.414062 118.56836 96.414062 C 120.49621 96.414062 122.07812 94.830197 122.07812 92.902344 C 122.07812 90.974489 120.49621 89.392578 118.56836 89.392578 C 117.05362 89.392578 115.76569 90.3746 115.27734 91.728516 L 101.41211 91.322266 C 100.98582 89.973721 99.733767 88.982422 98.25 88.982422 z M 17.667969 89.871094 C 18.623033 89.871094 19.376953 90.626966 19.376953 91.582031 C 19.376953 92.537096 18.623033 93.291016 17.667969 93.291016 C 16.712904 93.291016 15.957031 92.537096 15.957031 91.582031 C 15.957031 91.064402 16.183489 90.608984 16.539062 90.296875 A 1.0801052 1.0801051 0 0 0 17.160156 89.953125 C 17.321245 89.903849 17.489326 89.871094 17.667969 89.871094 z M 44.25 90.509766 C 45.253171 90.509766 46.050781 91.309329 46.050781 92.3125 C 46.050781 93.315671 45.253171 94.111328 44.25 94.111328 C 43.402695 94.111328 42.710619 93.54072 42.513672 92.759766 A 1.080326 1.0803259 0 0 0 42.482422 91.996094 C 42.62998 91.147233 43.35543 90.509766 44.25 90.509766 z M 98.25 90.509766 C 99.152614 90.509766 99.884757 91.159192 100.02344 92.019531 A 1.0801052 1.0801051 0 0 0 100.00391 92.712891 C 99.823578 93.518578 99.114649 94.111328 98.25 94.111328 C 97.246829 94.111328 96.449219 93.315671 96.449219 92.3125 C 96.449219 91.309329 97.246829 90.509766 98.25 90.509766 z M 33.552734 91.013672 C 34.363013 91.013672 35.023345 91.558882 35.207031 92.306641 A 1.0801052 1.0801051 0 0 0 35.234375 93.005859 C 35.101192 93.821701 34.410526 94.431641 33.552734 94.431641 C 32.597669 94.431641 31.84375 93.677721 31.84375 92.722656 C 31.84375 91.767593 32.597669 91.013672 33.552734 91.013672 z M 118.56836 91.193359 C 119.52342 91.193359 120.27734 91.947279 120.27734 92.902344 C 120.27734 93.857407 119.52342 94.613281 118.56836 94.613281 C 117.72796 94.613281 117.04337 94.027664 116.89062 93.236328 A 1.0801052 1.0801051 0 0 0 116.91602 92.480469 C 117.10181 91.735837 117.76027 91.193359 118.56836 91.193359 z M 44.25 97.980469 C 42.754461 97.980469 41.494311 98.988514 41.078125 100.35352 L 36.833984 100.51562 C 36.33699 99.178603 35.055798 98.212891 33.552734 98.212891 C 31.624879 98.212891 30.044922 99.79285 30.044922 101.7207 C 30.044922 103.64856 31.624879 105.23242 33.552734 105.23242 C 35.148535 105.23242 36.493108 104.14086 36.914062 102.67383 L 41.154297 102.51172 C 41.639975 103.75223 42.843806 104.64062 44.25 104.64062 C 46.080042 104.64063 47.580078 103.14059 47.580078 101.31055 C 47.580078 99.480504 46.080042 97.980469 44.25 97.980469 z M 98.25 97.980469 C 96.419958 97.980469 94.919922 99.480504 94.919922 101.31055 C 94.919922 103.14059 96.419958 104.64062 98.25 104.64062 C 99.666777 104.64063 100.87522 103.73762 101.35352 102.48242 L 115.2168 102.88477 C 115.64715 104.33664 116.98298 105.41211 118.56836 105.41211 C 120.49621 105.41211 122.07812 103.83215 122.07812 101.9043 C 122.07812 99.976442 120.49621 98.392578 118.56836 98.392578 C 117.05513 98.392578 115.76878 99.374749 115.2793 100.72656 L 101.41211 100.32227 C 100.98611 98.973254 99.734101 97.980469 98.25 97.980469 z M 17.667969 98.871094 C 18.089105 98.871094 18.466197 99.023745 18.761719 99.269531 A 1.0801052 1.0801051 0 0 0 19.248047 99.925781 C 19.329813 100.12686 19.376953 100.347 19.376953 100.58008 C 19.376953 101.53514 18.623033 102.28906 17.667969 102.28906 C 16.712904 102.28906 15.957031 101.53514 15.957031 100.58008 C 15.957031 99.625013 16.712904 98.871094 17.667969 98.871094 z M 44.25 99.511719 C 45.253171 99.511719 46.050781 100.30738 46.050781 101.31055 C 46.050781 102.31372 45.253171 103.10938 44.25 103.10938 C 43.403194 103.10937 42.711095 102.54001 42.513672 101.75977 A 1.080326 1.0803259 0 0 0 42.482422 100.99609 C 42.629225 100.1467 43.354766 99.511719 44.25 99.511719 z M 98.25 99.511719 C 99.163973 99.511719 99.900282 100.1746 100.02539 101.05078 A 1.0807858 1.0807857 0 0 0 100.01172 101.68945 C 99.839819 102.50673 99.122765 103.10938 98.25 103.10938 C 97.246829 103.10937 96.449219 102.31372 96.449219 101.31055 C 96.449219 100.30738 97.246829 99.511719 98.25 99.511719 z M 33.552734 100.01172 C 34.363877 100.01172 35.026135 100.55765 35.208984 101.30664 A 1.0801052 1.0801051 0 0 0 35.234375 102.00781 C 35.099655 102.82215 34.409199 103.43164 33.552734 103.43164 C 32.597669 103.43164 31.84375 102.67577 31.84375 101.7207 C 31.84375 100.76564 32.597669 100.01172 33.552734 100.01172 z M 118.56836 100.19336 C 119.52342 100.19336 120.27734 100.94923 120.27734 101.9043 C 120.27734 102.85936 119.52342 103.61328 118.56836 103.61328 C 117.7273 103.61328 117.04264 103.02816 116.89062 102.23633 A 1.0801052 1.0801051 0 0 0 116.91602 101.48047 C 117.10244 100.73624 117.76093 100.19336 118.56836 100.19336 z M 17.667969 106.07227 C 16.129621 106.07227 14.827486 107.08454 14.357422 108.4707 L 10.744141 108.4375 C 10.296892 107.09696 9.0409634 106.11523 7.5566406 106.11523 C 5.7033445 106.11523 4.1796875 107.63694 4.1796875 109.49023 C 4.1796875 111.34353 5.7033445 112.86523 7.5566406 112.86523 C 9.0195847 112.86523 10.262493 111.911 10.726562 110.59961 L 14.339844 110.63086 C 14.792609 112.04713 16.108489 113.08984 17.667969 113.08984 C 19.595823 113.08984 21.177734 111.50793 21.177734 109.58008 C 21.177734 107.65222 19.595823 106.07227 17.667969 106.07227 z M 44.25 106.98047 C 42.419957 106.98047 40.919922 108.4805 40.919922 110.31055 C 40.919922 112.14059 42.419957 113.64062 44.25 113.64062 C 46.080042 113.64063 47.580078 112.14059 47.580078 110.31055 C 47.580078 108.4805 46.080042 106.98047 44.25 106.98047 z M 98.25 106.98047 C 96.419958 106.98047 94.919922 108.4805 94.919922 110.31055 C 94.919922 112.14059 96.419958 113.64062 98.25 113.64062 C 99.66625 113.64063 100.87484 112.73688 101.35352 111.48242 L 115.21875 111.88672 C 115.64986 113.33799 116.98383 114.41406 118.56836 114.41406 C 120.49621 114.41406 122.07812 112.8302 122.07812 110.90234 C 122.07812 108.97449 120.49621 107.39258 118.56836 107.39258 C 117.05445 107.39258 115.76632 108.37381 115.27734 109.72656 L 101.41211 109.32422 C 100.98693 107.97385 99.735073 106.98047 98.25 106.98047 z M 17.667969 107.87109 C 18.623033 107.87109 19.376953 108.62501 19.376953 109.58008 C 19.376953 110.53514 18.623033 111.29102 17.667969 111.29102 C 16.816219 111.29102 16.128399 110.68845 15.988281 109.88086 A 1.0803639 1.0803638 0 0 0 15.992188 109.24219 C 16.146444 108.45331 16.828967 107.87109 17.667969 107.87109 z M 7.5566406 107.91406 C 8.3331317 107.91406 8.9631752 108.45608 9.1015625 109.1875 A 1.0803632 1.0803631 0 0 0 9.0957031 109.82422 C 8.9454825 110.53974 8.3220486 111.06445 7.5566406 111.06445 C 6.6761343 111.06445 5.9785156 110.37074 5.9785156 109.49023 C 5.9785156 108.60973 6.6761343 107.91406 7.5566406 107.91406 z M 44.25 108.50977 C 45.253171 108.50977 46.050781 109.30738 46.050781 110.31055 C 46.050781 111.31372 45.253171 112.11133 44.25 112.11133 C 43.246829 112.11133 42.451172 111.31372 42.451172 110.31055 C 42.451171 109.30738 43.246829 108.50977 44.25 108.50977 z M 98.25 108.50977 C 99.153278 108.50977 99.885537 109.15864 100.02344 110.01953 A 1.0801052 1.0801051 0 0 0 100.00391 110.71094 C 99.823578 111.51713 99.114649 112.11133 98.25 112.11133 C 97.246829 112.11133 96.449219 111.31372 96.449219 110.31055 C 96.449219 109.30738 97.246829 108.50977 98.25 108.50977 z M 118.56836 109.19336 C 119.52342 109.19336 120.27734 109.94728 120.27734 110.90234 C 120.27734 111.85741 119.52342 112.61133 118.56836 112.61133 C 117.70247 112.61133 117.00646 111.98958 116.88281 111.16211 A 1.0807858 1.0807857 0 0 0 116.89844 110.53516 C 117.06389 109.76139 117.73991 109.19336 118.56836 109.19336 z M 17.667969 115.07031 C 15.740114 115.07031 14.158203 116.65418 14.158203 118.58203 C 14.158203 120.50989 15.740114 122.0918 17.667969 122.0918 C 19.184031 122.0918 20.474228 121.10771 20.960938 119.75195 L 41.089844 120.30469 C 41.517406 121.65112 42.767744 122.64062 44.25 122.64062 C 46.080042 122.64062 47.580078 121.14059 47.580078 119.31055 C 47.580078 117.4805 46.080042 115.98047 44.25 115.98047 C 42.831586 115.98047 41.621668 116.88706 41.144531 118.14453 L 21.017578 117.59375 C 20.585896 116.14431 19.25119 115.07031 17.667969 115.07031 z M 98.25 115.98047 C 96.419958 115.98047 94.919922 117.4805 94.919922 119.31055 C 94.919922 121.14059 96.419958 122.64062 98.25 122.64062 C 99.666903 122.64062 100.87531 121.73779 101.35352 120.48242 L 115.21875 120.88477 C 115.64986 122.33603 116.98383 123.41211 118.56836 123.41211 C 120.49621 123.41211 122.07812 121.8302 122.07812 119.90234 C 122.07812 117.97449 120.49621 116.39453 118.56836 116.39453 C 117.05427 116.39453 115.76618 117.3742 115.27734 118.72656 L 101.41211 118.32227 C 100.98582 116.97372 99.733767 115.98047 98.25 115.98047 z M 17.667969 116.86914 C 18.521057 116.86914 19.209479 117.47565 19.347656 118.28516 A 1.0801052 1.0801051 0 0 0 19.330078 118.97266 C 19.156211 119.73392 18.487691 120.29102 17.667969 120.29102 C 16.712904 120.29102 15.957031 119.5371 15.957031 118.58203 C 15.957031 117.62697 16.712904 116.86914 17.667969 116.86914 z M 44.25 117.51172 C 45.253171 117.51172 46.050781 118.30738 46.050781 119.31055 C 46.050781 120.31372 45.253171 121.11133 44.25 121.11133 C 43.336047 121.11133 42.603288 120.44647 42.478516 119.57031 A 1.0807501 1.08075 0 0 0 42.490234 118.93945 C 42.658673 118.11815 43.374416 117.51172 44.25 117.51172 z M 98.25 117.51172 C 99.126248 117.51172 99.845468 118.11916 100.01367 118.94141 A 1.080568 1.0805679 0 0 0 99.984375 119.77539 C 99.780919 120.54735 99.090985 121.11133 98.25 121.11133 C 97.246829 121.11133 96.449219 120.31372 96.449219 119.31055 C 96.449219 118.30738 97.246829 117.51172 98.25 117.51172 z M 118.56836 118.19336 C 119.52342 118.19336 120.27734 118.94728 120.27734 119.90234 C 120.27734 120.85741 119.52342 121.61328 118.56836 121.61328 C 117.72796 121.61328 117.04337 121.02766 116.89062 120.23633 A 1.0801052 1.0801051 0 0 0 116.91602 119.48047 C 117.10181 118.73584 117.76027 118.19336 118.56836 118.19336 z M 17.667969 124.07227 C 15.740114 124.07227 14.158203 125.65223 14.158203 127.58008 C 14.158203 129.50794 15.740114 131.0918 17.667969 131.0918 C 19.183364 131.0918 20.471773 130.10678 20.958984 128.75195 L 41.089844 129.30469 C 41.517669 130.65068 42.768056 131.64062 44.25 131.64062 C 46.080042 131.64063 47.580078 130.14059 47.580078 128.31055 C 47.580078 126.4805 46.080042 124.98047 44.25 124.98047 C 42.831717 124.98047 41.621761 125.88529 41.144531 127.14258 L 21.017578 126.5918 C 20.585648 125.14334 19.25091 124.07227 17.667969 124.07227 z M 98.25 124.98047 C 96.419958 124.98047 94.919922 126.4805 94.919922 128.31055 C 94.919922 130.14059 96.419958 131.64062 98.25 131.64062 C 100.08004 131.64063 101.58008 130.14059 101.58008 128.31055 C 101.58008 126.4805 100.08004 124.98047 98.25 124.98047 z M 17.667969 125.87109 C 18.531153 125.87109 19.225084 126.48892 19.351562 127.3125 A 1.0807131 1.080713 0 0 0 19.335938 127.94922 C 19.170089 128.72225 18.495568 129.29102 17.667969 129.29102 C 16.712904 129.29102 15.957031 128.53515 15.957031 127.58008 C 15.957031 126.62502 16.712904 125.87109 17.667969 125.87109 z M 44.25 126.51172 C 45.253171 126.51172 46.050781 127.30737 46.050781 128.31055 C 46.050781 129.31372 45.253171 130.10938 44.25 130.10938 C 43.33598 130.10938 42.601253 129.44657 42.476562 128.57031 A 1.080747 1.0807469 0 0 0 42.490234 127.9375 C 42.65936 127.11712 43.375064 126.51172 44.25 126.51172 z M 98.25 126.51172 C 99.253171 126.51172 100.05078 127.30737 100.05078 128.31055 C 100.05078 129.31372 99.253171 130.10938 98.25 130.10938 C 97.246829 130.10938 96.449219 129.31372 96.449219 128.31055 C 96.449219 127.30737 97.246829 126.51172 98.25 126.51172 z M 118.56836 127.19141 C 119.52342 127.19141 120.27734 127.94922 120.27734 128.9043 C 120.27734 129.85936 119.52342 130.61328 118.56836 130.61328 C 117.76027 130.61328 117.10181 130.0708 116.91602 129.32617 A 1.0801052 1.0801051 0 0 0 116.89062 128.57031 C 117.04337 127.77897 117.72796 127.19141 118.56836 127.19141 z M 17.667969 133.07031 C 15.740114 133.07031 14.158203 134.65419 14.158203 136.58203 C 14.158203 138.50989 15.740114 140.08984 17.667969 140.08984 C 19.184031 140.08984 20.474228 139.10706 20.960938 137.75195 L 41.089844 138.30273 C 41.516855 139.65008 42.767091 140.64258 44.25 140.64258 C 46.080042 140.64258 47.580078 139.14255 47.580078 137.3125 C 47.580078 135.48245 46.080042 133.98242 44.25 133.98242 C 42.831586 133.98242 41.621668 134.88706 41.144531 136.14453 L 21.017578 135.59375 C 20.585648 134.1447 19.25091 133.07031 17.667969 133.07031 z M 98.25 133.98242 C 96.419958 133.98242 94.919922 135.48245 94.919922 137.3125 C 94.919922 139.14255 96.419958 140.64258 98.25 140.64258 C 100.08004 140.64258 101.58008 139.14255 101.58008 137.3125 C 101.58008 135.48245 100.08004 133.98242 98.25 133.98242 z M 17.667969 134.87109 C 18.521057 134.87109 19.209479 135.47565 19.347656 136.28516 A 1.0801052 1.0801051 0 0 0 19.330078 136.97266 C 19.156211 137.73393 18.487691 138.29102 17.667969 138.29102 C 16.712904 138.29102 15.957031 137.5371 15.957031 136.58203 C 15.957031 135.62697 16.712904 134.87109 17.667969 134.87109 z M 44.25 135.50977 C 45.253171 135.50977 46.050781 136.30933 46.050781 137.3125 C 46.050781 138.31567 45.253171 139.11133 44.25 139.11133 C 43.360143 139.11133 42.63725 138.48428 42.484375 137.64258 A 1.0801052 1.0801051 0 0 0 42.507812 136.88477 C 42.697106 136.09203 43.394797 135.50977 44.25 135.50977 z M 98.25 135.50977 C 99.253171 135.50977 100.05078 136.30933 100.05078 137.3125 C 100.05078 138.31567 99.253171 139.11133 98.25 139.11133 C 97.246829 139.11133 96.449219 138.31567 96.449219 137.3125 C 96.449219 136.30933 97.246829 135.50977 98.25 135.50977 z M 118.56836 136.19336 C 119.36359 136.19336 120.01371 136.71903 120.21094 137.44531 A 1.0801052 1.0801051 0 0 0 120.25195 138.16406 C 120.12784 138.99088 119.43354 139.61328 118.56836 139.61328 C 117.61329 139.61328 116.85742 138.8574 116.85742 137.90234 C 116.85742 136.94727 117.61329 136.19336 118.56836 136.19336 z "
     transform="matrix(0.80000206,0,0,0.80000214,-1.0986356e-4,0)"
     id="boardoutline" />
</svg>
