 0
SECTION
 2
ENTITIES
  0
LINE
 8
plan
10
-236.0114451599924
20
753.8772166064541
30
0.0
11
-237.3547994646182
21
753.3151604730718
31
0.0
  0
LINE
 8
plan
10
-233.84283030910058
20
668.7647184767269
30
0.0
11
-233.1282516797654
21
668.6211442071917
31
0.0
  0
LINE
 8
plan
10
-229.42392988131795
20
739.343471952366
30
0.0
11
-229.1897361417499
21
738.6465906297136
31
0.0
  0
LINE
 8
plan
10
-191.4757690316576
20
735.0727615538106
30
0.0
11
-188.86812416924064
21
735.1953299579592
31
0.0
  0
LINE
 8
plan
10
-194.89383697263673
20
754.0864906017312
30
0.0
11
-197.09083946546372
21
752.6765208188286
31
0.0
  0
LINE
 8
plan
10
-149.48999528566057
20
667.3247263457506
30
0.0
11
-150.0957857963508
21
666.9158614181774
31
0.0
  0
LINE
 8
plan
10
-231.17910686444907
20
681.2278064819417
30
0.0
11
-230.6313328818634
21
681.7130437443334
31
0.0
  0
LINE
 8
plan
10
-239.94996069800777
20
672.9828564907423
30
0.0
11
-239.39352512595954
21
671.6259329507161
31
0.0
  0
LINE
 8
plan
10
-228.9999463304003
20
629.3506748952733
30
0.0
11
-152.2749463304001
21
629.350674895274
31
0.0
  0
LINE
 8
plan
10
-230.6313328818634
20
755.7167886901029
30
0.0
11
-230.1509479920959
21
756.2700957432205
31
0.0
  0
LINE
 8
plan
10
-232.43833917033976
20
742.388329820065
30
0.0
11
-231.78489737513934
21
742.0628330195794
31
0.0
  0
LINE
 8
plan
10
-152.22729504589017
20
737.1904323063668
30
0.0
11
-152.27494633039967
21
737.1904323063665
31
0.0
  0
LINE
 8
plan
10
-148.83655349046057
20
741.653968092006
30
0.0
11
-149.48999528566043
21
741.3284712915206
31
0.0
  0
LINE
 8
plan
10
-146.70504424092138
20
742.0822343050543
30
0.0
11
-145.26344750080793
21
742.2739411852052
31
0.0
  0
LINE
 8
plan
10
-141.32493196279265
20
749.1645563551475
30
0.0
11
-141.88136753484088
21
750.5214798951735
31
0.0
  0
LINE
 8
plan
10
-229.0475976149098
20
737.9247940344255
30
0.0
11
-228.9999463304003
21
737.1904323063669
31
0.0
  0
LINE
 8
plan
10
-149.4899952856607
20
754.0883247720792
30
0.0
11
-150.0957857963508
21
754.4971896996527
31
0.0
  0
LINE
 8
plan
10
-150.64355977893672
20
754.9824269620439
30
0.0
11
-151.1239446687043
21
755.5357340151616
31
0.0
  0
LINE
 8
plan
10
-151.52872094700191
20
756.1476436219193
30
0.0
11
-151.85096277948264
21
756.8076858392931
31
0.0
  0
LINE
 8
plan
10
-152.2749463303999
20
791.3506748952738
30
0.0
11
-228.99994633040046
21
791.3506748952748
31
0.0
  0
LINE
 8
plan
10
-236.0114451599924
20
669.0045579674944
30
0.0
11
-234.56984841987855
21
668.8128510873429
31
0.0
  0
LINE
 8
plan
10
-147.43206235169976
20
753.3826943691624
30
0.0
11
-148.14664098103464
21
753.526268638697
31
0.0
  0
LINE
 8
plan
10
-145.26344750080793
20
742.2739411852052
30
0.0
11
-143.9200931961819
21
742.8359973185878
31
0.0
  0
LINE
 8
plan
10
-200.60224512659022
20
745.8758830512586
30
0.0
11
-200.47967672244164
21
743.2682381888413
31
0.0
  0
LINE
 8
plan
10
-188.04925587937493
20
686.3627850206839
30
0.0
11
-190.63744633040017
21
686.7035267577932
31
0.0
  0
LINE
 8
plan
10
-238.50836395789437
20
678.4173133373371
30
0.0
11
-239.39352512595954
21
677.2520966774625
31
0.0
  0
LINE
 8
plan
10
-141.88136753484088
20
750.5214798951735
30
0.0
11
-142.7665287029061
21
751.6866965550481
31
0.0
  0
LINE
 8
plan
10
-234.56984841987855
20
668.8128510873429
30
0.0
11
-233.84283030910058
21
668.7647184767269
31
0.0
  0
LINE
 8
plan
10
-151.85096277948264
20
756.8076858392931
30
0.0
11
-152.0851565190503
21
757.5045671619454
31
0.0
  0
LINE
 8
plan
10
-229.7461717137983
20
682.8782604042079
30
0.0
11
-229.42392988131795
21
683.538302621582
31
0.0
  0
LINE
 8
plan
10
-228.9999463304003
20
685.6913422675811
30
0.0
11
-228.9999463304003
21
684.9569805395223
31
0.0
  0
LINE
 8
plan
10
-184.92903817644668
20
753.2481679004735
30
0.0
11
-187.24860907342224
21
754.445842979988
31
0.0
  0
LINE
 8
plan
10
-229.0475976149098
20
684.9569805395223
30
0.0
11
-228.9999463304003
21
684.9569805395223
31
0.0
  0
LINE
 8
plan
10
-239.94996069800777
20
746.986601436512
30
0.0
11
-239.39352512595954
21
745.6296778964861
31
0.0
  0
LINE
 8
plan
10
-141.13514215144284
20
747.7083980317998
30
0.0
11
-141.32493196279265
21
749.1645563551475
31
0.0
  0
LINE
 8
plan
10
-193.22563678142515
20
686.3627850206839
30
0.0
11
-195.63744633039994
21
685.3637807956376
31
0.0
  0
LINE
 8
plan
10
-231.78489737513934
20
680.8189415543685
30
0.0
11
-231.17910686444907
21
681.2278064819417
31
0.0
  0
LINE
 8
plan
10
-148.83655349046072
20
667.6502231462359
30
0.0
11
-149.48999528566057
21
667.3247263457506
31
0.0
  0
LINE
 8
plan
10
-237.3547994646182
20
753.3151604730718
30
0.0
11
-238.50836395789437
21
752.4210582831073
31
0.0
  0
LINE
 8
plan
10
-150.64355977893683
20
666.430624155786
30
0.0
11
-151.12394466870464
21
665.8773171026693
31
0.0
  0
LINE
 8
plan
10
-146.70504424092152
20
668.0784893592842
30
0.0
11
-147.43206235169967
21
668.0303567486679
31
0.0
  0
LINE
 8
plan
10
-147.43206235169967
20
668.0303567486679
30
0.0
11
-148.1466409810347
21
667.8867824791336
31
0.0
  0
LINE
 8
plan
10
-141.32493196279273
20
675.1608114093774
30
0.0
11
-141.88136753484096
21
676.5177349494031
31
0.0
  0
LINE
 8
plan
10
-142.76652870290587
20
669.7263545627826
30
0.0
11
-141.88136753484096
21
670.8915712226577
31
0.0
  0
LINE
 8
plan
10
-231.17910686444907
20
741.6539680920063
30
0.0
11
-230.6313328818634
21
741.1687308296148
31
0.0
  0
LINE
 8
plan
10
-232.43833917033976
20
668.3845848742949
30
0.0
11
-231.78489737513934
21
668.0590880738096
31
0.0
  0
LINE
 8
plan
10
-233.84283030910058
20
742.7684634224973
30
0.0
11
-233.1282516797654
21
742.6248891529618
31
0.0
  0
LINE
 8
plan
10
-193.22563678142515
20
667.0442684949026
30
0.0
11
-190.63744633040017
21
666.7035267577933
31
0.0
  0
LINE
 8
plan
10
-239.39352512595954
20
745.6296778964861
30
0.0
11
-238.50836395789437
21
744.4644612366114
31
0.0
  0
LINE
 8
plan
10
-233.1282516797654
20
680.2568854209868
30
0.0
11
-232.43833917033976
21
680.4934447538828
31
0.0
  0
LINE
 8
plan
10
-237.3547994646182
20
679.3114155273016
30
0.0
11
-238.50836395789437
21
678.4173133373371
31
0.0
  0
LINE
 8
plan
10
-143.9200931961819
20
742.8359973185878
30
0.0
11
-142.7665287029057
21
743.7300995085525
31
0.0
  0
LINE
 8
plan
10
-231.17910686444907
20
667.6502231462365
30
0.0
11
-230.6313328818634
21
667.1649858838448
31
0.0
  0
LINE
 8
plan
10
-185.63744633040014
20
685.3637807956376
30
0.0
11
-188.04925587937493
21
686.3627850206839
31
0.0
  0
LINE
 8
plan
10
-233.1282516797654
20
668.6211442071917
30
0.0
11
-232.43833917033976
21
668.3845848742949
31
0.0
  0
LINE
 8
plan
10
-146.70504424092132
20
679.3308168127762
30
0.0
11
-147.43206235169976
21
679.3789494233922
31
0.0
  0
LINE
 8
plan
10
-184.18405319533642
20
737.3985998811733
30
0.0
11
-182.4268387799276
21
739.3291521960474
31
0.0
  0
LINE
 8
plan
10
-234.56984841987855
20
680.0651785408352
30
0.0
11
-236.0114451599924
21
679.8734716606837
31
0.0
  0
LINE
 8
plan
10
-141.88136753484088
20
744.8953161684277
30
0.0
11
-141.32493196279242
21
746.2522397084538
31
0.0
  0
LINE
 8
plan
10
-143.920093196182
20
668.8322523728176
30
0.0
11
-142.76652870290587
21
669.7263545627826
31
0.0
  0
LINE
 8
plan
10
-145.26344750080838
20
679.1391099326249
30
0.0
11
-146.70504424092132
21
679.3308168127762
31
0.0
  0
LINE
 8
plan
10
-143.92009319618214
20
678.5770537992429
30
0.0
11
-145.26344750080838
21
679.1391099326249
31
0.0
  0
LINE
 8
plan
10
-189.7991236291425
20
755.0023591461912
30
0.0
11
-192.40676849155955
21
754.8797907420427
31
0.0
  0
LINE
 8
plan
10
-142.7665287029057
20
743.7300995085525
30
0.0
11
-141.88136753484088
21
744.8953161684277
31
0.0
  0
LINE
 8
plan
10
-180.97818806750948
20
679.2917172088185
30
0.0
11
-181.9771922925558
21
681.7035267577933
31
0.0
  0
LINE
 8
plan
10
-195.63744633039994
20
668.0432727199487
30
0.0
11
-193.22563678142515
21
667.0442684949026
31
0.0
  0
LINE
 8
plan
10
-229.42392988131795
20
757.5420475673523
30
0.0
11
-229.1897361417499
21
758.2389288900043
31
0.0
  0
LINE
 8
plan
10
-151.12394466870464
20
665.8773171026693
30
0.0
11
-151.5287209470018
21
665.2654074959108
31
0.0
  0
LINE
 8
plan
10
-236.0114451599924
20
679.8734716606837
30
0.0
11
-237.3547994646182
21
679.3114155273016
31
0.0
  0
LINE
 8
plan
10
-230.6313328818634
20
681.7130437443334
30
0.0
11
-230.1509479920959
21
682.2663507974504
31
0.0
  0
LINE
 8
plan
10
-183.5663785185347
20
683.7745945696587
30
0.0
11
-185.63744633040014
21
685.3637807956376
31
0.0
  0
LINE
 8
plan
10
-180.67264753420986
20
744.1992376487432
30
0.0
11
-180.79521593835844
21
746.8068825111604
31
0.0
  0
LINE
 8
plan
10
-146.70504424092138
20
742.0822343050543
30
0.0
11
-147.43206235169953
21
742.0341016944378
31
0.0
  0
LINE
 8
plan
10
-181.58851607866995
20
749.2939509922378
30
0.0
11
-182.9984858615725
21
751.4909534850648
31
0.0
  0
LINE
 8
plan
10
-238.50836395789437
20
670.4607162908411
30
0.0
11
-237.3547994646182
21
669.5666141008766
31
0.0
  0
LINE
 8
plan
10
-142.7665287029062
20
677.6829516092779
30
0.0
11
-143.92009319618214
21
678.5770537992429
31
0.0
  0
LINE
 8
plan
10
-234.56984841987855
20
754.0689234866053
30
0.0
11
-233.84283030910058
21
754.1170560972214
31
0.0
  0
LINE
 8
plan
10
-234.56984841987855
20
754.0689234866053
30
0.0
11
-236.0114451599924
21
753.8772166064541
31
0.0
  0
LINE
 8
plan
10
-146.70504424092152
20
668.0784893592842
30
0.0
11
-145.263447500808
21
668.2701962394352
31
0.0
  0
LINE
 8
plan
10
-233.84283030910058
20
754.1170560972214
30
0.0
11
-233.1282516797654
21
754.2606303667567
31
0.0
  0
LINE
 8
plan
10
-148.8365534904604
20
753.7628279715943
30
0.0
11
-149.4899952856607
21
754.0883247720792
31
0.0
  0
LINE
 8
plan
10
-200.29670459329063
20
674.1153363067681
30
0.0
11
-199.2977003682443
21
671.7035267577932
31
0.0
  0
LINE
 8
plan
10
-151.1239446687046
20
739.881062048439
30
0.0
11
-151.52872094700172
21
739.269152441681
31
0.0
  0
LINE
 8
plan
10
-231.78489737513934
20
754.8226865001384
30
0.0
11
-231.17910686444907
21
755.2315514277119
31
0.0
  0
LINE
 8
plan
10
-233.1282516797654
20
754.2606303667567
30
0.0
11
-232.43833917033976
21
754.4971896996527
31
0.0
  0
LINE
 8
plan
10
-231.17910686444907
20
755.2315514277119
30
0.0
11
-230.6313328818634
21
755.7167886901029
31
0.0
  0
LINE
 8
plan
10
-150.64355977893683
20
680.9786820162744
30
0.0
11
-151.12394466870438
21
681.5319890693913
31
0.0
  0
LINE
 8
plan
10
-239.39352512595954
20
671.6259329507161
30
0.0
11
-238.50836395789437
21
670.4607162908411
31
0.0
  0
LINE
 8
plan
10
-148.1466409810347
20
667.8867824791336
30
0.0
11
-148.83655349046072
21
667.6502231462359
31
0.0
  0
LINE
 8
plan
10
-200.04572896038712
20
748.4263976069789
30
0.0
11
-200.60224512659022
21
745.8758830512586
31
0.0
  0
LINE
 8
plan
10
-232.43833917033976
20
754.4971896996527
30
0.0
11
-231.78489737513934
21
754.8226865001384
31
0.0
  0
LINE
 8
plan
10
-190.63744633040017
20
686.7035267577932
30
0.0
11
-193.22563678142515
21
686.3627850206839
31
0.0
  0
LINE
 8
plan
10
-188.04925587937493
20
667.0442684949026
30
0.0
11
-185.63744633040014
21
668.0432727199487
31
0.0
  0
LINE
 8
plan
10
-233.84283030910058
20
680.1133111514512
30
0.0
11
-233.1282516797654
21
680.2568854209868
31
0.0
  0
LINE
 8
plan
10
-230.1509479920959
20
756.2700957432205
30
0.0
11
-229.7461717137983
21
756.8820053499784
31
0.0
  0
LINE
 8
plan
10
-229.7461717137983
20
756.8820053499784
30
0.0
11
-229.42392988131795
21
757.5420475673523
31
0.0
  0
LINE
 8
plan
10
-152.2749463304001
20
629.350674895274
30
0.0
11
-152.2749463303999
21
662.4523256325381
31
0.0
  0
LINE
 8
plan
10
-231.78489737513934
20
668.0590880738096
30
0.0
11
-231.17910686444907
21
667.6502231462365
31
0.0
  0
LINE
 8
plan
10
-151.8509627794823
20
738.6091102243072
30
0.0
11
-152.08515651905012
21
737.912228901655
31
0.0
  0
LINE
 8
plan
10
-181.229163700413
20
741.648723093023
30
0.0
11
-180.67264753420986
21
744.1992376487432
31
0.0
  0
LINE
 8
plan
10
-150.0957857963509
20
680.4934447538834
30
0.0
11
-150.64355977893683
21
680.9786820162744
31
0.0
  0
LINE
 8
plan
10
-228.99994633040046
20
791.3506748952748
30
0.0
11
-228.9999463304003
21
759.6950872133514
31
0.0
  0
LINE
 8
plan
10
-229.1897361417499
20
758.2389288900043
30
0.0
11
-229.0475976149098
21
758.9607254852922
31
0.0
  0
LINE
 8
plan
10
-180.97818806750948
20
674.115336306768
30
0.0
11
-180.63744633040017
21
676.7035267577932
31
0.0
  0
LINE
 8
plan
10
-145.2634475008082
20
753.1428548783952
30
0.0
11
-146.70504424092115
21
753.3345617585462
31
0.0
  0
LINE
 8
plan
10
-151.1239446687043
20
755.5357340151616
30
0.0
11
-151.52872094700191
21
756.1476436219193
31
0.0
  0
LINE
 8
plan
10
-141.3249319627925
20
672.2484947626835
30
0.0
11
-141.13514215144295
21
673.70465308603
31
0.0
  0
LINE
 8
plan
10
-152.08515651905037
20
683.5008222161758
30
0.0
11
-152.22729504589032
21
684.2226188114638
31
0.0
  0
LINE
 8
plan
10
-150.0957857963508
20
666.9158614181774
30
0.0
11
-150.64355977893683
21
666.430624155786
31
0.0
  0
LINE
 8
plan
10
-151.52872094700172
20
739.269152441681
30
0.0
11
-151.8509627794823
21
738.6091102243072
31
0.0
  0
LINE
 8
plan
10
-238.50836395789437
20
752.4210582831073
30
0.0
11
-239.39352512595954
21
751.2558416232318
31
0.0
  0
LINE
 8
plan
10
-148.1466409810347
20
679.5225236929275
30
0.0
11
-148.8365534904605
21
679.7590830258245
31
0.0
  0
LINE
 8
plan
10
-230.1509479920959
20
666.6116788307278
30
0.0
11
-229.7461717137983
21
665.9997692239701
31
0.0
  0
LINE
 8
plan
10
-152.2749463304001
20
684.9569805395223
30
0.0
11
-152.2749463303998
21
736.4560705783082
31
0.0
  0
LINE
 8
plan
10
-148.8365534904605
20
679.7590830258245
30
0.0
11
-149.4899952856608
21
680.0845798263096
31
0.0
  0
LINE
 8
plan
10
-142.7665287029061
20
751.6866965550481
30
0.0
11
-143.920093196182
21
752.5807987450128
31
0.0
  0
LINE
 8
plan
10
-150.64355977893672
20
740.4343691015558
30
0.0
11
-151.1239446687046
21
739.881062048439
31
0.0
  0
LINE
 8
plan
10
-152.08515651905012
20
737.912228901655
30
0.0
11
-152.22729504589017
21
737.1904323063668
31
0.0
  0
LINE
 8
plan
10
-150.0957857963508
20
754.4971896996527
30
0.0
11
-150.64355977893672
21
754.9824269620439
31
0.0
  0
LINE
 8
plan
10
-229.7461717137983
20
665.9997692239701
30
0.0
11
-229.42392988131795
21
665.3397270065963
31
0.0
  0
LINE
 8
plan
10
-229.0475976149098
20
663.9210490886559
30
0.0
11
-228.9999463304003
21
663.186687360597
31
0.0
  0
LINE
 8
plan
10
-149.48999528566043
20
741.3284712915206
30
0.0
11
-150.09578579635075
21
740.9196063639473
31
0.0
  0
LINE
 8
plan
10
-152.22729504589032
20
684.2226188114638
30
0.0
11
-152.2749463304001
21
684.9569805395223
31
0.0
  0
LINE
 8
plan
10
-195.63744633039994
20
685.3637807956376
30
0.0
11
-197.7085141422654
21
683.7745945696587
31
0.0
  0
LINE
 8
plan
10
-230.1509479920959
20
682.2663507974504
30
0.0
11
-229.7461717137983
21
682.8782604042079
31
0.0
  0
LINE
 8
plan
10
-240.13975050935747
20
674.439014814089
30
0.0
11
-239.94996069800777
21
672.9828564907423
31
0.0
  0
LINE
 8
plan
10
-231.78489737513934
20
742.0628330195794
30
0.0
11
-231.17910686444907
21
741.6539680920063
31
0.0
  0
LINE
 8
plan
10
-145.263447500808
20
668.2701962394352
30
0.0
11
-143.920093196182
21
668.8322523728176
31
0.0
  0
LINE
 8
plan
10
-151.52872094700206
20
682.1438986761492
30
0.0
11
-151.8509627794827
21
682.8039408935231
31
0.0
  0
LINE
 8
plan
10
-240.13975050935747
20
748.4427597598589
30
0.0
11
-239.94996069800777
21
746.986601436512
31
0.0
  0
LINE
 8
plan
10
-147.43206235169976
20
679.3789494233922
30
0.0
11
-148.1466409810347
21
679.5225236929275
31
0.0
  0
LINE
 8
plan
10
-150.09578579635075
20
740.9196063639473
30
0.0
11
-150.64355977893672
21
740.4343691015558
31
0.0
  0
LINE
 8
plan
10
-143.920093196182
20
752.5807987450128
30
0.0
11
-145.2634475008082
21
753.1428548783952
31
0.0
  0
LINE
 8
plan
10
-233.1282516797654
20
742.6248891529618
30
0.0
11
-232.43833917033976
21
742.388329820065
31
0.0
  0
LINE
 8
plan
10
-152.22729504589017
20
758.2263637572338
30
0.0
11
-152.2749463304
21
758.9607254852922
31
0.0
  0
LINE
 8
plan
10
-237.3547994646182
20
743.5703590466461
30
0.0
11
-236.0114451599924
21
743.0083029132645
31
0.0
  0
LINE
 8
plan
10
-229.42392988131795
20
665.3397270065963
30
0.0
11
-229.1897361417499
21
664.6428456839441
31
0.0
  0
LINE
 8
plan
10
-147.43206235169953
20
742.0341016944378
30
0.0
11
-148.14664098103464
21
741.8905274249029
31
0.0
  0
LINE
 8
plan
10
-234.56984841987855
20
742.8165960331132
30
0.0
11
-233.84283030910058
21
742.7684634224973
31
0.0
  0
LINE
 8
plan
10
-151.5287209470018
20
665.2654074959108
30
0.0
11
-151.8509627794824
21
664.6053652785373
31
0.0
  0
LINE
 8
plan
10
-200.29670459329063
20
679.2917172088185
30
0.0
11
-200.63744633039997
21
676.7035267577932
31
0.0
  0
LINE
 8
plan
10
-236.0114451599924
20
743.0083029132645
30
0.0
11
-234.56984841987855
21
742.8165960331132
31
0.0
  0
LINE
 8
plan
10
-239.39352512595954
20
677.2520966774625
30
0.0
11
-239.94996069800777
21
675.8951731374358
31
0.0
  0
LINE
 8
plan
10
-228.9999463304003
20
737.1904323063669
30
0.0
11
-228.9999463304003
21
685.6913422675811
31
0.0
  0
LINE
 8
plan
10
-198.27640679922757
20
738.5841672149371
30
0.0
11
-196.3458544843534
21
736.8269527995284
31
0.0
  0
LINE
 8
plan
10
-198.84805388087247
20
750.7459685039544
30
0.0
11
-200.04572896038712
21
748.4263976069789
31
0.0
  0
LINE
 8
plan
10
-180.79521593835844
20
746.8068825111604
30
0.0
11
-181.58851607866995
21
749.2939509922378
31
0.0
  0
LINE
 8
plan
10
-200.63744633039997
20
676.7035267577932
30
0.0
11
-200.29670459329063
21
674.1153363067681
31
0.0
  0
LINE
 8
plan
10
-199.68637658213018
20
740.7811697077641
30
0.0
11
-198.27640679922757
21
738.5841672149371
31
0.0
  0
LINE
 8
plan
10
-187.24860907342224
20
754.445842979988
30
0.0
11
-189.7991236291425
21
755.0023591461912
31
0.0
  0
LINE
 8
plan
10
-237.3547994646182
20
669.5666141008766
30
0.0
11
-236.0114451599924
21
669.0045579674944
31
0.0
  0
LINE
 8
plan
10
-229.42392988131795
20
683.538302621582
30
0.0
11
-229.1897361417499
21
684.2351839442342
31
0.0
  0
LINE
 8
plan
10
-190.63744633040017
20
666.7035267577933
30
0.0
11
-188.04925587937493
21
667.0442684949026
31
0.0
  0
LINE
 8
plan
10
-229.1897361417499
20
738.6465906297136
30
0.0
11
-229.0475976149098
21
737.9247940344255
31
0.0
  0
LINE
 8
plan
10
-230.6313328818634
20
741.1687308296148
30
0.0
11
-230.1509479920959
21
740.6154237764978
31
0.0
  0
LINE
 8
plan
10
-151.8509627794824
20
664.6053652785373
30
0.0
11
-152.0851565190502
21
663.9084839558851
31
0.0
  0
LINE
 8
plan
10
-185.63744633040014
20
668.0432727199487
30
0.0
11
-183.5663785185347
21
669.6324589459277
31
0.0
  0
LINE
 8
plan
10
-182.9984858615725
20
751.4909534850648
30
0.0
11
-184.92903817644668
21
753.2481679004735
31
0.0
  0
LINE
 8
plan
10
-186.38105568816334
20
735.9886300982706
30
0.0
11
-184.18405319533642
21
737.3985998811733
31
0.0
  0
LINE
 8
plan
10
-183.5663785185347
20
669.6324589459277
30
0.0
11
-181.9771922925558
21
671.7035267577932
31
0.0
  0
LINE
 8
plan
10
-188.86812416924064
20
735.1953299579592
30
0.0
11
-186.38105568816334
21
735.9886300982706
31
0.0
  0
LINE
 8
plan
10
-238.50836395789437
20
744.4644612366114
30
0.0
11
-237.3547994646182
21
743.5703590466461
31
0.0
  0
LINE
 8
plan
10
-152.0851565190502
20
663.9084839558851
30
0.0
11
-152.22729504589017
21
663.186687360597
31
0.0
  0
LINE
 8
plan
10
-239.94996069800777
20
675.8951731374358
30
0.0
11
-240.13975050935747
21
674.439014814089
31
0.0
  0
LINE
 8
plan
10
-229.1897361417499
20
664.6428456839441
30
0.0
11
-229.0475976149098
21
663.9210490886559
31
0.0
  0
LINE
 8
plan
10
-148.14664098103464
20
741.8905274249029
30
0.0
11
-148.83655349046057
21
741.653968092006
31
0.0
  0
LINE
 8
plan
10
-239.39352512595954
20
751.2558416232318
30
0.0
11
-239.94996069800777
21
749.8989180832057
31
0.0
  0
LINE
 8
plan
10
-230.1509479920959
20
740.6154237764978
30
0.0
11
-229.7461717137983
21
740.0035141697399
31
0.0
  0
LINE
 8
plan
10
-148.14664098103464
20
753.526268638697
30
0.0
11
-148.8365534904604
21
753.7628279715943
31
0.0
  0
LINE
 8
plan
10
-181.9771922925558
20
681.7035267577933
30
0.0
11
-183.5663785185347
21
683.7745945696587
31
0.0
  0
LINE
 8
plan
10
-152.2749463304
20
758.9607254852922
30
0.0
11
-152.2749463303999
21
791.3506748952738
31
0.0
  0
LINE
 8
plan
10
-152.0851565190503
20
757.5045671619454
30
0.0
11
-152.22729504589017
21
758.2263637572338
31
0.0
  0
LINE
 8
plan
10
-197.09083946546372
20
752.6765208188286
30
0.0
11
-198.84805388087247
21
750.7459685039544
31
0.0
  0
LINE
 8
plan
10
-180.63744633040017
20
676.7035267577932
30
0.0
11
-180.97818806750948
21
679.2917172088185
31
0.0
  0
LINE
 8
plan
10
-194.0262835873779
20
735.6292777200138
30
0.0
11
-191.4757690316576
21
735.0727615538106
31
0.0
  0
LINE
 8
plan
10
-141.88136753484096
20
676.5177349494031
30
0.0
11
-142.7665287029062
21
677.6829516092779
31
0.0
  0
LINE
 8
plan
10
-182.4268387799276
20
739.3291521960474
30
0.0
11
-181.229163700413
21
741.648723093023
31
0.0
  0
LINE
 8
plan
10
-197.7085141422654
20
683.7745945696587
30
0.0
11
-199.2977003682443
21
681.7035267577933
31
0.0
  0
LINE
 8
plan
10
-239.94996069800777
20
749.8989180832057
30
0.0
11
-240.13975050935747
21
748.4427597598589
31
0.0
  0
LINE
 8
plan
10
-149.4899952856608
20
680.0845798263096
30
0.0
11
-150.0957857963509
21
680.4934447538834
31
0.0
  0
LINE
 8
plan
10
-151.8509627794827
20
682.8039408935231
30
0.0
11
-152.08515651905037
21
683.5008222161758
31
0.0
  0
LINE
 8
plan
10
-229.0475976149098
20
758.9607254852922
30
0.0
11
-228.9999463304003
21
759.6950872133514
31
0.0
  0
LINE
 8
plan
10
-151.12394466870438
20
681.5319890693913
30
0.0
11
-151.52872094700206
21
682.1438986761492
31
0.0
  0
LINE
 8
plan
10
-196.3458544843534
20
736.8269527995284
30
0.0
11
-194.0262835873779
21
735.6292777200138
31
0.0
  0
LINE
 8
plan
10
-152.2749463303998
20
736.4560705783082
30
0.0
11
-152.27494633039967
21
737.1904323063665
31
0.0
  0
LINE
 8
plan
10
-228.9999463304003
20
663.186687360597
30
0.0
11
-228.9999463304003
21
629.3506748952733
31
0.0
  0
LINE
 8
plan
10
-141.88136753484096
20
670.8915712226577
30
0.0
11
-141.3249319627925
21
672.2484947626835
31
0.0
  0
LINE
 8
plan
10
-146.70504424092115
20
753.3345617585462
30
0.0
11
-147.43206235169976
21
753.3826943691624
31
0.0
  0
LINE
 8
plan
10
-141.13514215144295
20
673.70465308603
30
0.0
11
-141.32493196279273
21
675.1608114093774
31
0.0
  0
LINE
 8
plan
10
-181.9771922925558
20
671.7035267577932
30
0.0
11
-180.97818806750948
21
674.115336306768
31
0.0
  0
LINE
 8
plan
10
-199.2977003682443
20
681.7035267577933
30
0.0
11
-200.29670459329063
21
679.2917172088185
31
0.0
  0
LINE
 8
plan
10
-197.7085141422654
20
669.6324589459277
30
0.0
11
-195.63744633039994
21
668.0432727199487
31
0.0
  0
LINE
 8
plan
10
-199.2977003682443
20
671.7035267577932
30
0.0
11
-197.7085141422654
21
669.6324589459277
31
0.0
  0
LINE
 8
plan
10
-229.7461717137983
20
740.0035141697399
30
0.0
11
-229.42392988131795
21
739.343471952366
31
0.0
  0
LINE
 8
plan
10
-141.32493196279242
20
746.2522397084538
30
0.0
11
-141.13514215144284
21
747.7083980317998
31
0.0
  0
LINE
 8
plan
10
-229.1897361417499
20
684.2351839442342
30
0.0
11
-229.0475976149098
21
684.9569805395223
31
0.0
  0
LINE
 8
plan
10
-200.47967672244164
20
743.2682381888413
30
0.0
11
-199.68637658213018
21
740.7811697077641
31
0.0
  0
LINE
 8
plan
10
-152.22729504589017
20
663.186687360597
30
0.0
11
-152.2749463303998
21
663.1866873605966
31
0.0
  0
LINE
 8
plan
10
-230.6313328818634
20
667.1649858838448
30
0.0
11
-230.1509479920959
21
666.6116788307278
31
0.0
  0
LINE
 8
plan
10
-232.43833917033976
20
680.4934447538828
30
0.0
11
-231.78489737513934
21
680.8189415543685
31
0.0
  0
LINE
 8
plan
10
-192.40676849155955
20
754.8797907420427
30
0.0
11
-194.89383697263673
21
754.0864906017312
31
0.0
  0
LINE
 8
plan
10
-152.2749463303999
20
662.4523256325381
30
0.0
11
-152.2749463303998
21
663.1866873605966
31
0.0
  0
LINE
 8
plan
10
-234.56984841987855
20
680.0651785408352
30
0.0
11
-233.84283030910058
21
680.1133111514512
31
0.0
 0
ENDSEC
 0
EOF
