 0
SECTION
 2
ENTITIES
  0
LINE
 8
Back
10
88.9999999999998
20
496.9999999999993
30
0.0
11
89.00000000000026
21
490.9999999999995
31
0.0
  0
LINE
 8
Back
10
186.99999999999997
20
161.00000000000006
30
0.0
11
186.99999999999997
21
166.24999999999994
31
0.0
  0
LINE
 8
Back
10
1.7054083013503952e-14
20
125.99999999999997
30
0.0
11
1.6767610227975278e-14
21
122.8
31
0.0
  0
LINE
 8
Back
10
1.7054083013503952e-14
20
125.99999999999997
30
0.0
11
96.43077316564464
21
126.0
31
0.0
  0
LINE
 8
Back
10
103.5692268343554
20
126.0
30
0.0
11
96.43077316564464
21
126.0
31
0.0
  0
LINE
 8
Back
10
103.5692268343554
20
126.0
30
0.0
11
200.0
21
126.0
31
0.0
  0
LINE
 8
Back
10
200.0
20
0.0
30
0.0
11
200.0
21
122.8
31
0.0
  0
LINE
 8
Back
10
178.0
20
130.25000000000003
30
0.0
11
189.99999999999997
21
130.25000000000003
31
0.0
  0
LINE
 8
Back
10
178.0
20
130.25000000000003
30
0.0
11
178.0
21
133.75
31
0.0
  0
LINE
 8
Back
10
9.999999999999993
20
166.2499999999999
30
0.0
11
9.999999999999993
21
169.7499999999999
31
0.0
  0
LINE
 8
Back
10
12.999999999999988
20
133.7499999999999
30
0.0
11
9.999999999999988
21
133.7499999999999
31
0.0
  0
LINE
 8
Back
10
189.99999999999997
20
169.7499999999999
30
0.0
11
189.99999999999997
21
166.24999999999994
31
0.0
  0
LINE
 8
Back
10
10.000000000000005
20
405.9999999999999
30
0.0
11
21.999999999999982
21
406.00000000000017
31
0.0
  0
LINE
 8
Back
10
180.99999999999997
20
139.00000000000014
30
0.0
11
186.99999999999997
21
139.00000000000014
31
0.0
  0
LINE
 8
Back
10
183.9535089505867
20
13.296929528419621
30
0.0
11
182.6514432338025
21
19.84285592775196
31
0.0
  0
LINE
 8
Back
10
186.99999999999997
20
393.75000000000006
30
0.0
11
189.99999999999997
21
393.75000000000006
31
0.0
  0
LINE
 8
Back
10
200.0
20
509.99999999999994
30
0.0
11
5.7742170833123606e-15
21
509.99999999999994
31
0.0
  0
LINE
 8
Back
10
200.0
20
126.0
30
0.0
11
200.0
21
509.99999999999994
31
0.0
  0
LINE
 8
Back
10
5.7742170833123606e-15
20
509.99999999999994
30
0.0
11
1.7054083013503952e-14
21
125.99999999999997
31
0.0
  0
LINE
 8
Back
10
80.2499999999999
20
499.9999999999997
30
0.0
11
83.75000000000023
21
499.99999999999955
31
0.0
  0
LINE
 8
Back
10
80.2499999999999
20
499.9999999999997
30
0.0
11
80.24999999999999
21
487.99999999999955
31
0.0
  0
LINE
 8
Back
10
83.75000000000037
20
487.99999999999983
30
0.0
11
80.24999999999999
21
487.99999999999955
31
0.0
  0
LINE
 8
Back
10
83.75000000000018
20
490.9999999999998
30
0.0
11
83.75000000000037
21
487.99999999999983
31
0.0
  0
LINE
 8
Back
10
89.00000000000026
20
490.9999999999995
30
0.0
11
83.75000000000018
21
490.9999999999998
31
0.0
  0
LINE
 8
Back
10
88.9999999999998
20
496.9999999999993
30
0.0
11
83.74999999999996
21
496.99999999999966
31
0.0
  0
LINE
 8
Back
10
83.74999999999996
20
496.99999999999966
30
0.0
11
83.75000000000023
21
499.99999999999955
31
0.0
  0
LINE
 8
Back
10
96.00000000000006
20
499.9999999999999
30
0.0
11
103.99999999999999
21
500.0
31
0.0
  0
LINE
 8
Back
10
96.00000000000006
20
499.9999999999999
30
0.0
11
96.00000000000038
21
487.99999999999966
31
0.0
  0
LINE
 8
Back
10
96.00000000000038
20
487.99999999999966
30
0.0
11
103.99999999999999
21
487.99999999999903
31
0.0
  0
LINE
 8
Back
10
103.99999999999999
20
500.0
30
0.0
11
103.99999999999999
21
487.99999999999903
31
0.0
  0
LINE
 8
Back
10
119.75000000000016
20
500.0
30
0.0
11
119.7499999999997
21
487.99999999999983
31
0.0
  0
LINE
 8
Back
10
116.24999999999996
20
499.99999999999983
30
0.0
11
119.75000000000016
21
500.0
31
0.0
  0
LINE
 8
Back
10
116.24999999999996
20
496.99999999999994
30
0.0
11
116.24999999999996
21
499.99999999999983
31
0.0
  0
LINE
 8
Back
10
116.24999999999996
20
496.99999999999994
30
0.0
11
111.00000000000003
21
496.9999999999995
31
0.0
  0
LINE
 8
Back
10
111.00000000000003
20
496.9999999999995
30
0.0
11
111.00000000000016
21
493.9999999999999
31
0.0
  0
LINE
 8
Back
10
111.00000000000016
20
493.9999999999999
30
0.0
11
111.0000000000003
21
490.99999999999994
31
0.0
  0
LINE
 8
Back
10
111.0000000000003
20
490.99999999999994
30
0.0
11
116.25
21
490.9999999999996
31
0.0
  0
LINE
 8
Back
10
116.25
20
490.9999999999996
30
0.0
11
116.25
21
487.9999999999997
31
0.0
  0
LINE
 8
Back
10
119.7499999999997
20
487.99999999999983
30
0.0
11
116.25
21
487.9999999999997
31
0.0
  0
LINE
 8
Back
10
9.999999999999988
20
130.2499999999999
30
0.0
11
21.99999999999999
21
130.2499999999999
31
0.0
  0
LINE
 8
Back
10
21.99999999999999
20
133.7499999999999
30
0.0
11
21.99999999999999
21
130.2499999999999
31
0.0
  0
LINE
 8
Back
10
18.99999999999999
20
133.7499999999999
30
0.0
11
21.99999999999999
21
133.7499999999999
31
0.0
  0
LINE
 8
Back
10
18.99999999999999
20
139.00000000000003
30
0.0
11
18.99999999999999
21
133.7499999999999
31
0.0
  0
LINE
 8
Back
10
12.999999999999988
20
139.00000000000003
30
0.0
11
18.99999999999999
21
139.00000000000003
31
0.0
  0
LINE
 8
Back
10
12.999999999999988
20
139.00000000000003
30
0.0
11
12.999999999999988
21
133.7499999999999
31
0.0
  0
LINE
 8
Back
10
9.999999999999988
20
130.2499999999999
30
0.0
11
9.999999999999988
21
133.7499999999999
31
0.0
  0
LINE
 8
Back
10
9.999999999999986
20
146.0
30
0.0
11
21.99999999999999
21
146.0
31
0.0
  0
LINE
 8
Back
10
21.99999999999999
20
146.0
30
0.0
11
22.000000000000007
21
153.99999999999994
31
0.0
  0
LINE
 8
Back
10
10.000000000000007
20
153.99999999999994
30
0.0
11
22.000000000000007
21
153.99999999999994
31
0.0
  0
LINE
 8
Back
10
9.999999999999986
20
146.0
30
0.0
11
10.000000000000007
21
153.99999999999994
31
0.0
  0
LINE
 8
Back
10
12.999999999999988
20
161.0
30
0.0
11
15.999999999999984
21
161.0
31
0.0
  0
LINE
 8
Back
10
15.999999999999984
20
161.0
30
0.0
11
18.99999999999999
21
161.0
31
0.0
  0
LINE
 8
Back
10
18.99999999999999
20
161.0
30
0.0
11
18.99999999999999
21
166.2499999999999
31
0.0
  0
LINE
 8
Back
10
18.99999999999999
20
166.2499999999999
30
0.0
11
21.99999999999999
21
166.2499999999999
31
0.0
  0
LINE
 8
Back
10
21.99999999999999
20
166.2499999999999
30
0.0
11
21.99999999999999
21
169.7499999999999
31
0.0
  0
LINE
 8
Back
10
9.999999999999993
20
169.7499999999999
30
0.0
11
21.99999999999999
21
169.7499999999999
31
0.0
  0
LINE
 8
Back
10
12.999999999999993
20
166.2499999999999
30
0.0
11
9.999999999999993
21
166.2499999999999
31
0.0
  0
LINE
 8
Back
10
12.999999999999993
20
166.2499999999999
30
0.0
11
12.999999999999988
21
161.0
31
0.0
  0
LINE
 8
Back
10
178.00000000000003
20
145.99999999999986
30
0.0
11
189.99999999999997
21
146.00000000000014
31
0.0
  0
LINE
 8
Back
10
189.99999999999997
20
146.00000000000014
30
0.0
11
189.99999999999997
21
149.48999999999995
31
0.0
  0
LINE
 8
Back
10
190.0
20
154.00000000000003
30
0.0
11
189.99999999999997
21
149.48999999999995
31
0.0
  0
LINE
 8
Back
10
178.00000000000003
20
154.00000000000003
30
0.0
11
190.0
21
154.00000000000003
31
0.0
  0
LINE
 8
Back
10
178.00000000000003
20
145.99999999999986
30
0.0
11
178.00000000000003
21
154.00000000000003
31
0.0
  0
LINE
 8
Back
10
180.99999999999997
20
139.00000000000014
30
0.0
11
180.99999999999997
21
133.75
31
0.0
  0
LINE
 8
Back
10
180.99999999999997
20
133.75
30
0.0
11
178.0
21
133.75
31
0.0
  0
LINE
 8
Back
10
189.99999999999997
20
133.75
30
0.0
11
189.99999999999997
21
130.25000000000003
31
0.0
  0
LINE
 8
Back
10
186.99999999999997
20
133.75
30
0.0
11
189.99999999999997
21
133.75
31
0.0
  0
LINE
 8
Back
10
186.99999999999997
20
139.00000000000014
30
0.0
11
186.99999999999997
21
133.75
31
0.0
  0
LINE
 8
Back
10
180.99999999999997
20
161.00000000000006
30
0.0
11
183.99999999999997
21
161.00000000000006
31
0.0
  0
LINE
 8
Back
10
183.99999999999997
20
161.00000000000006
30
0.0
11
186.99999999999997
21
161.00000000000006
31
0.0
  0
LINE
 8
Back
10
186.99999999999997
20
166.24999999999994
30
0.0
11
189.99999999999997
21
166.24999999999994
31
0.0
  0
LINE
 8
Back
10
178.0
20
169.7499999999999
30
0.0
11
189.99999999999997
21
169.7499999999999
31
0.0
  0
LINE
 8
Back
10
178.0
20
166.24999999999994
30
0.0
11
178.0
21
169.7499999999999
31
0.0
  0
LINE
 8
Back
10
180.99999999999997
20
166.24999999999994
30
0.0
11
178.0
21
166.24999999999994
31
0.0
  0
LINE
 8
Back
10
180.99999999999997
20
166.24999999999994
30
0.0
11
180.99999999999997
21
161.00000000000006
31
0.0
  0
LINE
 8
Back
10
21.999999999999982
20
406.00000000000017
30
0.0
11
22.000000000000004
21
414.00000000000006
31
0.0
  0
LINE
 8
Back
10
10.000000000000005
20
414.00000000000006
30
0.0
11
22.000000000000004
21
414.00000000000006
31
0.0
  0
LINE
 8
Back
10
10.000000000000005
20
405.9999999999999
30
0.0
11
10.000000000000005
21
414.00000000000006
31
0.0
  0
LINE
 8
Back
10
178.00000000000003
20
405.9999999999999
30
0.0
11
178.00000000000003
21
414.00000000000006
31
0.0
  0
LINE
 8
Back
10
178.00000000000003
20
405.9999999999999
30
0.0
11
189.99999999999997
21
406.00000000000017
31
0.0
  0
LINE
 8
Back
10
189.99999999999997
20
406.00000000000017
30
0.0
11
190.0
21
409.48999999999995
31
0.0
  0
LINE
 8
Back
10
190.0
20
414.00000000000006
30
0.0
11
190.0
21
409.48999999999995
31
0.0
  0
LINE
 8
Back
10
178.00000000000003
20
414.00000000000006
30
0.0
11
190.0
21
414.00000000000006
31
0.0
  0
LINE
 8
Back
10
183.99999999999997
20
421.0000000000001
30
0.0
11
186.99999999999997
21
421.0000000000001
31
0.0
  0
LINE
 8
Back
10
186.99999999999997
20
421.0000000000001
30
0.0
11
186.99999999999997
21
426.25
31
0.0
  0
LINE
 8
Back
10
186.99999999999997
20
426.25
30
0.0
11
189.99999999999997
21
426.25
31
0.0
  0
LINE
 8
Back
10
189.99999999999997
20
429.7499999999999
30
0.0
11
189.99999999999997
21
426.25
31
0.0
  0
LINE
 8
Back
10
178.0
20
429.7499999999999
30
0.0
11
189.99999999999997
21
429.7499999999999
31
0.0
  0
LINE
 8
Back
10
178.0
20
426.25
30
0.0
11
178.0
21
429.7499999999999
31
0.0
  0
LINE
 8
Back
10
180.99999999999997
20
426.25
30
0.0
11
178.0
21
426.25
31
0.0
  0
LINE
 8
Back
10
180.99999999999997
20
426.25
30
0.0
11
180.99999999999997
21
421.0000000000001
31
0.0
  0
LINE
 8
Back
10
180.99999999999997
20
421.0000000000001
30
0.0
11
183.99999999999997
21
421.0000000000001
31
0.0
  0
LINE
 8
Back
10
180.99999999999997
20
399.0000000000002
30
0.0
11
186.99999999999997
21
399.0000000000002
31
0.0
  0
LINE
 8
Back
10
180.99999999999997
20
399.0000000000002
30
0.0
11
180.99999999999997
21
393.75000000000006
31
0.0
  0
LINE
 8
Back
10
180.99999999999997
20
393.75000000000006
30
0.0
11
178.0
21
393.75000000000006
31
0.0
  0
LINE
 8
Back
10
178.0
20
390.25000000000006
30
0.0
11
178.0
21
393.75000000000006
31
0.0
  0
LINE
 8
Back
10
178.0
20
390.25000000000006
30
0.0
11
189.99999999999997
21
390.25000000000006
31
0.0
  0
LINE
 8
Back
10
189.99999999999997
20
393.75000000000006
30
0.0
11
189.99999999999997
21
390.25000000000006
31
0.0
  0
LINE
 8
Back
10
186.99999999999997
20
399.0000000000002
30
0.0
11
186.99999999999997
21
393.75000000000006
31
0.0
  0
LINE
 8
Back
10
12.999999999999982
20
399.0000000000001
30
0.0
11
18.999999999999982
21
399.0000000000001
31
0.0
  0
LINE
 8
Back
10
12.999999999999982
20
399.0000000000001
30
0.0
11
12.999999999999982
21
393.74999999999994
31
0.0
  0
LINE
 8
Back
10
12.999999999999982
20
393.74999999999994
30
0.0
11
9.999999999999982
21
393.74999999999994
31
0.0
  0
LINE
 8
Back
10
9.999999999999982
20
390.25000000000006
30
0.0
11
9.999999999999982
21
393.74999999999994
31
0.0
  0
LINE
 8
Back
10
9.999999999999982
20
390.25000000000006
30
0.0
11
21.999999999999982
21
390.25000000000006
31
0.0
  0
LINE
 8
Back
10
21.999999999999982
20
393.74999999999994
30
0.0
11
21.999999999999982
21
390.25000000000006
31
0.0
  0
LINE
 8
Back
10
18.999999999999982
20
393.74999999999994
30
0.0
11
21.999999999999982
21
393.74999999999994
31
0.0
  0
LINE
 8
Back
10
18.999999999999982
20
399.0000000000001
30
0.0
11
18.999999999999982
21
393.74999999999994
31
0.0
  0
LINE
 8
Back
10
15.999999999999982
20
421.0000000000001
30
0.0
11
18.999999999999982
21
421.0000000000001
31
0.0
  0
LINE
 8
Back
10
18.999999999999982
20
421.0000000000001
30
0.0
11
18.999999999999982
21
426.25
31
0.0
  0
LINE
 8
Back
10
18.999999999999982
20
426.25
30
0.0
11
21.999999999999982
21
426.25
31
0.0
  0
LINE
 8
Back
10
21.999999999999982
20
426.25
30
0.0
11
21.999999999999982
21
429.7499999999999
31
0.0
  0
LINE
 8
Back
10
9.99999999999999
20
429.7499999999999
30
0.0
11
21.999999999999982
21
429.7499999999999
31
0.0
  0
LINE
 8
Back
10
9.99999999999999
20
426.25
30
0.0
11
9.99999999999999
21
429.7499999999999
31
0.0
  0
LINE
 8
Back
10
12.999999999999988
20
426.25
30
0.0
11
9.99999999999999
21
426.25
31
0.0
  0
LINE
 8
Back
10
12.999999999999988
20
426.25
30
0.0
11
12.999999999999982
21
421.0000000000001
31
0.0
  0
LINE
 8
Back
10
12.999999999999982
20
421.0000000000001
30
0.0
11
15.999999999999982
21
421.0000000000001
31
0.0
  0
LINE
 8
Back
10
61.41080752213853
20
75.73555455601127
30
0.0
11
55.587621999144375
21
72.47441397009783
31
0.0
  0
LINE
 8
Back
10
113.29692952841964
20
83.9535089505867
30
0.0
11
106.66902313686681
21
84.73797336731587
31
0.0
  0
LINE
 8
Back
10
39.89592359914347
20
60.10407640085654
30
0.0
11
35.36549292399738
21
55.20308410806562
31
0.0
  0
LINE
 8
Back
10
106.66902313686681
20
84.73797336731587
30
0.0
11
100.00000000000001
21
84.99999999999999
31
0.0
  0
LINE
 8
Back
10
100.00000000000001
20
84.99999999999999
30
0.0
11
93.33097686313319
21
84.73797336731587
31
0.0
  0
LINE
 8
Back
10
93.33097686313319
20
84.73797336731587
30
0.0
11
86.70307047158039
21
83.9535089505867
31
0.0
  0
LINE
 8
Back
10
86.70307047158039
20
83.9535089505867
30
0.0
11
80.15714407224806
21
82.65144323380251
31
0.0
  0
LINE
 8
Back
10
80.15714407224806
20
82.65144323380251
30
0.0
11
73.73355547812949
21
80.83980388508805
31
0.0
  0
LINE
 8
Back
10
73.73355547812949
20
80.83980388508805
30
0.0
11
67.4719082489674
21
78.52976026345937
31
0.0
  0
LINE
 8
Back
10
67.4719082489674
20
78.52976026345937
30
0.0
11
61.41080752213853
21
75.73555455601127
31
0.0
  0
LINE
 8
Back
10
55.587621999144375
20
72.47441397009783
30
0.0
11
50.0382535551398
21
68.76644452187053
31
0.0
  0
LINE
 8
Back
10
50.0382535551398
20
68.76644452187053
30
0.0
11
44.79691589193441
21
64.63450707600263
31
0.0
  0
LINE
 8
Back
10
44.79691589193441
20
64.63450707600263
30
0.0
11
39.89592359914347
21
60.10407640085654
31
0.0
  0
LINE
 8
Back
10
35.36549292399738
20
55.20308410806562
30
0.0
11
31.233555478129485
21
49.96174644486022
31
0.0
  0
LINE
 8
Back
10
31.233555478129485
20
49.96174644486022
30
0.0
11
27.52558602990218
21
44.41237800085566
31
0.0
  0
LINE
 8
Back
10
27.52558602990218
20
44.41237800085566
30
0.0
11
24.264445443988745
21
38.589192477861474
31
0.0
  0
LINE
 8
Back
10
24.264445443988745
20
38.589192477861474
30
0.0
11
21.470239736540634
21
32.52809175103263
31
0.0
  0
LINE
 8
Back
10
21.470239736540634
20
32.52809175103263
30
0.0
11
19.160196114911958
21
26.266444521870536
31
0.0
  0
LINE
 8
Back
10
19.160196114911958
20
26.266444521870536
30
0.0
11
17.348556766197504
21
19.842855927751966
31
0.0
  0
LINE
 8
Back
10
17.348556766197504
20
19.842855927751966
30
0.0
11
16.046491049413316
21
13.296929528419632
31
0.0
  0
LINE
 8
Back
10
16.046491049413316
20
13.296929528419632
30
0.0
11
15.262026632684131
21
6.66902313686683
31
0.0
  0
LINE
 8
Back
10
15.262026632684131
20
6.66902313686683
30
0.0
11
15.000000000000012
21
9.86988268891764e-15
31
0.0
  0
LINE
 8
Back
10
5.7742170833123606e-15
20
0.0
30
0.0
11
15.000000000000012
21
9.86988268891764e-15
31
0.0
  0
LINE
 8
Back
10
184.99999999999997
20
0.0
30
0.0
11
200.0
21
0.0
31
0.0
  0
LINE
 8
Back
10
184.99999999999997
20
0.0
30
0.0
11
184.73797336731587
21
6.669023136866819
31
0.0
  0
LINE
 8
Back
10
184.73797336731587
20
6.669023136866819
30
0.0
11
183.9535089505867
21
13.296929528419621
31
0.0
  0
LINE
 8
Back
10
182.6514432338025
20
19.84285592775196
30
0.0
11
180.83980388508803
21
26.266444521870525
31
0.0
  0
LINE
 8
Back
10
180.83980388508803
20
26.266444521870525
30
0.0
11
178.52976026345937
21
32.528091751032626
31
0.0
  0
LINE
 8
Back
10
178.52976026345937
20
32.528091751032626
30
0.0
11
175.73555455601127
21
38.589192477861474
31
0.0
  0
LINE
 8
Back
10
175.73555455601127
20
38.589192477861474
30
0.0
11
172.47441397009783
21
44.41237800085563
31
0.0
  0
LINE
 8
Back
10
172.47441397009783
20
44.41237800085563
30
0.0
11
168.76644452187054
21
49.96174644486022
31
0.0
  0
LINE
 8
Back
10
168.76644452187054
20
49.96174644486022
30
0.0
11
164.63450707600262
21
55.2030841080656
31
0.0
  0
LINE
 8
Back
10
164.63450707600262
20
55.2030841080656
30
0.0
11
160.10407640085654
21
60.104076400856535
31
0.0
  0
LINE
 8
Back
10
160.10407640085654
20
60.104076400856535
30
0.0
11
155.2030841080656
21
64.63450707600262
31
0.0
  0
LINE
 8
Back
10
155.2030841080656
20
64.63450707600262
30
0.0
11
149.9617464448602
21
68.76644452187051
31
0.0
  0
LINE
 8
Back
10
149.9617464448602
20
68.76644452187051
30
0.0
11
144.41237800085565
21
72.47441397009783
31
0.0
  0
LINE
 8
Back
10
144.41237800085565
20
72.47441397009783
30
0.0
11
138.58919247786147
21
75.73555455601127
31
0.0
  0
LINE
 8
Back
10
138.58919247786147
20
75.73555455601127
30
0.0
11
132.52809175103263
21
78.52976026345937
31
0.0
  0
LINE
 8
Back
10
132.52809175103263
20
78.52976026345937
30
0.0
11
126.26644452187053
21
80.83980388508805
31
0.0
  0
LINE
 8
Back
10
126.26644452187053
20
80.83980388508805
30
0.0
11
119.84285592775194
21
82.6514432338025
31
0.0
  0
LINE
 8
Back
10
119.84285592775194
20
82.6514432338025
30
0.0
11
113.29692952841964
21
83.9535089505867
31
0.0
  0
LINE
 8
Back
10
200.0
20
122.8
30
0.0
11
200.0
21
126.0
31
0.0
  0
LINE
 8
Back
10
1.6767610227975278e-14
20
122.8
30
0.0
11
5.7742170833123606e-15
21
0.0
31
0.0
  0
LINE
 8
Back
10
1.6767610227975278e-14
20
122.8
30
0.0
11
200.0
21
122.8
31
0.0
 0
ENDSEC
 0
EOF
