 0
SECTION
 2
ENTITIES
  0
LINE
 8
plan
10
-372.4200000000006
20
804.5268262377749
30
0.0
11
-372.4200000000002
21
797.5268262377757
31
0.0
  0
LINE
 8
plan
10
-386.6699999999996
20
689.0268262377759
30
0.0
11
-386.6699999999996
21
692.5268262377759
31
0.0
  0
LINE
 8
plan
10
-331.5023220500933
20
680.0496230031863
30
0.0
11
-332.8592455901195
21
679.4875668698041
31
0.0
  0
LINE
 8
plan
10
-334.0244622499944
20
678.5934646798395
30
0.0
11
-334.9185644399591
21
677.4282480199646
31
0.0
  0
LINE
 8
plan
10
-350.66999999999905
20
732.026826237776
30
0.0
11
-350.6699999999987
21
728.5268262377758
31
0.0
  0
LINE
 8
plan
10
-324.46813261061635
20
685.1331318820248
30
0.0
11
-324.4200000000004
21
685.8674936100837
31
0.0
  0
LINE
 8
plan
10
-327.8931240807473
20
668.5607362167975
30
0.0
11
-327.23308186337346
21
668.2352394163121
31
0.0
  0
LINE
 8
plan
10
-330.0461637267465
20
668.9890024298455
30
0.0
11
-329.31180199868777
21
668.9408698192295
31
0.0
  0
LINE
 8
plan
10
-365.5563867954084
20
804.2686087809211
30
0.0
11
-365.61330952441745
21
804.3335167133586
31
0.0
  0
LINE
 8
plan
10
-332.9200000000005
20
797.5268262377772
30
0.0
11
-329.42000000000013
21
797.5268262377772
31
0.0
  0
LINE
 8
plan
10
-372.4200000000006
20
804.5268262377749
30
0.0
11
-366.08000000000067
21
804.5268262377756
31
0.0
  0
LINE
 8
plan
10
-336.41999999999933
20
761.5268262377768
30
0.0
11
-336.420000000001
21
804.5268262377763
31
0.0
  0
LINE
 8
plan
10
-361.9199999999992
20
761.5268262377757
30
0.0
11
-365.41999999999916
21
761.5268262377757
31
0.0
  0
LINE
 8
plan
10
-329.42000000000013
20
797.5268262377772
30
0.0
11
-329.4200000000004
21
804.5268262377759
31
0.0
  0
LINE
 8
plan
10
-365.41999999999916
20
761.5268262377757
30
0.0
11
-365.4200000000006
21
803.8668262377755
31
0.0
  0
LINE
 8
plan
10
-329.4199999999994
20
761.5268262377765
30
0.0
11
-329.42000000000047
21
791.5268262377771
31
0.0
  0
LINE
 8
plan
10
-343.4200000000003
20
788.5268262377765
30
0.0
11
-343.42000000000036
21
791.526826237777
31
0.0
  0
LINE
 8
plan
10
-365.6782174568549
20
804.3904394423678
30
0.0
11
-365.7500000000006
21
804.4384030042734
31
0.0
  0
LINE
 8
plan
10
-365.61330952441745
20
804.3335167133586
30
0.0
11
-365.6782174568549
21
804.3904394423678
31
0.0
  0
LINE
 8
plan
10
-372.4199999999995
20
761.2968262377756
30
0.0
11
-368.91999999999945
21
761.5268262377759
31
0.0
  0
LINE
 8
plan
10
-372.4200000000002
20
797.5268262377757
30
0.0
11
-368.9200000000003
21
797.526826237776
31
0.0
  0
LINE
 8
plan
10
-324.8482662130484
20
683.7144539640846
30
0.0
11
-324.6117068801517
21
684.4113352867369
31
0.0
  0
LINE
 8
plan
10
-380.6699999999999
20
699.5268262377757
30
0.0
11
-350.66999999999996
21
699.526826237776
31
0.0
  0
LINE
 8
plan
10
-326.6211722566155
20
681.4039578244443
30
0.0
11
-326.06786520349857
21
681.8891950868357
31
0.0
  0
LINE
 8
plan
10
-350.66999999999905
20
725.0268262377765
30
0.0
11
-393.66999999999996
21
725.0268262377755
31
0.0
  0
LINE
 8
plan
10
-393.66999999999996
20
706.5268262377762
30
0.0
11
-377.66999999999933
21
706.5268262377763
31
0.0
  0
LINE
 8
plan
10
-327.8931240807473
20
680.6695960963855
30
0.0
11
-327.23308186337346
21
680.995092896871
31
0.0
  0
LINE
 8
plan
10
-335.6723274534925
20
748.6189111023615
30
0.0
11
-335.48062057334124
21
747.1627527790147
31
0.0
  0
LINE
 8
plan
10
-386.6699999999993
20
728.5268262377758
30
0.0
11
-386.6699999999993
21
732.0268262377758
31
0.0
  0
LINE
 8
plan
10
-324.6117068801517
20
664.8189970264463
30
0.0
11
-324.46813261061635
21
664.0972004311582
31
0.0
  0
LINE
 8
plan
10
-393.66999999999956
20
732.0268262377763
30
0.0
11
-393.66999999999996
21
725.0268262377755
31
0.0
  0
LINE
 8
plan
10
-332.8592455901195
20
743.7465103891489
30
0.0
11
-331.50232205009337
21
743.1844542557667
31
0.0
  0
LINE
 8
plan
10
-334.9185644399591
20
745.8058292389885
30
0.0
11
-334.0244622499944
21
744.6406125791136
31
0.0
  0
LINE
 8
plan
10
-326.06786520349857
20
667.3411372263474
30
0.0
11
-325.58262794110715
21
666.7878301732304
31
0.0
  0
LINE
 8
plan
10
-334.9185644399591
20
677.4282480199646
30
0.0
11
-335.48062057334124
21
676.0713244799383
31
0.0
  0
LINE
 8
plan
10
-343.42000000000024
20
629.5268262377762
30
0.0
11
-339.92000000000013
21
629.5268262377762
31
0.0
  0
LINE
 8
plan
10
-324.4200000000004
20
663.3628387030994
30
0.0
11
-324.4200000000004
21
685.1331318820248
31
0.0
  0
LINE
 8
plan
10
-354.9200000000001
20
616.5268262377762
30
0.0
11
-354.92000000000024
21
632.5268262377759
31
0.0
  0
LINE
 8
plan
10
-368.9200000000001
20
659.5268262377763
30
0.0
11
-368.92000000000024
21
623.526826237776
31
0.0
  0
LINE
 8
plan
10
-330.0461637267465
20
754.2450748291076
30
0.0
11
-329.31180199868777
21
754.2932074397236
31
0.0
  0
LINE
 8
plan
10
-377.66999999999933
20
706.5268262377763
30
0.0
11
-377.6699999999995
21
703.0268262377759
31
0.0
  0
LINE
 8
plan
10
-377.6699999999995
20
703.0268262377759
30
0.0
11
-380.66999999999916
21
703.0268262377757
31
0.0
  0
LINE
 8
plan
10
-328.59000540339963
20
668.7972955496942
30
0.0
11
-327.8931240807473
21
668.5607362167975
31
0.0
  0
LINE
 8
plan
10
-393.66999999999973
20
714.5268262377759
30
0.0
11
-377.66999999999933
21
714.5268262377757
31
0.0
  0
LINE
 8
plan
10
-377.66999999999933
20
714.5268262377757
30
0.0
11
-377.66999999999933
21
718.0268262377759
31
0.0
  0
LINE
 8
plan
10
-329.42000000000024
20
616.5268262377762
30
0.0
11
-335.76000000000033
21
616.5268262377762
31
0.0
  0
LINE
 8
plan
10
-329.42000000000036
20
623.526826237776
30
0.0
11
-332.9200000000003
21
623.5268262377759
31
0.0
  0
LINE
 8
plan
10
-336.33157676649813
20
616.856826237776
30
0.0
11
-336.28361320459254
21
616.7850436946304
31
0.0
  0
LINE
 8
plan
10
-332.92000000000013
20
659.5268262377759
30
0.0
11
-332.9200000000003
21
623.5268262377759
31
0.0
  0
LINE
 8
plan
10
-324.4200000000004
20
685.1331318820248
30
0.0
11
-324.4200000000004
21
685.8674936100837
31
0.0
  0
LINE
 8
plan
10
-329.42000000000024
20
616.5268262377762
30
0.0
11
-329.42000000000036
21
623.526826237776
31
0.0
  0
LINE
 8
plan
10
-336.2266904755835
20
616.720135762193
30
0.0
11
-336.16178254314616
21
616.6632130331838
31
0.0
  0
LINE
 8
plan
10
-372.42000000000036
20
623.526826237776
30
0.0
11
-372.42000000000036
21
616.5268262377763
31
0.0
  0
LINE
 8
plan
10
-324.6117068801517
20
758.4150802325067
30
0.0
11
-324.46813261061635
21
759.1368768277948
31
0.0
  0
LINE
 8
plan
10
-336.09000000000043
20
616.6152494712783
30
0.0
11
-335.76000000000033
21
616.5268262377762
31
0.0
  0
LINE
 8
plan
10
-372.41999999999996
20
659.5268262377764
30
0.0
11
-368.9200000000001
21
659.5268262377763
31
0.0
  0
LINE
 8
plan
10
-336.28361320459254
20
616.7850436946304
30
0.0
11
-336.2266904755835
21
616.720135762193
31
0.0
  0
LINE
 8
plan
10
-368.92000000000024
20
623.526826237776
30
0.0
11
-372.42000000000036
21
623.526826237776
31
0.0
  0
LINE
 8
plan
10
-339.92000000000013
20
629.5268262377762
30
0.0
11
-339.92000000000013
21
659.5268262377763
31
0.0
  0
LINE
 8
plan
10
-358.42
20
791.5268262377758
30
0.0
11
-361.9200000000003
21
791.5268262377758
31
0.0
  0
LINE
 8
plan
10
-324.42000000000047
20
791.526826237777
30
0.0
11
-329.42000000000047
21
791.5268262377771
31
0.0
  0
LINE
 8
plan
10
-361.92000000000013
20
629.5268262377759
30
0.0
11
-358.4200000000002
21
629.5268262377759
31
0.0
  0
LINE
 8
plan
10
-329.42000000000036
20
629.5268262377758
30
0.0
11
-324.42000000000036
21
629.5268262377758
31
0.0
  0
LINE
 8
plan
10
-324.4200000000004
20
663.3628387030994
30
0.0
11
-324.42000000000036
21
629.5268262377758
31
0.0
  0
LINE
 8
plan
10
-324.46813261061635
20
685.1331318820248
30
0.0
11
-324.4200000000004
21
685.1331318820248
31
0.0
  0
LINE
 8
plan
10
-336.4200000000003
20
659.5268262377762
30
0.0
11
-336.4200000000003
21
617.186826237776
31
0.0
  0
LINE
 8
plan
10
-365.4200000000003
20
659.5268262377759
30
0.0
11
-365.41999999999996
21
616.5268262377763
31
0.0
  0
LINE
 8
plan
10
-326.6211722566155
20
755.4077027702143
30
0.0
11
-326.06786520349857
21
755.8929400326057
31
0.0
  0
LINE
 8
plan
10
-354.9200000000001
20
616.5268262377762
30
0.0
11
-346.9200000000003
21
616.5268262377763
31
0.0
  0
LINE
 8
plan
10
-324.46813261061635
20
759.1368768277948
30
0.0
11
-324.4200000000004
21
759.8712385558537
31
0.0
  0
LINE
 8
plan
10
-328.59000540339963
20
754.4367817092589
30
0.0
11
-327.8931240807473
21
754.6733410421555
31
0.0
  0
LINE
 8
plan
10
-339.92000000000013
20
659.5268262377763
30
0.0
11
-336.4200000000003
21
659.5268262377762
31
0.0
  0
LINE
 8
plan
10
-326.06786520349857
20
755.8929400326057
30
0.0
11
-325.58262794110715
21
756.4462470857227
31
0.0
  0
LINE
 8
plan
10
-372.42000000000036
20
616.5268262377763
30
0.0
11
-365.41999999999996
21
616.5268262377763
31
0.0
  0
LINE
 8
plan
10
-329.31180199868777
20
754.2932074397236
30
0.0
11
-328.59000540339963
21
754.4367817092589
31
0.0
  0
LINE
 8
plan
10
-325.17376301353386
20
757.0581566924806
30
0.0
11
-324.8482662130484
21
757.7181989098546
31
0.0
  0
LINE
 8
plan
10
-336.4200000000003
20
617.186826237776
30
0.0
11
-336.33157676649813
21
616.856826237776
31
0.0
  0
LINE
 8
plan
10
-354.92000000000024
20
632.5268262377759
30
0.0
11
-358.42
21
632.526826237776
31
0.0
  0
LINE
 8
plan
10
-325.58262794110715
20
756.4462470857227
30
0.0
11
-325.17376301353386
21
757.0581566924806
31
0.0
  0
LINE
 8
plan
10
-329.42000000000036
20
629.5268262377758
30
0.0
11
-329.42000000000013
21
659.7568262377763
31
0.0
  0
LINE
 8
plan
10
-327.8931240807473
20
754.6733410421555
30
0.0
11
-327.23308186337346
21
754.998837842641
31
0.0
  0
LINE
 8
plan
10
-327.23308186337346
20
754.998837842641
30
0.0
11
-326.6211722566155
21
755.4077027702143
31
0.0
  0
LINE
 8
plan
10
-339.9200000000004
20
791.5268262377767
30
0.0
11
-343.42000000000036
21
791.526826237777
31
0.0
  0
LINE
 8
plan
10
-346.9200000000003
20
616.5268262377763
30
0.0
11
-346.9200000000001
21
632.5268262377764
31
0.0
  0
LINE
 8
plan
10
-329.42000000000013
20
659.7568262377763
30
0.0
11
-332.92000000000013
21
659.5268262377759
31
0.0
  0
LINE
 8
plan
10
-361.92000000000013
20
659.526826237776
30
0.0
11
-365.4200000000003
21
659.5268262377759
31
0.0
  0
LINE
 8
plan
10
-346.9200000000001
20
632.5268262377764
30
0.0
11
-343.4200000000002
21
632.5268262377763
31
0.0
  0
LINE
 8
plan
10
-372.41999999999996
20
659.5268262377764
30
0.0
11
-372.4200000000002
21
629.5268262377759
31
0.0
  0
LINE
 8
plan
10
-343.4200000000002
20
632.5268262377763
30
0.0
11
-343.42000000000024
21
629.5268262377762
31
0.0
  0
LINE
 8
plan
10
-346.92000000000024
20
788.5268262377765
30
0.0
11
-343.4200000000003
21
788.5268262377765
31
0.0
  0
LINE
 8
plan
10
-354.9200000000003
20
788.5268262377762
30
0.0
11
-358.42000000000024
21
788.5268262377759
31
0.0
  0
LINE
 8
plan
10
-346.92000000000075
20
804.5268262377759
30
0.0
11
-354.92000000000064
21
804.5268262377756
31
0.0
  0
LINE
 8
plan
10
-354.92000000000064
20
804.5268262377756
30
0.0
11
-354.9200000000003
21
788.5268262377762
31
0.0
  0
LINE
 8
plan
10
-361.9200000000003
20
791.5268262377758
30
0.0
11
-361.9199999999992
21
761.5268262377757
31
0.0
  0
LINE
 8
plan
10
-380.6699999999994
20
791.5268262377758
30
0.0
11
-380.66999999999956
21
732.0268262377758
31
0.0
  0
LINE
 8
plan
10
-361.92000000000013
20
629.5268262377759
30
0.0
11
-361.92000000000013
21
659.526826237776
31
0.0
  0
LINE
 8
plan
10
-358.42
20
632.526826237776
30
0.0
11
-358.4200000000002
21
629.5268262377759
31
0.0
  0
LINE
 8
plan
10
-372.41999999999996
20
791.5268262377758
30
0.0
11
-372.4199999999995
21
761.2968262377756
31
0.0
  0
LINE
 8
plan
10
-365.5084232335026
20
804.1968262377756
30
0.0
11
-365.5563867954084
21
804.2686087809211
31
0.0
  0
LINE
 8
plan
10
-324.4200000000004
20
737.3665836488694
30
0.0
11
-324.4200000000004
21
759.8712385558537
31
0.0
  0
LINE
 8
plan
10
-339.91999999999916
20
761.5268262377764
30
0.0
11
-336.41999999999933
21
761.5268262377768
31
0.0
  0
LINE
 8
plan
10
-329.4200000000004
20
804.5268262377759
30
0.0
11
-336.420000000001
21
804.5268262377763
31
0.0
  0
LINE
 8
plan
10
-329.4199999999994
20
761.5268262377765
30
0.0
11
-332.9199999999994
21
761.5268262377768
31
0.0
  0
LINE
 8
plan
10
-368.91999999999945
20
761.5268262377759
30
0.0
11
-368.9200000000003
21
797.526826237776
31
0.0
  0
LINE
 8
plan
10
-332.9199999999994
20
761.5268262377768
30
0.0
11
-332.9200000000005
21
797.5268262377772
31
0.0
  0
LINE
 8
plan
10
-358.42000000000024
20
788.5268262377759
30
0.0
11
-358.42
21
791.5268262377758
31
0.0
  0
LINE
 8
plan
10
-339.9200000000004
20
791.5268262377767
30
0.0
11
-339.91999999999916
21
761.5268262377764
31
0.0
  0
LINE
 8
plan
10
-365.4200000000006
20
803.8668262377755
30
0.0
11
-365.5084232335026
21
804.1968262377756
31
0.0
  0
LINE
 8
plan
10
-365.7500000000006
20
804.4384030042734
30
0.0
11
-366.08000000000067
21
804.5268262377756
31
0.0
  0
LINE
 8
plan
10
-346.92000000000075
20
804.5268262377759
30
0.0
11
-346.92000000000024
21
788.5268262377765
31
0.0
  0
LINE
 8
plan
10
-380.6699999999994
20
721.5268262377759
30
0.0
11
-380.66999999999973
21
718.0268262377763
31
0.0
  0
LINE
 8
plan
10
-324.42000000000047
20
791.526826237777
30
0.0
11
-324.4200000000004
21
759.8712385558537
31
0.0
  0
LINE
 8
plan
10
-380.6699999999994
20
689.0268262377757
30
0.0
11
-380.66999999999973
21
629.5268262377758
31
0.0
  0
LINE
 8
plan
10
-380.66999999999916
20
703.0268262377757
30
0.0
11
-380.6699999999999
21
699.5268262377757
31
0.0
  0
LINE
 8
plan
10
-328.59000540339963
20
680.4330367634889
30
0.0
11
-327.8931240807473
21
680.6695960963855
31
0.0
  0
LINE
 8
plan
10
-377.66999999999933
20
718.0268262377759
30
0.0
11
-380.66999999999973
21
718.0268262377763
31
0.0
  0
LINE
 8
plan
10
-330.0461637267465
20
754.2450748291076
30
0.0
11
-331.5023220500933
21
754.0533679489563
31
0.0
  0
LINE
 8
plan
10
-380.66999999999973
20
629.5268262377758
30
0.0
11
-372.4200000000002
21
629.5268262377759
31
0.0
  0
LINE
 8
plan
10
-332.8592455901195
20
753.4913118155741
30
0.0
11
-334.0244622499944
21
752.5972096256095
31
0.0
  0
LINE
 8
plan
10
-331.5023220500933
20
754.0533679489563
30
0.0
11
-332.8592455901195
21
753.4913118155741
31
0.0
  0
LINE
 8
plan
10
-325.17376301353386
20
683.0544117467106
30
0.0
11
-324.8482662130484
21
683.7144539640846
31
0.0
  0
LINE
 8
plan
10
-380.6699999999994
20
689.0268262377757
30
0.0
11
-350.4399999999993
21
689.026826237776
31
0.0
  0
LINE
 8
plan
10
-380.6699999999994
20
721.5268262377759
30
0.0
11
-350.66999999999945
21
721.526826237776
31
0.0
  0
LINE
 8
plan
10
-324.8482662130484
20
665.5158783490986
30
0.0
11
-324.6117068801517
21
664.8189970264463
31
0.0
  0
LINE
 8
plan
10
-329.31180199868777
20
668.9408698192295
30
0.0
11
-328.59000540339963
21
668.7972955496942
31
0.0
  0
LINE
 8
plan
10
-334.9185644399591
20
671.8020842932185
30
0.0
11
-334.0244622499944
21
670.6368676333436
31
0.0
  0
LINE
 8
plan
10
-350.66999999999996
20
699.526826237776
30
0.0
11
-350.6699999999996
21
696.0268262377759
31
0.0
  0
LINE
 8
plan
10
-327.23308186337346
20
668.2352394163121
30
0.0
11
-326.6211722566155
21
667.8263744887388
31
0.0
  0
LINE
 8
plan
10
-324.46813261061635
20
664.0972004311582
30
0.0
11
-324.4200000000004
21
663.3628387030994
31
0.0
  0
LINE
 8
plan
10
-325.17376301353386
20
666.1759205664724
30
0.0
11
-324.8482662130484
21
665.5158783490986
31
0.0
  0
LINE
 8
plan
10
-330.0461637267465
20
680.2413298833376
30
0.0
11
-329.31180199868777
21
680.2894624939536
31
0.0
  0
LINE
 8
plan
10
-334.0244622499944
20
752.5972096256095
30
0.0
11
-334.9185644399591
21
751.4319929657346
31
0.0
  0
LINE
 8
plan
10
-334.9185644399591
20
751.4319929657346
30
0.0
11
-335.48062057334124
21
750.0750694257083
31
0.0
  0
LINE
 8
plan
10
-335.48062057334124
20
747.1627527790147
30
0.0
11
-334.9185644399591
21
745.8058292389885
31
0.0
  0
LINE
 8
plan
10
-350.66999999999945
20
721.526826237776
30
0.0
11
-350.66999999999905
21
725.0268262377765
31
0.0
  0
LINE
 8
plan
10
-393.47669047558327
20
695.8335167133591
30
0.0
11
-393.533613204592
21
695.7686087809224
31
0.0
  0
LINE
 8
plan
10
-393.4117825431458
20
695.8904394423689
30
0.0
11
-393.47669047558327
21
695.8335167133591
31
0.0
  0
LINE
 8
plan
10
-350.66999999999905
20
732.026826237776
30
0.0
11
-380.66999999999956
21
732.0268262377758
31
0.0
  0
LINE
 8
plan
10
-393.33999999999986
20
695.9384030042742
30
0.0
11
-393.4117825431458
21
695.8904394423689
31
0.0
  0
LINE
 8
plan
10
-326.6211722566155
20
667.8263744887388
30
0.0
11
-326.06786520349857
21
667.3411372263474
31
0.0
  0
LINE
 8
plan
10
-393.5815767664978
20
695.6968262377767
30
0.0
11
-393.6699999999994
21
695.3668262377766
31
0.0
  0
LINE
 8
plan
10
-331.50232205009337
20
743.1844542557667
30
0.0
11
-330.0461637267465
21
742.9927473756155
31
0.0
  0
LINE
 8
plan
10
-350.6699999999987
20
728.5268262377758
30
0.0
11
-386.6699999999993
21
728.5268262377758
31
0.0
  0
LINE
 8
plan
10
-393.66999999999956
20
689.0268262377759
30
0.0
11
-386.6699999999996
21
689.0268262377759
31
0.0
  0
LINE
 8
plan
10
-336.16178254314616
20
616.6632130331838
30
0.0
11
-336.09000000000043
21
616.6152494712783
31
0.0
  0
LINE
 8
plan
10
-324.8482662130484
20
757.7181989098546
30
0.0
11
-324.6117068801517
21
758.4150802325067
31
0.0
  0
LINE
 8
plan
10
-332.8592455901195
20
679.4875668698041
30
0.0
11
-334.0244622499944
21
678.5934646798395
31
0.0
  0
LINE
 8
plan
10
-335.48062057334124
20
676.0713244799383
30
0.0
11
-335.6723274534925
21
674.6151661565915
31
0.0
  0
LINE
 8
plan
10
-334.0244622499944
20
670.6368676333436
30
0.0
11
-332.8592455901195
21
669.742765443379
31
0.0
  0
LINE
 8
plan
10
-327.23308186337346
20
680.995092896871
30
0.0
11
-326.6211722566155
21
681.4039578244443
31
0.0
  0
LINE
 8
plan
10
-330.0461637267465
20
680.2413298833376
30
0.0
11
-331.5023220500933
21
680.0496230031863
31
0.0
  0
LINE
 8
plan
10
-350.4399999999993
20
689.026826237776
30
0.0
11
-350.66999999999945
21
692.5268262377756
31
0.0
  0
LINE
 8
plan
10
-325.58262794110715
20
666.7878301732304
30
0.0
11
-325.17376301353386
21
666.1759205664724
31
0.0
  0
LINE
 8
plan
10
-331.50232205009337
20
669.1807093099967
30
0.0
11
-330.0461637267465
21
668.9890024298455
31
0.0
  0
LINE
 8
plan
10
-324.6117068801517
20
684.4113352867369
30
0.0
11
-324.46813261061635
21
685.1331318820248
31
0.0
  0
LINE
 8
plan
10
-393.533613204592
20
695.7686087809224
30
0.0
11
-393.5815767664978
21
695.6968262377767
31
0.0
  0
LINE
 8
plan
10
-335.48062057334124
20
673.1590078332447
30
0.0
11
-334.9185644399591
21
671.8020842932185
31
0.0
  0
LINE
 8
plan
10
-332.8592455901195
20
669.742765443379
30
0.0
11
-331.50232205009337
21
669.1807093099967
31
0.0
  0
LINE
 8
plan
10
-350.66999999999945
20
692.5268262377756
30
0.0
11
-386.6699999999996
21
692.5268262377759
31
0.0
  0
LINE
 8
plan
10
-386.6699999999993
20
732.0268262377758
30
0.0
11
-393.66999999999956
21
732.0268262377763
31
0.0
  0
LINE
 8
plan
10
-335.48062057334124
20
750.0750694257083
30
0.0
11
-335.6723274534925
21
748.6189111023615
31
0.0
  0
LINE
 8
plan
10
-393.66999999999973
20
714.5268262377759
30
0.0
11
-393.66999999999996
21
706.5268262377762
31
0.0
  0
LINE
 8
plan
10
-393.66999999999956
20
689.0268262377759
30
0.0
11
-393.6699999999994
21
695.3668262377766
31
0.0
  0
LINE
 8
plan
10
-393.0099999999996
20
696.0268262377764
30
0.0
11
-393.33999999999986
21
695.9384030042742
31
0.0
  0
LINE
 8
plan
10
-335.6723274534925
20
674.6151661565915
30
0.0
11
-335.48062057334124
21
673.1590078332447
31
0.0
  0
LINE
 8
plan
10
-329.31180199868777
20
680.2894624939536
30
0.0
11
-328.59000540339963
21
680.4330367634889
31
0.0
  0
LINE
 8
plan
10
-372.41999999999996
20
791.5268262377758
30
0.0
11
-380.6699999999994
21
791.5268262377758
31
0.0
  0
LINE
 8
plan
10
-350.6699999999996
20
696.0268262377759
30
0.0
11
-393.0099999999996
21
696.0268262377764
31
0.0
  0
LINE
 8
plan
10
-326.06786520349857
20
681.8891950868357
30
0.0
11
-325.58262794110715
21
682.4425021399527
31
0.0
  0
LINE
 8
plan
10
-325.58262794110715
20
682.4425021399527
30
0.0
11
-325.17376301353386
21
683.0544117467106
31
0.0
  0
LINE
 8
plan
10
-334.0244622499944
20
744.6406125791136
30
0.0
11
-332.8592455901195
21
743.7465103891489
31
0.0
  0
LINE
 8
plan
10
-325.58262794110715
20
740.7915751190004
30
0.0
11
-325.17376301353386
21
740.1796655122424
31
0.0
  0
LINE
 8
plan
10
-325.17376301353386
20
740.1796655122424
30
0.0
11
-324.8482662130484
21
739.5196232948686
31
0.0
  0
LINE
 8
plan
10
-324.8482662130484
20
739.5196232948686
30
0.0
11
-324.6117068801517
21
738.8227419722162
31
0.0
  0
LINE
 8
plan
10
-324.6117068801517
20
738.8227419722162
30
0.0
11
-324.46813261061635
21
738.1009453769282
31
0.0
  0
LINE
 8
plan
10
-324.46813261061635
20
738.1009453769282
30
0.0
11
-324.4200000000004
21
737.3665836488694
31
0.0
  0
LINE
 8
plan
10
-326.6211722566155
20
741.8301194345088
30
0.0
11
-326.06786520349857
21
741.3448821721173
31
0.0
  0
LINE
 8
plan
10
-326.06786520349857
20
741.3448821721173
30
0.0
11
-325.58262794110715
21
740.7915751190004
31
0.0
  0
LINE
 8
plan
10
-327.23308186337346
20
742.2389843620821
30
0.0
11
-326.6211722566155
21
741.8301194345088
31
0.0
  0
LINE
 8
plan
10
-329.31180199868777
20
742.9446147649995
30
0.0
11
-328.59000540339963
21
742.8010404954642
31
0.0
  0
LINE
 8
plan
10
-327.8931240807473
20
742.5644811625675
30
0.0
11
-327.23308186337346
21
742.2389843620821
31
0.0
  0
LINE
 8
plan
10
-330.0461637267465
20
742.9927473756155
30
0.0
11
-329.31180199868777
21
742.9446147649995
31
0.0
  0
LINE
 8
plan
10
-328.59000540339963
20
742.8010404954642
30
0.0
11
-327.8931240807473
21
742.5644811625675
31
0.0
  0
LINE
 8
plan
10
-324.4200000000004
20
737.3665836488694
30
0.0
11
-324.4200000000004
21
685.8674936100837
31
0.0
 0
ENDSEC
 0
EOF
