 0
SECTION
 2
ENTITIES
  0
LINE
 8
plan
10
-309.9981980013128
20
753.5588457116646
30
0.0
11
-310.7199945966006
21
753.7024199811997
31
0.0
  0
LINE
 8
plan
10
-307.80767794990703
20
742.4500925277077
30
0.0
11
-306.45075440988074
21
743.01214866109
31
0.0
  0
LINE
 8
plan
10
-304.3914355600414
20
750.6976312376756
30
0.0
11
-305.2855377500062
21
751.8628478975504
31
0.0
  0
LINE
 8
plan
10
-309.2638362732538
20
753.5107131010484
30
0.0
11
-309.9981980013128
21
753.5588457116646
31
0.0
  0
LINE
 8
plan
10
-304.3914355600414
20
745.0714675109299
30
0.0
11
-303.8293794266591
21
746.428391050956
31
0.0
  0
LINE
 8
plan
10
-309.26383627325396
20
742.2583856475566
30
0.0
11
-309.99819800131263
21
742.2102530369405
31
0.0
  0
LINE
 8
plan
10
-298.50941267337663
20
752.9392180053769
30
0.0
11
-274.00941267337663
21
752.9392180053769
31
0.0
  0
LINE
 8
plan
10
-303.14821745685487
20
804.3904394423678
30
0.0
11
-303.2200000000006
21
804.4384030042734
31
0.0
  0
LINE
 8
plan
10
-314.8899999999998
20
663.3628387030991
30
0.0
11
-314.88999999999993
21
662.6284769750406
31
0.0
  0
LINE
 8
plan
10
-314.46173378695215
20
756.9838371817956
30
0.0
11
-314.69829311984876
21
757.6807185044481
31
0.0
  0
LINE
 8
plan
10
-307.80767794990743
20
753.3190062208974
30
0.0
11
-309.2638362732538
21
753.5107131010484
31
0.0
  0
LINE
 8
plan
10
-258.6399999999993
20
791.5268262377758
30
0.0
11
-266.89000000000044
21
791.5268262377771
31
0.0
  0
LINE
 8
plan
10
-277.39000000000044
20
791.5268262377767
30
0.0
11
-280.8900000000003
21
791.526826237777
31
0.0
  0
LINE
 8
plan
10
-303.0833095244175
20
804.3335167133586
30
0.0
11
-303.14821745685487
21
804.3904394423678
31
0.0
  0
LINE
 8
plan
10
-309.88999999999953
20
761.2968262377756
30
0.0
11
-306.3899999999994
21
761.5268262377759
31
0.0
  0
LINE
 8
plan
10
-309.8900000000006
20
804.5268262377749
30
0.0
11
-303.5500000000007
21
804.5268262377756
31
0.0
  0
LINE
 8
plan
10
-314.69829311984876
20
757.6807185044481
30
0.0
11
-314.84186738938405
21
758.4025150997361
31
0.0
  0
LINE
 8
plan
10
-303.8293794266591
20
746.428391050956
30
0.0
11
-303.637672546508
21
747.8845493743025
31
0.0
  0
LINE
 8
plan
10
-303.8293794266593
20
749.3407076976498
30
0.0
11
-304.3914355600414
21
750.6976312376756
31
0.0
  0
LINE
 8
plan
10
-313.72737205889325
20
755.7118853576638
30
0.0
11
-314.1362369864666
21
756.3237949644218
31
0.0
  0
LINE
 8
plan
10
-306.45075440988074
20
743.01214866109
30
0.0
11
-305.28553775000586
21
743.9062508510549
31
0.0
  0
LINE
 8
plan
10
-314.84186738938405
20
758.4025150997361
30
0.0
11
-314.89000000000004
21
759.1368768277948
31
0.0
  0
LINE
 8
plan
10
-309.99819800131263
20
742.2102530369405
30
0.0
11
-310.7199945966006
21
742.0666787674055
31
0.0
  0
LINE
 8
plan
10
-312.6888277433847
20
754.6733410421556
30
0.0
11
-313.24213479650183
21
755.1585783045466
31
0.0
  0
LINE
 8
plan
10
-314.84186738938394
20
737.3665836488693
30
0.0
11
-314.88999999999976
21
737.3665836488691
31
0.0
  0
LINE
 8
plan
10
-245.63999999999993
20
706.5268262377767
30
0.0
11
-245.6400000000003
21
714.5268262377759
31
0.0
  0
LINE
 8
plan
10
-266.8900000000003
20
629.5268262377762
30
0.0
11
-258.64000000000004
21
629.5268262377758
31
0.0
  0
LINE
 8
plan
10
-289.7594126733767
20
662.9302008571914
30
0.0
11
-289.6401530653884
21
662.0243341993324
31
0.0
  0
LINE
 8
plan
10
-284.50941267337663
20
659.8991119439459
30
0.0
11
-283.7845389392237
21
660.4553271230385
31
0.0
  0
LINE
 8
plan
10
-282.87867228136486
20
662.0243341993324
30
0.0
11
-282.75941267337663
21
662.9302008571914
31
0.0
  0
LINE
 8
plan
10
-288.0094126733767
20
665.9612897704369
30
0.0
11
-288.7342864075296
21
665.4050745913443
31
0.0
  0
LINE
 8
plan
10
-288.0094126733767
20
659.8991119439459
30
0.0
11
-287.16527933123547
21
659.5494604651795
31
0.0
  0
LINE
 8
plan
10
-286.25941267337663
20
659.4302008571914
30
0.0
11
-285.35354601551785
21
659.5494604651795
31
0.0
  0
LINE
 8
plan
10
-286.25941267337663
20
666.4302008571914
30
0.0
11
-287.16527933123547
21
666.3109412492031
31
0.0
  0
LINE
 8
plan
10
-298.50941267337663
20
681.4392180053769
30
0.0
11
-298.50941267337663
21
752.9392180053769
31
0.0
  0
LINE
 8
plan
10
-287.16527933123547
20
666.3109412492031
30
0.0
11
-288.0094126733767
21
665.9612897704369
31
0.0
  0
LINE
 8
plan
10
-283.2283237601311
20
661.1802008571913
30
0.0
11
-282.87867228136486
21
662.0243341993324
31
0.0
  0
LINE
 8
plan
10
-258.6399999999993
20
791.5268262377758
30
0.0
11
-258.6399999999996
21
714.5268262377765
31
0.0
  0
LINE
 8
plan
10
-283.7845389392237
20
660.4553271230385
30
0.0
11
-283.2283237601311
21
661.1802008571913
31
0.0
  0
LINE
 8
plan
10
-288.7342864075296
20
660.4553271230385
30
0.0
11
-288.0094126733767
21
659.8991119439459
31
0.0
  0
LINE
 8
plan
10
-282.75941267337663
20
662.9302008571914
30
0.0
11
-282.87867228136486
21
663.8360675150502
31
0.0
  0
LINE
 8
plan
10
-266.8900000000003
20
629.5268262377762
30
0.0
11
-266.8900000000001
21
659.7568262377766
31
0.0
  0
LINE
 8
plan
10
-284.3900000000003
20
616.5268262377766
30
0.0
11
-284.39000000000004
21
632.5268262377767
31
0.0
  0
LINE
 8
plan
10
-273.7536132045925
20
616.7850436946309
30
0.0
11
-273.69669047558347
21
616.7201357621933
31
0.0
  0
LINE
 8
plan
10
-292.3900000000001
20
616.5268262377765
30
0.0
11
-292.39000000000027
21
632.5268262377764
31
0.0
  0
LINE
 8
plan
10
-313.24213479650183
20
755.1585783045466
30
0.0
11
-313.72737205889325
21
755.7118853576638
31
0.0
  0
LINE
 8
plan
10
-266.8900000000003
20
623.5268262377764
30
0.0
11
-270.3900000000003
21
623.5268262377763
31
0.0
  0
LINE
 8
plan
10
-306.39000000000004
20
659.5268262377766
30
0.0
11
-306.3900000000002
21
623.5268262377764
31
0.0
  0
LINE
 8
plan
10
-277.3900000000001
20
629.5268262377765
30
0.0
11
-277.39000000000016
21
659.5268262377766
31
0.0
  0
LINE
 8
plan
10
-302.8900000000003
20
659.5268262377763
30
0.0
11
-302.88999999999993
21
616.5268262377766
31
0.0
  0
LINE
 8
plan
10
-273.5600000000004
20
616.6152494712786
30
0.0
11
-273.2300000000003
21
616.5268262377765
31
0.0
  0
LINE
 8
plan
10
-273.89000000000027
20
617.1868262377765
30
0.0
11
-273.8015767664981
21
616.8568262377763
31
0.0
  0
LINE
 8
plan
10
-277.39000000000016
20
659.5268262377766
30
0.0
11
-273.89000000000027
21
659.5268262377765
31
0.0
  0
LINE
 8
plan
10
-309.8900000000003
20
623.5268262377764
30
0.0
11
-309.8900000000003
21
616.5268262377766
31
0.0
  0
LINE
 8
plan
10
-266.8900000000002
20
616.5268262377765
30
0.0
11
-273.2300000000003
21
616.5268262377765
31
0.0
  0
LINE
 8
plan
10
-273.63178254314613
20
616.6632130331841
30
0.0
11
-273.5600000000004
21
616.6152494712786
31
0.0
  0
LINE
 8
plan
10
-273.89000000000027
20
659.5268262377765
30
0.0
11
-273.89000000000027
21
617.1868262377765
31
0.0
  0
LINE
 8
plan
10
-306.3900000000002
20
623.5268262377764
30
0.0
11
-309.8900000000003
21
623.5268262377764
31
0.0
  0
LINE
 8
plan
10
-314.13623698646643
20
739.4453037841835
30
0.0
11
-314.4617337869518
21
738.7852615668097
31
0.0
  0
LINE
 8
plan
10
-295.89
20
632.5268262377764
30
0.0
11
-295.8900000000002
21
629.5268262377763
31
0.0
  0
LINE
 8
plan
10
-310.7199945966006
20
742.0666787674055
30
0.0
11
-311.41687591925313
21
741.8301194345086
31
0.0
  0
LINE
 8
plan
10
-311.41687591925313
20
741.8301194345086
30
0.0
11
-312.0769181366267
21
741.5046226340231
31
0.0
  0
LINE
 8
plan
10
-312.076918136627
20
754.2644761145821
30
0.0
11
-312.6888277433847
21
754.6733410421556
31
0.0
  0
LINE
 8
plan
10
-312.68882774338465
20
741.09575770645
30
0.0
11
-313.24213479650183
21
740.6105204440585
31
0.0
  0
LINE
 8
plan
10
-245.63999999999993
20
706.5268262377767
30
0.0
11
-258.6399999999997
21
706.5268262377767
31
0.0
  0
LINE
 8
plan
10
-313.24213479650183
20
740.6105204440585
30
0.0
11
-313.7273720588935
21
740.0572133909417
31
0.0
  0
LINE
 8
plan
10
-309.26383627325396
20
742.2583856475566
30
0.0
11
-307.80767794990703
21
742.4500925277077
31
0.0
  0
LINE
 8
plan
10
-273.8015767664981
20
616.8568262377763
30
0.0
11
-273.7536132045925
21
616.7850436946309
31
0.0
  0
LINE
 8
plan
10
-313.7273720588935
20
740.0572133909417
30
0.0
11
-314.13623698646643
21
739.4453037841835
31
0.0
  0
LINE
 8
plan
10
-305.2855377500062
20
751.8628478975504
30
0.0
11
-306.4507544098809
21
752.7569500875153
31
0.0
  0
LINE
 8
plan
10
-305.28553775000586
20
743.9062508510549
30
0.0
11
-304.3914355600414
21
745.0714675109299
31
0.0
  0
LINE
 8
plan
10
-303.637672546508
20
747.8845493743025
30
0.0
11
-303.8293794266593
21
749.3407076976498
31
0.0
  0
LINE
 8
plan
10
-273.69669047558347
20
616.7201357621933
30
0.0
11
-273.63178254314613
21
616.6632130331841
31
0.0
  0
LINE
 8
plan
10
-292.3900000000001
20
616.5268262377765
30
0.0
11
-284.3900000000003
21
616.5268262377766
31
0.0
  0
LINE
 8
plan
10
-314.84186738938394
20
737.3665836488693
30
0.0
11
-314.8899999999998
21
736.6322219208106
31
0.0
  0
LINE
 8
plan
10
-310.7199945966006
20
753.7024199811997
30
0.0
11
-311.4168759192529
21
753.9389793140966
31
0.0
  0
LINE
 8
plan
10
-312.0769181366267
20
741.5046226340231
30
0.0
11
-312.68882774338465
21
741.09575770645
31
0.0
  0
LINE
 8
plan
10
-309.8900000000003
20
616.5268262377766
30
0.0
11
-302.88999999999993
21
616.5268262377766
31
0.0
  0
LINE
 8
plan
10
-314.8900000000001
20
685.1331318820248
30
0.0
11
-314.8899999999998
21
736.6322219208106
31
0.0
  0
LINE
 8
plan
10
-299.3900000000001
20
629.5268262377763
30
0.0
11
-299.3900000000001
21
659.5268262377764
31
0.0
  0
LINE
 8
plan
10
-287.16527933123547
20
659.5494604651795
30
0.0
11
-286.25941267337663
21
659.4302008571914
31
0.0
  0
LINE
 8
plan
10
-289.2905015866222
20
661.1802008571914
30
0.0
11
-288.7342864075296
21
660.4553271230385
31
0.0
  0
LINE
 8
plan
10
-289.6401530653884
20
663.8360675150502
30
0.0
11
-289.7594126733767
21
662.9302008571914
31
0.0
  0
LINE
 8
plan
10
-285.35354601551785
20
666.3109412492031
30
0.0
11
-286.25941267337663
21
666.4302008571914
31
0.0
  0
LINE
 8
plan
10
-289.2905015866222
20
664.6802008571914
30
0.0
11
-289.6401530653884
21
663.8360675150502
31
0.0
  0
LINE
 8
plan
10
-314.8900000000001
20
685.1331318820248
30
0.0
11
-314.8899999999998
21
663.3628387030991
31
0.0
  0
LINE
 8
plan
10
-314.89000000000004
20
759.1368768277948
30
0.0
11
-314.88999999999976
21
737.3665836488691
31
0.0
  0
LINE
 8
plan
10
-284.50941267337663
20
665.9612897704369
30
0.0
11
-285.35354601551785
21
666.3109412492031
31
0.0
  0
LINE
 8
plan
10
-285.35354601551785
20
659.5494604651795
30
0.0
11
-284.50941267337663
21
659.8991119439459
31
0.0
  0
LINE
 8
plan
10
-258.6399999999996
20
714.5268262377765
30
0.0
11
-258.6399999999997
21
706.5268262377767
31
0.0
  0
LINE
 8
plan
10
-282.87867228136486
20
663.8360675150502
30
0.0
11
-283.2283237601311
21
664.6802008571913
31
0.0
  0
LINE
 8
plan
10
-295.89
20
791.5268262377758
30
0.0
11
-299.39000000000027
21
791.5268262377758
31
0.0
  0
LINE
 8
plan
10
-274.00941267337663
20
752.9392180053769
30
0.0
11
-274.00941267337663
21
681.4392180053769
31
0.0
  0
LINE
 8
plan
10
-303.02638679540837
20
804.2686087809211
30
0.0
11
-303.0833095244175
21
804.3335167133586
31
0.0
  0
LINE
 8
plan
10
-270.39000000000055
20
797.5268262377772
30
0.0
11
-266.89000000000016
21
797.5268262377772
31
0.0
  0
LINE
 8
plan
10
-284.3900000000002
20
788.5268262377765
30
0.0
11
-280.8900000000003
21
788.5268262377765
31
0.0
  0
LINE
 8
plan
10
-292.3900000000003
20
788.5268262377762
30
0.0
11
-295.8900000000002
21
788.5268262377759
31
0.0
  0
LINE
 8
plan
10
-284.3900000000008
20
804.5268262377759
30
0.0
11
-292.39000000000067
21
804.5268262377756
31
0.0
  0
LINE
 8
plan
10
-309.89000000000016
20
797.5268262377757
30
0.0
11
-306.39000000000027
21
797.526826237776
31
0.0
  0
LINE
 8
plan
10
-283.2283237601311
20
664.6802008571913
30
0.0
11
-283.7845389392237
21
665.4050745913443
31
0.0
  0
LINE
 8
plan
10
-258.6399999999997
20
706.5268262377767
30
0.0
11
-258.64000000000004
21
629.5268262377758
31
0.0
  0
LINE
 8
plan
10
-266.8900000000002
20
616.5268262377765
30
0.0
11
-266.8900000000003
21
623.5268262377764
31
0.0
  0
LINE
 8
plan
10
-309.89
20
659.5268262377767
30
0.0
11
-306.39000000000004
21
659.5268262377766
31
0.0
  0
LINE
 8
plan
10
-270.39000000000016
20
659.5268262377764
30
0.0
11
-270.3900000000003
21
623.5268262377763
31
0.0
  0
LINE
 8
plan
10
-309.89
20
659.5268262377767
30
0.0
11
-309.89000000000016
21
629.5268262377763
31
0.0
  0
LINE
 8
plan
10
-309.89
20
791.5268262377758
30
0.0
11
-314.89
21
791.5268262377759
31
0.0
  0
LINE
 8
plan
10
-273.8899999999993
20
761.5268262377768
30
0.0
11
-273.890000000001
21
804.5268262377763
31
0.0
  0
LINE
 8
plan
10
-299.3899999999992
20
761.5268262377757
30
0.0
11
-302.88999999999913
21
761.5268262377757
31
0.0
  0
LINE
 8
plan
10
-306.4507544098809
20
752.7569500875153
30
0.0
11
-307.80767794990743
21
753.3190062208974
31
0.0
  0
LINE
 8
plan
10
-280.89000000000016
20
632.5268262377766
30
0.0
11
-280.89000000000027
21
629.5268262377765
31
0.0
  0
LINE
 8
plan
10
-311.4168759192529
20
753.9389793140966
30
0.0
11
-312.076918136627
21
754.2644761145821
31
0.0
  0
LINE
 8
plan
10
-314.1362369864666
20
756.3237949644218
30
0.0
11
-314.46173378695215
21
756.9838371817956
31
0.0
  0
LINE
 8
plan
10
-284.39000000000004
20
632.5268262377767
30
0.0
11
-280.89000000000016
21
632.5268262377766
31
0.0
  0
LINE
 8
plan
10
-314.89000000000016
20
629.5268262377763
30
0.0
11
-309.89000000000016
21
629.5268262377763
31
0.0
  0
LINE
 8
plan
10
-314.6982931198486
20
738.0883802441575
30
0.0
11
-314.84186738938394
21
737.3665836488693
31
0.0
  0
LINE
 8
plan
10
-245.6400000000003
20
714.5268262377759
30
0.0
11
-258.6399999999996
21
714.5268262377765
31
0.0
  0
LINE
 8
plan
10
-299.3900000000001
20
659.5268262377764
30
0.0
11
-302.8900000000003
21
659.5268262377763
31
0.0
  0
LINE
 8
plan
10
-292.39000000000027
20
632.5268262377764
30
0.0
11
-295.89
21
632.5268262377764
31
0.0
  0
LINE
 8
plan
10
-314.4617337869518
20
738.7852615668097
30
0.0
11
-314.6982931198486
21
738.0883802441575
31
0.0
  0
LINE
 8
plan
10
-266.8900000000001
20
659.7568262377766
30
0.0
11
-270.39000000000016
21
659.5268262377764
31
0.0
  0
LINE
 8
plan
10
-314.88999999999976
20
737.3665836488691
30
0.0
11
-314.8899999999998
21
736.6322219208106
31
0.0
  0
LINE
 8
plan
10
-299.3900000000001
20
629.5268262377763
30
0.0
11
-295.8900000000002
21
629.5268262377763
31
0.0
  0
LINE
 8
plan
10
-314.89000000000004
20
759.1368768277948
30
0.0
11
-314.89
21
791.5268262377759
31
0.0
  0
LINE
 8
plan
10
-289.6401530653884
20
662.0243341993324
30
0.0
11
-289.2905015866222
21
661.1802008571914
31
0.0
  0
LINE
 8
plan
10
-283.7845389392237
20
665.4050745913443
30
0.0
11
-284.50941267337663
21
665.9612897704369
31
0.0
  0
LINE
 8
plan
10
-314.89000000000016
20
629.5268262377763
30
0.0
11
-314.88999999999993
21
662.6284769750406
31
0.0
  0
LINE
 8
plan
10
-274.00941267337663
20
681.4392180053769
30
0.0
11
-298.50941267337663
21
681.4392180053769
31
0.0
  0
LINE
 8
plan
10
-280.89000000000027
20
629.5268262377765
30
0.0
11
-277.3900000000001
21
629.5268262377765
31
0.0
  0
LINE
 8
plan
10
-288.7342864075296
20
665.4050745913443
30
0.0
11
-289.2905015866222
21
664.6802008571914
31
0.0
  0
LINE
 8
plan
10
-292.39000000000067
20
804.5268262377756
30
0.0
11
-292.3900000000003
21
788.5268262377762
31
0.0
  0
LINE
 8
plan
10
-299.39000000000027
20
791.5268262377758
30
0.0
11
-299.3899999999992
21
761.5268262377757
31
0.0
  0
LINE
 8
plan
10
-309.89
20
791.5268262377758
30
0.0
11
-309.88999999999953
21
761.2968262377756
31
0.0
  0
LINE
 8
plan
10
-302.97842323350255
20
804.1968262377756
30
0.0
11
-303.02638679540837
21
804.2686087809211
31
0.0
  0
LINE
 8
plan
10
-277.38999999999913
20
761.5268262377764
30
0.0
11
-273.8899999999993
21
761.5268262377768
31
0.0
  0
LINE
 8
plan
10
-266.89000000000044
20
804.5268262377759
30
0.0
11
-273.890000000001
21
804.5268262377763
31
0.0
  0
LINE
 8
plan
10
-266.88999999999936
20
761.5268262377765
30
0.0
11
-270.3899999999994
21
761.5268262377768
31
0.0
  0
LINE
 8
plan
10
-306.3899999999994
20
761.5268262377759
30
0.0
11
-306.39000000000027
21
797.526826237776
31
0.0
  0
LINE
 8
plan
10
-270.3899999999994
20
761.5268262377768
30
0.0
11
-270.39000000000055
21
797.5268262377772
31
0.0
  0
LINE
 8
plan
10
-295.8900000000002
20
788.5268262377759
30
0.0
11
-295.89
21
791.5268262377758
31
0.0
  0
LINE
 8
plan
10
-277.39000000000044
20
791.5268262377767
30
0.0
11
-277.38999999999913
21
761.5268262377764
31
0.0
  0
LINE
 8
plan
10
-302.89000000000055
20
803.8668262377755
30
0.0
11
-302.97842323350255
21
804.1968262377756
31
0.0
  0
LINE
 8
plan
10
-303.2200000000006
20
804.4384030042734
30
0.0
11
-303.5500000000007
21
804.5268262377756
31
0.0
  0
LINE
 8
plan
10
-284.3900000000008
20
804.5268262377759
30
0.0
11
-284.3900000000002
21
788.5268262377765
31
0.0
  0
LINE
 8
plan
10
-266.89000000000016
20
797.5268262377772
30
0.0
11
-266.89000000000044
21
804.5268262377759
31
0.0
  0
LINE
 8
plan
10
-302.88999999999913
20
761.5268262377757
30
0.0
11
-302.89000000000055
21
803.8668262377755
31
0.0
  0
LINE
 8
plan
10
-266.88999999999936
20
761.5268262377765
30
0.0
11
-266.89000000000044
21
791.5268262377771
31
0.0
  0
LINE
 8
plan
10
-280.8900000000003
20
788.5268262377765
30
0.0
11
-280.8900000000003
21
791.526826237777
31
0.0
  0
LINE
 8
plan
10
-309.8900000000006
20
804.5268262377749
30
0.0
11
-309.89000000000016
21
797.5268262377757
31
0.0
  0
LINE
 8
plan
10
-305.2855377500059
20
669.9025059052849
30
0.0
11
-304.39143556004143
21
671.0677225651599
31
0.0
  0
LINE
 8
plan
10
-307.80767794990714
20
668.4463475819377
30
0.0
11
-306.45075440988086
21
669.00840371532
31
0.0
  0
LINE
 8
plan
10
-314.4617337869522
20
682.9800922360256
30
0.0
11
-314.6982931198488
21
683.6769735586781
31
0.0
  0
LINE
 8
plan
10
-314.84186738938405
20
663.3628387030993
30
0.0
11
-314.88999999999993
21
662.6284769750406
31
0.0
  0
LINE
 8
plan
10
-311.416875919253
20
679.9352343683266
30
0.0
11
-312.07691813662706
21
680.2607311688121
31
0.0
  0
LINE
 8
plan
10
-309.2638362732539
20
679.5069681552784
30
0.0
11
-309.99819800131286
21
679.5551007658946
31
0.0
  0
LINE
 8
plan
10
-314.6982931198487
20
664.0846352983875
30
0.0
11
-314.84186738938405
21
663.3628387030993
31
0.0
  0
LINE
 8
plan
10
-314.84186738938405
20
663.3628387030993
30
0.0
11
-314.8899999999998
21
663.3628387030991
31
0.0
  0
LINE
 8
plan
10
-314.84186738938416
20
684.3987701539661
30
0.0
11
-314.8900000000001
21
685.1331318820248
31
0.0
  0
LINE
 8
plan
10
-314.6982931198488
20
683.6769735586781
30
0.0
11
-314.84186738938416
21
684.3987701539661
31
0.0
  0
LINE
 8
plan
10
-314.13623698646666
20
682.3200500186518
30
0.0
11
-314.4617337869522
21
682.9800922360256
31
0.0
  0
LINE
 8
plan
10
-313.7273720588933
20
681.7081404118939
30
0.0
11
-314.13623698646666
21
682.3200500186518
31
0.0
  0
LINE
 8
plan
10
-313.2421347965019
20
681.1548333587766
30
0.0
11
-313.7273720588933
21
681.7081404118939
31
0.0
  0
LINE
 8
plan
10
-312.6888277433848
20
680.6695960963856
30
0.0
11
-313.2421347965019
21
681.1548333587766
31
0.0
  0
LINE
 8
plan
10
-312.07691813662706
20
680.2607311688121
30
0.0
11
-312.6888277433848
21
680.6695960963856
31
0.0
  0
LINE
 8
plan
10
-310.7199945966007
20
679.6986750354297
30
0.0
11
-311.416875919253
21
679.9352343683266
31
0.0
  0
LINE
 8
plan
10
-309.99819800131286
20
679.5551007658946
30
0.0
11
-310.7199945966007
21
679.6986750354297
31
0.0
  0
LINE
 8
plan
10
-307.8076779499075
20
679.3152612751275
30
0.0
11
-309.2638362732539
21
679.5069681552784
31
0.0
  0
LINE
 8
plan
10
-306.45075440988103
20
678.7532051417453
30
0.0
11
-307.8076779499075
21
679.3152612751275
31
0.0
  0
LINE
 8
plan
10
-305.2855377500063
20
677.8591029517804
30
0.0
11
-306.45075440988103
21
678.7532051417453
31
0.0
  0
LINE
 8
plan
10
-304.39143556004143
20
676.6938862919056
30
0.0
11
-305.2855377500063
21
677.8591029517804
31
0.0
  0
LINE
 8
plan
10
-303.8293794266594
20
675.3369627518798
30
0.0
11
-304.39143556004143
21
676.6938862919056
31
0.0
  0
LINE
 8
plan
10
-303.6376725465081
20
673.8808044285325
30
0.0
11
-303.8293794266594
21
675.3369627518798
31
0.0
  0
LINE
 8
plan
10
-303.82937942665916
20
672.4246461051861
30
0.0
11
-303.6376725465081
21
673.8808044285325
31
0.0
  0
LINE
 8
plan
10
-304.39143556004143
20
671.0677225651599
30
0.0
11
-303.82937942665916
21
672.4246461051861
31
0.0
  0
LINE
 8
plan
10
-306.45075440988086
20
669.00840371532
30
0.0
11
-305.2855377500059
21
669.9025059052849
31
0.0
  0
LINE
 8
plan
10
-309.26383627325407
20
668.2546407017866
30
0.0
11
-307.80767794990714
21
668.4463475819377
31
0.0
  0
LINE
 8
plan
10
-309.26383627325407
20
668.2546407017866
30
0.0
11
-309.99819800131274
21
668.2065080911705
31
0.0
  0
LINE
 8
plan
10
-309.99819800131274
20
668.2065080911705
30
0.0
11
-310.7199945966007
21
668.0629338216355
31
0.0
  0
LINE
 8
plan
10
-310.7199945966007
20
668.0629338216355
30
0.0
11
-311.41687591925324
21
667.8263744887386
31
0.0
  0
LINE
 8
plan
10
-311.41687591925324
20
667.8263744887386
30
0.0
11
-312.07691813662683
21
667.5008776882531
31
0.0
  0
LINE
 8
plan
10
-312.07691813662683
20
667.5008776882531
30
0.0
11
-312.6888277433847
21
667.09201276068
31
0.0
  0
LINE
 8
plan
10
-312.6888277433847
20
667.09201276068
30
0.0
11
-313.2421347965019
21
666.6067754982885
31
0.0
  0
LINE
 8
plan
10
-313.2421347965019
20
666.6067754982885
30
0.0
11
-313.7273720588936
21
666.0534684451717
31
0.0
  0
LINE
 8
plan
10
-313.7273720588936
20
666.0534684451717
30
0.0
11
-314.1362369864665
21
665.4415588384135
31
0.0
  0
LINE
 8
plan
10
-314.1362369864665
20
665.4415588384135
30
0.0
11
-314.4617337869519
21
664.7815166210397
31
0.0
  0
LINE
 8
plan
10
-314.4617337869519
20
664.7815166210397
30
0.0
11
-314.6982931198487
21
664.0846352983875
31
0.0
 0
ENDSEC
 0
EOF
