 0
SECTION
 2
ENTITIES
  0
LINE
 8
Side
10
-205.8278617257383
20
5.02324156234507
30
0.0
11
-206.30082389484178
21
10.02665868514434
31
0.0
  0
LINE
 8
Side
10
-350.67
20
139.00000000000003
30
0.0
11
-350.67
21
135.50000000000003
31
0.0
  0
LINE
 8
Side
10
-380.67
20
509.99999999999994
30
0.0
11
-380.67
21
431.49999999999994
31
0.0
  0
LINE
 8
Side
10
-380.67
20
128.50000000000003
30
0.0
11
-350.44000000000005
21
128.50000000000003
31
0.0
  0
LINE
 8
Side
10
-190.67000000000004
20
126.0
30
0.0
11
-380.67
21
126.0
31
0.0
  0
LINE
 8
Side
10
-193.66999999999996
20
402.50000000000006
30
0.0
11
-190.67000000000004
21
402.4999999999997
31
0.0
  0
LINE
 8
Side
10
-193.6700000000002
20
417.4999999999998
30
0.0
11
-190.67000000000007
21
417.4999999999998
31
0.0
  0
LINE
 8
Side
10
-220.67000000000007
20
424.49999999999983
30
0.0
11
-177.67000000000004
21
424.49999999999966
31
0.0
  0
LINE
 8
Side
10
-380.67
20
420.9999999999999
30
0.0
11
-380.67
21
417.5
31
0.0
  0
LINE
 8
Side
10
-386.67
20
128.50000000000003
30
0.0
11
-386.67
21
132.00000000000003
31
0.0
  0
LINE
 8
Side
10
-184.67
20
388.49999999999966
30
0.0
11
-177.67000000000016
21
388.4999999999997
31
0.0
  0
LINE
 8
Side
10
-193.67000000000002
20
405.9999999999999
30
0.0
11
-193.66999999999996
21
402.50000000000006
31
0.0
  0
LINE
 8
Side
10
-190.66999999999993
20
398.99999999999994
30
0.0
11
-220.66999999999993
21
398.99999999999983
31
0.0
  0
LINE
 8
Side
10
-380.67
20
126.0
30
0.0
11
-380.67
21
122.8
31
0.0
  0
LINE
 8
Side
10
-380.67
20
431.49999999999994
30
0.0
11
-350.66999999999996
21
431.49999999999994
31
0.0
  0
LINE
 8
Side
10
-377.66999999999996
20
417.4999999999999
30
0.0
11
-380.67
21
417.5
31
0.0
  0
LINE
 8
Side
10
-393.66999999999996
20
431.49999999999994
30
0.0
11
-393.66999999999996
21
424.49999999999994
31
0.0
  0
LINE
 8
Side
10
-393.66999999999996
20
413.9999999999999
30
0.0
11
-393.66999999999996
21
405.9999999999999
31
0.0
  0
LINE
 8
Side
10
-350.66999999999996
20
424.49999999999994
30
0.0
11
-393.66999999999996
21
424.49999999999994
31
0.0
  0
LINE
 8
Side
10
-350.66999999999996
20
427.99999999999994
30
0.0
11
-386.67
21
427.99999999999994
31
0.0
  0
LINE
 8
Side
10
-380.67
20
398.99999999999994
30
0.0
11
-350.66999999999996
21
398.99999999999994
31
0.0
  0
LINE
 8
Side
10
-377.66999999999996
20
413.9999999999999
30
0.0
11
-377.66999999999996
21
417.4999999999999
31
0.0
  0
LINE
 8
Side
10
-350.66999999999996
20
420.9999999999999
30
0.0
11
-350.66999999999996
21
424.49999999999994
31
0.0
  0
LINE
 8
Side
10
-177.67000000000016
20
388.4999999999997
30
0.0
11
-177.6700000000001
21
395.49999999999994
31
0.0
  0
LINE
 8
Side
10
-177.6700000000002
20
406.0
30
0.0
11
-193.67000000000002
21
405.9999999999999
31
0.0
  0
LINE
 8
Side
10
-220.90000000000006
20
431.4999999999999
30
0.0
11
-220.67000000000002
21
427.99999999999994
31
0.0
  0
LINE
 8
Side
10
-350.67
20
168.00000000000003
30
0.0
11
-386.67
21
168.00000000000006
31
0.0
  0
LINE
 8
Side
10
-190.67000000000007
20
420.9999999999999
30
0.0
11
-220.66999999999993
21
420.9999999999997
31
0.0
  0
LINE
 8
Side
10
-184.67000000000004
20
391.99999999999983
30
0.0
11
-184.67
21
388.49999999999966
31
0.0
  0
LINE
 8
Side
10
-393.67
20
154.0
30
0.0
11
-377.6700000000001
21
154.0
31
0.0
  0
LINE
 8
Side
10
-380.67
20
388.49999999999994
30
0.0
11
-350.44
21
388.49999999999994
31
0.0
  0
LINE
 8
Side
10
-215.56546559649092
20
38.54029392813722
30
0.0
11
-218.1237659598388
21
42.866143598319724
31
0.0
  0
LINE
 8
Side
10
-218.1237659598388
20
42.866143598319724
30
0.0
11
-220.94864045000423
21
47.02282018339784
31
0.0
  0
LINE
 8
Side
10
-190.66999999999993
20
139.00000000000003
30
0.0
11
-190.67000000000004
21
142.49999999999983
31
0.0
  0
LINE
 8
Side
10
-220.6700000000001
20
128.50000000000009
30
0.0
11
-190.67000000000004
21
128.50000000000003
31
0.0
  0
LINE
 8
Side
10
-177.67000000000016
20
153.99999999999977
30
0.0
11
-193.67000000000013
21
153.99999999999997
31
0.0
  0
LINE
 8
Side
10
-177.67000000000016
20
146.0000000000001
30
0.0
11
-177.67000000000016
21
153.99999999999977
31
0.0
  0
LINE
 8
Side
10
-177.67000000000016
20
146.0000000000001
30
0.0
11
-193.67000000000002
21
145.99999999999997
31
0.0
  0
LINE
 8
Side
10
-190.67000000000007
20
157.4999999999999
30
0.0
11
-190.67000000000007
21
161.0
31
0.0
  0
LINE
 8
Side
10
-350.67
20
161.00000000000006
30
0.0
11
-350.67
21
164.50000000000003
31
0.0
  0
LINE
 8
Side
10
-190.67000000000004
20
25.0
30
0.0
11
-190.67000000000004
21
122.8
31
0.0
  0
LINE
 8
Side
10
-380.67
20
0.0
30
0.0
11
-365.67
21
-2.0336564633485124e-13
31
0.0
  0
LINE
 8
Side
10
-205.67000000000002
20
0.0
30
0.0
11
-190.67000000000004
21
0.0
31
0.0
  0
LINE
 8
Side
10
-380.67
20
420.9999999999999
30
0.0
11
-350.66999999999996
21
420.9999999999999
31
0.0
  0
LINE
 8
Side
10
-377.6700000000001
20
157.49999999999997
30
0.0
11
-380.67
21
157.50000000000006
31
0.0
  0
LINE
 8
Side
10
-190.66999999999993
20
398.99999999999994
30
0.0
11
-190.67000000000004
21
402.4999999999997
31
0.0
  0
LINE
 8
Side
10
-386.67
20
431.49999999999994
30
0.0
11
-393.66999999999996
21
431.49999999999994
31
0.0
  0
LINE
 8
Side
10
-393.66999999999996
20
388.49999999999994
30
0.0
11
-393.66999999999996
21
395.49999999999994
31
0.0
  0
LINE
 8
Side
10
-190.67000000000004
20
0.0
30
0.0
11
-190.67000000000004
21
25.0
31
0.0
  0
LINE
 8
Side
10
-350.67
20
164.50000000000003
30
0.0
11
-393.67
21
164.50000000000003
31
0.0
  0
LINE
 8
Side
10
-386.67
20
427.99999999999994
30
0.0
11
-386.67
21
431.49999999999994
31
0.0
  0
LINE
 8
Side
10
-190.67000000000007
20
417.4999999999998
30
0.0
11
-190.67000000000007
21
420.9999999999999
31
0.0
  0
LINE
 8
Side
10
-220.6700000000001
20
388.5
30
0.0
11
-190.67000000000004
21
388.49999999999994
31
0.0
  0
LINE
 8
Side
10
-350.44
20
388.49999999999994
30
0.0
11
-350.66999999999996
21
391.9999999999999
31
0.0
  0
LINE
 8
Side
10
-377.6700000000001
20
154.0
30
0.0
11
-377.6700000000001
21
157.49999999999997
31
0.0
  0
LINE
 8
Side
10
-393.66999999999996
20
413.9999999999999
30
0.0
11
-377.66999999999996
21
413.9999999999999
31
0.0
  0
LINE
 8
Side
10
-377.6700000000001
20
146.0
30
0.0
11
-377.6700000000001
21
142.5
31
0.0
  0
LINE
 8
Side
10
-350.66999999999996
20
398.99999999999994
30
0.0
11
-350.66999999999996
21
395.49999999999994
31
0.0
  0
LINE
 8
Side
10
-386.67
20
388.49999999999994
30
0.0
11
-386.67
21
391.9999999999999
31
0.0
  0
LINE
 8
Side
10
-386.67
20
171.50000000000006
30
0.0
11
-393.67
21
171.50000000000006
31
0.0
  0
LINE
 8
Side
10
-350.44000000000005
20
128.50000000000003
30
0.0
11
-350.67
21
132.00000000000003
31
0.0
  0
LINE
 8
Side
10
-393.67
20
128.50000000000003
30
0.0
11
-386.67
21
128.50000000000003
31
0.0
  0
LINE
 8
Side
10
-380.67
20
161.00000000000006
30
0.0
11
-380.67
21
157.50000000000006
31
0.0
  0
LINE
 8
Side
10
-377.66999999999996
20
402.49999999999994
30
0.0
11
-380.67
21
402.49999999999994
31
0.0
  0
LINE
 8
Side
10
-350.66999999999996
20
395.49999999999994
30
0.0
11
-393.66999999999996
21
395.49999999999994
31
0.0
  0
LINE
 8
Side
10
-377.66999999999996
20
405.9999999999999
30
0.0
11
-377.66999999999996
21
402.49999999999994
31
0.0
  0
LINE
 8
Side
10
-350.67
20
132.00000000000003
30
0.0
11
-386.67
21
132.00000000000003
31
0.0
  0
LINE
 8
Side
10
-386.67
20
168.00000000000006
30
0.0
11
-386.67
21
171.50000000000006
31
0.0
  0
LINE
 8
Side
10
-220.67000000000002
20
427.99999999999994
30
0.0
11
-184.6699999999999
21
427.9999999999998
31
0.0
  0
LINE
 8
Side
10
-193.67000000000013
20
413.9999999999999
30
0.0
11
-193.6700000000002
21
417.4999999999998
31
0.0
  0
LINE
 8
Side
10
-380.67
20
388.49999999999994
30
0.0
11
-380.67
21
171.50000000000006
31
0.0
  0
LINE
 8
Side
10
-380.67
20
402.49999999999994
30
0.0
11
-380.67
21
398.99999999999994
31
0.0
  0
LINE
 8
Side
10
-184.67
20
431.49999999999966
30
0.0
11
-184.6699999999999
21
427.9999999999998
31
0.0
  0
LINE
 8
Side
10
-220.67000000000007
20
391.99999999999983
30
0.0
11
-184.67000000000004
21
391.99999999999983
31
0.0
  0
LINE
 8
Side
10
-177.6700000000001
20
431.4999999999999
30
0.0
11
-177.67000000000004
21
424.49999999999966
31
0.0
  0
LINE
 8
Side
10
-220.67
20
395.49999999999983
30
0.0
11
-177.6700000000001
21
395.49999999999994
31
0.0
  0
LINE
 8
Side
10
-220.66999999999993
20
398.99999999999983
30
0.0
11
-220.67
21
395.49999999999983
31
0.0
  0
LINE
 8
Side
10
-380.67
20
128.50000000000003
30
0.0
11
-380.67
21
126.0
31
0.0
  0
LINE
 8
Side
10
-177.6700000000001
20
431.4999999999999
30
0.0
11
-184.67
21
431.49999999999966
31
0.0
  0
LINE
 8
Side
10
-220.6700000000001
20
388.5
30
0.0
11
-220.67000000000007
21
391.99999999999983
31
0.0
  0
LINE
 8
Side
10
-177.67000000000016
20
413.9999999999997
30
0.0
11
-193.67000000000013
21
413.9999999999999
31
0.0
  0
LINE
 8
Side
10
-190.6699999999999
20
431.4999999999999
30
0.0
11
-220.90000000000006
21
431.4999999999999
31
0.0
  0
LINE
 8
Side
10
-393.67
20
128.50000000000003
30
0.0
11
-393.67
21
135.50000000000003
31
0.0
  0
LINE
 8
Side
10
-220.66999999999993
20
420.9999999999997
30
0.0
11
-220.67000000000007
21
424.49999999999983
31
0.0
  0
LINE
 8
Side
10
-177.6700000000002
20
406.0
30
0.0
11
-177.67000000000016
21
413.9999999999997
31
0.0
  0
LINE
 8
Side
10
-350.67
20
135.50000000000003
30
0.0
11
-393.67
21
135.50000000000003
31
0.0
  0
LINE
 8
Side
10
-380.67
20
139.00000000000003
30
0.0
11
-350.67
21
139.00000000000003
31
0.0
  0
LINE
 8
Side
10
-380.67
20
142.5
30
0.0
11
-380.67
21
139.00000000000003
31
0.0
  0
LINE
 8
Side
10
-377.6700000000001
20
142.5
30
0.0
11
-380.67
21
142.5
31
0.0
  0
LINE
 8
Side
10
-393.67
20
146.0
30
0.0
11
-377.6700000000001
21
146.0
31
0.0
  0
LINE
 8
Side
10
-393.67
20
154.0
30
0.0
11
-393.67
21
146.0
31
0.0
  0
LINE
 8
Side
10
-380.67
20
161.00000000000006
30
0.0
11
-350.67
21
161.00000000000006
31
0.0
  0
LINE
 8
Side
10
-393.67
20
171.50000000000006
30
0.0
11
-393.67
21
164.50000000000003
31
0.0
  0
LINE
 8
Side
10
-350.67
20
171.50000000000006
30
0.0
11
-350.67
21
168.00000000000003
31
0.0
  0
LINE
 8
Side
10
-380.67
20
171.50000000000006
30
0.0
11
-350.67
21
171.50000000000006
31
0.0
  0
LINE
 8
Side
10
-350.66999999999996
20
391.9999999999999
30
0.0
11
-386.67
21
391.9999999999999
31
0.0
  0
LINE
 8
Side
10
-393.66999999999996
20
388.49999999999994
30
0.0
11
-386.67
21
388.49999999999994
31
0.0
  0
LINE
 8
Side
10
-393.66999999999996
20
405.9999999999999
30
0.0
11
-377.66999999999996
21
405.9999999999999
31
0.0
  0
LINE
 8
Side
10
-350.66999999999996
20
431.49999999999994
30
0.0
11
-350.66999999999996
21
427.99999999999994
31
0.0
  0
LINE
 8
Side
10
-190.6699999999999
20
431.4999999999999
30
0.0
11
-190.67000000000004
21
509.99999999999994
31
0.0
  0
LINE
 8
Side
10
-190.6699999999999
20
171.49999999999994
30
0.0
11
-190.67000000000004
21
388.49999999999994
31
0.0
  0
LINE
 8
Side
10
-190.6699999999999
20
171.49999999999994
30
0.0
11
-220.90000000000006
21
171.49999999999994
31
0.0
  0
LINE
 8
Side
10
-220.90000000000006
20
171.49999999999994
30
0.0
11
-220.67000000000002
21
168.00000000000003
31
0.0
  0
LINE
 8
Side
10
-220.67000000000002
20
168.00000000000003
30
0.0
11
-184.6699999999999
21
167.99999999999986
31
0.0
  0
LINE
 8
Side
10
-184.67
20
171.49999999999977
30
0.0
11
-184.6699999999999
21
167.99999999999986
31
0.0
  0
LINE
 8
Side
10
-177.67000000000004
20
171.49999999999994
30
0.0
11
-184.67
21
171.49999999999977
31
0.0
  0
LINE
 8
Side
10
-177.67000000000004
20
171.49999999999994
30
0.0
11
-177.67000000000004
21
164.49999999999974
31
0.0
  0
LINE
 8
Side
10
-220.67000000000007
20
164.49999999999991
30
0.0
11
-177.67000000000004
21
164.49999999999974
31
0.0
  0
LINE
 8
Side
10
-220.66999999999993
20
160.99999999999983
30
0.0
11
-220.67000000000007
21
164.49999999999991
31
0.0
  0
LINE
 8
Side
10
-190.67000000000007
20
161.0
30
0.0
11
-220.66999999999993
21
160.99999999999983
31
0.0
  0
LINE
 8
Side
10
-193.6700000000002
20
157.4999999999999
30
0.0
11
-190.67000000000007
21
157.4999999999999
31
0.0
  0
LINE
 8
Side
10
-193.67000000000013
20
153.99999999999997
30
0.0
11
-193.6700000000002
21
157.4999999999999
31
0.0
  0
LINE
 8
Side
10
-193.67000000000002
20
145.99999999999997
30
0.0
11
-193.66999999999996
21
142.50000000000014
31
0.0
  0
LINE
 8
Side
10
-193.66999999999996
20
142.50000000000014
30
0.0
11
-190.67000000000004
21
142.49999999999983
31
0.0
  0
LINE
 8
Side
10
-190.66999999999993
20
139.00000000000003
30
0.0
11
-220.66999999999993
21
138.99999999999991
31
0.0
  0
LINE
 8
Side
10
-220.66999999999993
20
138.99999999999991
30
0.0
11
-220.67
21
135.49999999999994
31
0.0
  0
LINE
 8
Side
10
-220.67
20
135.49999999999994
30
0.0
11
-177.67000000000004
21
135.50000000000003
31
0.0
  0
LINE
 8
Side
10
-177.67000000000016
20
128.4999999999998
30
0.0
11
-177.67000000000004
21
135.50000000000003
31
0.0
  0
LINE
 8
Side
10
-184.67
20
128.49999999999977
30
0.0
11
-177.67000000000016
21
128.4999999999998
31
0.0
  0
LINE
 8
Side
10
-184.67000000000004
20
131.99999999999991
30
0.0
11
-184.67
21
128.49999999999977
31
0.0
  0
LINE
 8
Side
10
-220.67000000000007
20
131.99999999999991
30
0.0
11
-184.67000000000004
21
131.99999999999991
31
0.0
  0
LINE
 8
Side
10
-220.6700000000001
20
128.50000000000009
30
0.0
11
-220.67000000000007
21
131.99999999999991
31
0.0
  0
LINE
 8
Side
10
-190.67000000000004
20
126.0
30
0.0
11
-190.67000000000004
21
128.50000000000003
31
0.0
  0
LINE
 8
Side
10
-340.4337684742952
20
58.31749019371284
30
0.0
11
-343.98749019371303
21
54.763768474295006
31
0.0
  0
LINE
 8
Side
10
-343.98749019371303
20
54.763768474295006
30
0.0
11
-347.31105942206324
21
50.99391917989509
31
0.0
  0
LINE
 8
Side
10
-260.94864045000423
20
76.08452130361229
30
0.0
11
-265.7748090268117
21
77.4866528902905
31
0.0
  0
LINE
 8
Side
10
-265.7748090268117
20
77.4866528902905
30
0.0
11
-270.6794948331421
21
78.58298005829509
31
0.0
  0
LINE
 8
Side
10
-270.6794948331421
20
78.58298005829509
30
0.0
11
-275.6433413148557
21
79.36917610515823
31
0.0
  0
LINE
 8
Side
10
-275.6433413148557
20
79.36917610515823
30
0.0
11
-280.64675843765497
21
79.84213827426173
31
0.0
  0
LINE
 8
Side
10
-280.64675843765497
20
79.84213827426173
30
0.0
11
-285.6700000000001
21
80.0
31
0.0
  0
LINE
 8
Side
10
-205.67000000000002
20
0.0
30
0.0
11
-205.8278617257383
21
5.02324156234507
31
0.0
  0
LINE
 8
Side
10
-285.6700000000001
20
80.0
30
0.0
11
-290.6932415623451
21
79.84213827426173
31
0.0
  0
LINE
 8
Side
10
-290.6932415623451
20
79.84213827426173
30
0.0
11
-295.6966586851444
21
79.36917610515822
31
0.0
  0
LINE
 8
Side
10
-295.6966586851444
20
79.36917610515822
30
0.0
11
-300.66050516685806
21
78.58298005829508
31
0.0
  0
LINE
 8
Side
10
-206.30082389484178
20
10.02665868514434
30
0.0
11
-207.0870199417049
21
14.990505166857972
31
0.0
  0
LINE
 8
Side
10
-207.0870199417049
20
14.990505166857972
30
0.0
11
-208.18334710970953
21
19.895190973188384
31
0.0
  0
LINE
 8
Side
10
-220.94864045000423
20
47.02282018339784
30
0.0
11
-224.02894057793685
21
50.993919179895165
31
0.0
  0
LINE
 8
Side
10
-224.02894057793685
20
50.993919179895165
30
0.0
11
-227.35250980628712
21
54.76376847429508
31
0.0
  0
LINE
 8
Side
10
-211.28788112893992
20
29.449964214774234
30
0.0
11
-213.28383580271844
21
34.06234332520581
31
0.0
  0
LINE
 8
Side
10
-213.28383580271844
20
34.06234332520581
30
0.0
11
-215.56546559649092
21
38.54029392813722
31
0.0
  0
LINE
 8
Side
10
-300.66050516685806
20
78.58298005829508
30
0.0
11
-305.5651909731885
21
77.48665289029047
31
0.0
  0
LINE
 8
Side
10
-305.5651909731885
20
77.48665289029047
30
0.0
11
-310.3913595499959
21
76.08452130361226
31
0.0
  0
LINE
 8
Side
10
-310.3913595499959
20
76.08452130361226
30
0.0
11
-315.1199642147743
21
74.38211887106009
31
0.0
  0
LINE
 8
Side
10
-319.73234332520593
20
72.38616419728153
30
0.0
11
-324.21029392813733
21
70.10453440350905
31
0.0
  0
LINE
 8
Side
10
-328.5361435983198
20
67.54623404016117
30
0.0
11
-332.69282018339794
21
64.72135954999574
31
0.0
  0
LINE
 8
Side
10
-332.69282018339794
20
64.72135954999574
30
0.0
11
-336.6639191798953
21
61.641059422063066
31
0.0
  0
LINE
 8
Side
10
-336.6639191798953
20
61.641059422063066
30
0.0
11
-340.4337684742952
21
58.31749019371284
31
0.0
  0
LINE
 8
Side
10
-242.8038564016803
20
67.5462340401612
30
0.0
11
-247.12970607186278
21
70.10453440350908
31
0.0
  0
LINE
 8
Side
10
-324.21029392813733
20
70.10453440350905
30
0.0
11
-328.5361435983198
21
67.54623404016117
31
0.0
  0
LINE
 8
Side
10
-247.12970607186278
20
70.10453440350908
30
0.0
11
-251.60765667479424
21
72.38616419728157
31
0.0
  0
LINE
 8
Side
10
-251.60765667479424
20
72.38616419728157
30
0.0
11
-256.22003578522583
21
74.38211887106011
31
0.0
  0
LINE
 8
Side
10
-256.22003578522583
20
74.38211887106011
30
0.0
11
-260.94864045000423
21
76.08452130361229
31
0.0
  0
LINE
 8
Side
10
-227.35250980628712
20
54.76376847429508
30
0.0
11
-230.90623152570492
21
58.3174901937129
31
0.0
  0
LINE
 8
Side
10
-230.90623152570492
20
58.3174901937129
30
0.0
11
-234.67608082010486
21
61.64105942206312
31
0.0
  0
LINE
 8
Side
10
-234.67608082010486
20
61.64105942206312
30
0.0
11
-238.64717981660215
21
64.72135954999578
31
0.0
  0
LINE
 8
Side
10
-315.1199642147743
20
74.38211887106009
30
0.0
11
-319.73234332520593
21
72.38616419728153
31
0.0
  0
LINE
 8
Side
10
-238.64717981660215
20
64.72135954999578
30
0.0
11
-242.8038564016803
21
67.5462340401612
31
0.0
  0
LINE
 8
Side
10
-208.18334710970953
20
19.895190973188384
30
0.0
11
-209.58547869638775
21
24.721359549995793
31
0.0
  0
LINE
 8
Side
10
-209.58547869638775
20
24.721359549995793
30
0.0
11
-211.28788112893992
21
29.449964214774234
31
0.0
  0
LINE
 8
Side
10
-363.15665289029056
20
19.89519097318821
30
0.0
11
-364.2529800582952
21
14.99050516685779
31
0.0
  0
LINE
 8
Side
10
-364.2529800582952
20
14.99050516685779
30
0.0
11
-365.0391761051583
21
10.02665868514415
31
0.0
  0
LINE
 8
Side
10
-365.0391761051583
20
10.02665868514415
30
0.0
11
-365.51213827426176
21
5.023241562344874
31
0.0
  0
LINE
 8
Side
10
-365.51213827426176
20
5.023241562344874
30
0.0
11
-365.67
21
-2.0336564633485124e-13
31
0.0
  0
LINE
 8
Side
10
-347.31105942206324
20
50.99391917989509
30
0.0
11
-350.3913595499959
21
47.02282018339774
31
0.0
  0
LINE
 8
Side
10
-350.3913595499959
20
47.02282018339774
30
0.0
11
-353.2162340401613
21
42.86614359831961
31
0.0
  0
LINE
 8
Side
10
-353.2162340401613
20
42.86614359831961
30
0.0
11
-355.7745344035092
21
38.54029392813709
31
0.0
  0
LINE
 8
Side
10
-355.7745344035092
20
38.54029392813709
30
0.0
11
-358.05616419728165
21
34.062343325205674
31
0.0
  0
LINE
 8
Side
10
-358.05616419728165
20
34.062343325205674
30
0.0
11
-360.0521188710602
21
29.449964214774088
31
0.0
  0
LINE
 8
Side
10
-360.0521188710602
20
29.449964214774088
30
0.0
11
-361.75452130361236
21
24.721359549995633
31
0.0
  0
LINE
 8
Side
10
-361.75452130361236
20
24.721359549995633
30
0.0
11
-363.15665289029056
21
19.89519097318821
31
0.0
  0
LINE
 8
Side
10
-190.67000000000004
20
509.99999999999994
30
0.0
11
-380.67
21
509.99999999999994
31
0.0
  0
LINE
 8
Side
10
-236.6700000000002
20
496.99999999999966
30
0.0
11
-236.6699999999999
21
499.99999999999955
31
0.0
  0
LINE
 8
Side
10
-204.17000000000016
20
490.9999999999996
30
0.0
11
-204.17000000000016
21
487.9999999999997
31
0.0
  0
LINE
 8
Side
10
-209.41999999999987
20
490.99999999999994
30
0.0
11
-204.17000000000016
21
490.9999999999996
31
0.0
  0
LINE
 8
Side
10
-236.66999999999982
20
487.99999999999983
30
0.0
11
-240.1700000000002
21
487.99999999999955
31
0.0
  0
LINE
 8
Side
10
-216.4200000000002
20
500.0
30
0.0
11
-216.4200000000002
21
487.99999999999903
31
0.0
  0
LINE
 8
Side
10
-209.41999999999996
20
493.9999999999999
30
0.0
11
-209.41999999999987
21
490.99999999999994
31
0.0
  0
LINE
 8
Side
10
-209.42000000000016
20
496.9999999999995
30
0.0
11
-209.41999999999996
21
493.9999999999999
31
0.0
  0
LINE
 8
Side
10
-231.42000000000039
20
496.9999999999993
30
0.0
11
-231.41999999999993
21
490.9999999999995
31
0.0
  0
LINE
 8
Side
10
-204.17000000000024
20
496.99999999999994
30
0.0
11
-209.42000000000016
21
496.9999999999995
31
0.0
  0
LINE
 8
Side
10
-224.42000000000007
20
499.9999999999999
30
0.0
11
-224.4199999999998
21
487.99999999999966
31
0.0
  0
LINE
 8
Side
10
-204.17000000000024
20
496.99999999999994
30
0.0
11
-204.17000000000024
21
499.99999999999983
31
0.0
  0
LINE
 8
Side
10
-236.67
20
490.9999999999998
30
0.0
11
-236.66999999999982
21
487.99999999999983
31
0.0
  0
LINE
 8
Side
10
-231.42000000000039
20
496.9999999999993
30
0.0
11
-236.6700000000002
21
496.99999999999966
31
0.0
  0
LINE
 8
Side
10
-231.41999999999993
20
490.9999999999995
30
0.0
11
-236.67
21
490.9999999999998
31
0.0
  0
LINE
 8
Side
10
-200.6700000000005
20
487.99999999999983
30
0.0
11
-204.17000000000016
21
487.9999999999997
31
0.0
  0
LINE
 8
Side
10
-224.4199999999998
20
487.99999999999966
30
0.0
11
-216.4200000000002
21
487.99999999999903
31
0.0
  0
LINE
 8
Side
10
-200.67000000000004
20
500.0
30
0.0
11
-200.6700000000005
21
487.99999999999983
31
0.0
  0
LINE
 8
Side
10
-370.67
20
500.0
30
0.0
11
-370.6699999999999
21
487.99999999999983
31
0.0
  0
LINE
 8
Side
10
-200.67000000000004
20
500.0
30
0.0
11
-204.17000000000024
21
499.99999999999983
31
0.0
  0
LINE
 8
Side
10
-240.17000000000027
20
499.9999999999997
30
0.0
11
-240.1700000000002
21
487.99999999999955
31
0.0
  0
LINE
 8
Side
10
-354.91999999999985
20
500.00000000000017
30
0.0
11
-354.91999999999956
21
487.99999999999994
31
0.0
  0
LINE
 8
Side
10
-334.66999999999996
20
497.0000000000002
30
0.0
11
-339.9199999999999
21
496.9999999999998
31
0.0
  0
LINE
 8
Side
10
-334.66999999999996
20
497.0000000000002
30
0.0
11
-334.66999999999996
21
500.00000000000006
31
0.0
  0
LINE
 8
Side
10
-354.91999999999956
20
487.99999999999994
30
0.0
11
-346.9199999999999
21
487.99999999999926
31
0.0
  0
LINE
 8
Side
10
-339.91999999999973
20
494.00000000000017
30
0.0
11
-339.9199999999996
21
491.0000000000002
31
0.0
  0
LINE
 8
Side
10
-331.16999999999973
20
500.0000000000003
30
0.0
11
-331.1700000000002
21
488.0000000000001
31
0.0
  0
LINE
 8
Side
10
-367.16999999999973
20
491.00000000000006
30
0.0
11
-367.16999999999956
21
488.0000000000001
31
0.0
  0
LINE
 8
Side
10
-367.16999999999956
20
488.0000000000001
30
0.0
11
-370.6699999999999
21
487.99999999999983
31
0.0
  0
LINE
 8
Side
10
-334.6699999999999
20
490.9999999999999
30
0.0
11
-334.6699999999999
21
488.0
31
0.0
  0
LINE
 8
Side
10
-361.9199999999997
20
490.9999999999998
30
0.0
11
-367.16999999999973
21
491.00000000000006
31
0.0
  0
LINE
 8
Side
10
-361.92000000000013
20
496.9999999999996
30
0.0
11
-361.9199999999997
21
490.9999999999998
31
0.0
  0
LINE
 8
Side
10
-339.9199999999999
20
496.9999999999998
30
0.0
11
-339.91999999999973
21
494.00000000000017
31
0.0
  0
LINE
 8
Side
10
-331.1700000000002
20
488.0000000000001
30
0.0
11
-334.6699999999999
21
488.0
31
0.0
  0
LINE
 8
Side
10
-346.9199999999999
20
500.0000000000003
30
0.0
11
-346.9199999999999
21
487.99999999999926
31
0.0
  0
LINE
 8
Side
10
-361.92000000000013
20
496.9999999999996
30
0.0
11
-367.16999999999996
21
496.99999999999994
31
0.0
  0
LINE
 8
Side
10
-367.16999999999996
20
496.99999999999994
30
0.0
11
-367.1699999999997
21
499.99999999999983
31
0.0
  0
LINE
 8
Side
10
-339.9199999999996
20
491.0000000000002
30
0.0
11
-334.6699999999999
21
490.9999999999999
31
0.0
  0
LINE
 8
Side
10
-367.1699999999997
20
499.99999999999983
30
0.0
11
-370.67
21
500.0
31
0.0
  0
LINE
 8
Side
10
-331.16999999999973
20
500.0000000000003
30
0.0
11
-334.66999999999996
21
500.00000000000006
31
0.0
  0
LINE
 8
Side
10
-346.9199999999999
20
500.0000000000003
30
0.0
11
-354.91999999999985
21
500.00000000000017
31
0.0
  0
LINE
 8
Side
10
-236.6699999999999
20
499.99999999999955
30
0.0
11
-240.17000000000027
21
499.9999999999997
31
0.0
  0
LINE
 8
Side
10
-216.4200000000002
20
500.0
30
0.0
11
-224.42000000000007
21
499.9999999999999
31
0.0
  0
LINE
 8
Side
10
-190.67000000000004
20
122.8
30
0.0
11
-190.67000000000004
21
126.0
31
0.0
  0
LINE
 8
Side
10
-380.67
20
122.8
30
0.0
11
-380.67
21
0.0
31
0.0
  0
LINE
 8
Side
10
-190.67000000000004
20
122.8
30
0.0
11
-380.67
21
122.8
31
0.0
 0
ENDSEC
 0
EOF
