 0
SECTION
 2
ENTITIES
  0
LINE
 8
Front
10
-943.1300000000002
20
496.9999999999993
30
0.0
11
-943.1299999999997
21
490.9999999999995
31
0.0
  0
LINE
 8
Front
10
-845.13
20
161.00000000000006
30
0.0
11
-845.13
21
166.24999999999994
31
0.0
  0
LINE
 8
Front
10
-1032.13
20
125.99999999999997
30
0.0
11
-1032.13
21
122.8
31
0.0
  0
LINE
 8
Front
10
-1032.13
20
125.99999999999997
30
0.0
11
-935.6992268343554
21
126.0
31
0.0
  0
LINE
 8
Front
10
-928.5607731656445
20
126.0
30
0.0
11
-935.6992268343554
21
126.0
31
0.0
  0
LINE
 8
Front
10
-928.5607731656445
20
126.0
30
0.0
11
-832.13
21
126.0
31
0.0
  0
LINE
 8
Front
10
-929.6200993507039
20
182.8872802318667
30
0.0
11
-932.13
21
183.0
31
0.0
  0
LINE
 8
Front
10
-932.13
20
183.0
30
0.0
11
-934.6399006492962
21
182.8872802318667
31
0.0
  0
LINE
 8
Front
10
-941.9684950742776
20
128.78542362208736
30
0.0
11
-939.579031675867
21
128.00903990051611
31
0.0
  0
LINE
 8
Front
10
-939.579031675867
20
128.00903990051611
30
0.0
11
-937.129593054362
21
127.44997151923839
31
0.0
  0
LINE
 8
Front
10
-908.7619488958036
20
170.4251154806589
30
0.0
11
-910.2387184908953
21
172.45771445204454
31
0.0
  0
LINE
 8
Front
10
-910.2387184908953
20
172.45771445204454
30
0.0
11
-911.8917438128329
21
174.3497541716322
31
0.0
  0
LINE
 8
Front
10
-904.1581941368432
20
153.7437847501856
30
0.0
11
-904.1581941368432
21
156.25621524981443
31
0.0
  0
LINE
 8
Front
10
-910.2387184908953
20
137.54228554795546
30
0.0
11
-908.7619488958036
21
139.57488451934114
31
0.0
  0
LINE
 8
Front
10
-960.1018058631569
20
156.25621524981443
30
0.0
11
-960.1018058631569
21
153.7437847501856
31
0.0
  0
LINE
 8
Front
10
-960.1018058631569
20
153.7437847501856
30
0.0
11
-959.8765933295023
21
151.24146855710566
31
0.0
  0
LINE
 8
Front
10
-959.8765933295023
20
151.24146855710566
30
0.0
11
-959.4279815410911
21
148.7694138492232
31
0.0
  0
LINE
 8
Front
10
-939.5790316758669
20
181.9909600994839
30
0.0
11
-941.9684950742776
21
181.21457637791266
31
0.0
  0
LINE
 8
Front
10
-941.9684950742776
20
181.21457637791266
30
0.0
11
-944.2787446952916
21
180.22712830126773
31
0.0
  0
LINE
 8
Front
10
-944.2787446952916
20
180.22712830126773
30
0.0
11
-946.4911797673655
21
179.03656622085225
31
0.0
  0
LINE
 8
Front
10
-946.4911797673655
20
179.03656622085225
30
0.0
11
-948.5879870641892
21
177.65247584249852
31
0.0
  0
LINE
 8
Front
10
-948.5879870641892
20
132.34752415750148
30
0.0
11
-946.4911797673655
21
130.96343377914775
31
0.0
  0
LINE
 8
Front
10
-946.4911797673655
20
130.96343377914775
30
0.0
11
-944.2787446952916
21
129.77287169873227
31
0.0
  0
LINE
 8
Front
10
-944.2787446952916
20
129.77287169873227
30
0.0
11
-941.9684950742776
21
128.78542362208736
31
0.0
  0
LINE
 8
Front
10
-955.4980511041964
20
170.4251154806589
30
0.0
11
-956.7866748919887
21
168.26832254924395
31
0.0
  0
LINE
 8
Front
10
-956.7866748919887
20
168.26832254924395
30
0.0
11
-957.8767776314406
21
166.00470088630988
31
0.0
  0
LINE
 8
Front
10
-927.1304069456381
20
182.55002848076163
30
0.0
11
-929.6200993507039
21
182.8872802318667
31
0.0
  0
LINE
 8
Front
10
-904.1581941368432
20
156.25621524981443
30
0.0
11
-904.3834066704978
21
158.75853144289437
31
0.0
  0
LINE
 8
Front
10
-904.3834066704978
20
158.75853144289437
30
0.0
11
-904.832018458909
21
161.2305861507768
31
0.0
  0
LINE
 8
Front
10
-932.13
20
127.00000000000001
30
0.0
11
-929.6200993507039
21
127.11271976813332
31
0.0
  0
LINE
 8
Front
10
-959.4279815410911
20
161.23058615077682
30
0.0
11
-959.8765933295023
21
158.75853144289437
31
0.0
  0
LINE
 8
Front
10
-959.8765933295023
20
158.75853144289437
30
0.0
11
-960.1018058631569
21
156.25621524981443
31
0.0
  0
LINE
 8
Front
10
-957.8767776314406
20
143.99529911369015
30
0.0
11
-956.7866748919887
21
141.73167745075605
31
0.0
  0
LINE
 8
Front
10
-956.7866748919887
20
141.73167745075605
30
0.0
11
-955.4980511041964
21
139.57488451934114
31
0.0
  0
LINE
 8
Front
10
-906.3832223685595
20
166.00470088630988
30
0.0
11
-907.4733251080114
21
168.26832254924395
31
0.0
  0
LINE
 8
Front
10
-907.4733251080114
20
168.26832254924395
30
0.0
11
-908.7619488958036
21
170.4251154806589
31
0.0
  0
LINE
 8
Front
10
-907.4733251080114
20
141.73167745075605
30
0.0
11
-906.3832223685595
21
143.99529911369015
31
0.0
  0
LINE
 8
Front
10
-906.3832223685595
20
143.99529911369015
30
0.0
11
-905.5004175437357
21
146.34752415750148
31
0.0
  0
LINE
 8
Front
10
-934.6399006492962
20
182.8872802318667
30
0.0
11
-937.1295930543617
21
182.55002848076163
31
0.0
  0
LINE
 8
Front
10
-937.1295930543617
20
182.55002848076163
30
0.0
11
-939.5790316758669
21
181.9909600994839
31
0.0
  0
LINE
 8
Front
10
-913.7077156736881
20
133.91399895189892
30
0.0
11
-911.8917438128329
21
135.6502458283678
31
0.0
  0
LINE
 8
Front
10
-911.8917438128329
20
135.6502458283678
30
0.0
11
-910.2387184908953
21
137.54228554795546
31
0.0
  0
LINE
 8
Front
10
-952.3682561871669
20
174.3497541716322
30
0.0
11
-954.0212815091048
21
172.45771445204454
31
0.0
  0
LINE
 8
Front
10
-954.0212815091048
20
172.45771445204454
30
0.0
11
-955.4980511041964
21
170.4251154806589
31
0.0
  0
LINE
 8
Front
10
-922.2915049257225
20
181.21457637791266
30
0.0
11
-924.680968324133
21
181.9909600994839
31
0.0
  0
LINE
 8
Front
10
-924.680968324133
20
181.9909600994839
30
0.0
11
-927.1304069456381
21
182.55002848076163
31
0.0
  0
LINE
 8
Front
10
-904.832018458909
20
148.76941384922318
30
0.0
11
-904.3834066704978
21
151.24146855710566
31
0.0
  0
LINE
 8
Front
10
-919.9812553047085
20
129.77287169873227
30
0.0
11
-917.7688202326347
21
130.96343377914775
31
0.0
  0
LINE
 8
Front
10
-917.7688202326347
20
130.96343377914775
30
0.0
11
-915.6720129358108
21
132.34752415750148
31
0.0
  0
LINE
 8
Front
10
-915.6720129358108
20
132.34752415750148
30
0.0
11
-913.7077156736881
21
133.91399895189892
31
0.0
  0
LINE
 8
Front
10
-854.1300000000001
20
130.25000000000003
30
0.0
11
-842.1300000000001
21
130.25000000000003
31
0.0
  0
LINE
 8
Front
10
-854.1300000000001
20
130.25000000000003
30
0.0
11
-854.1300000000001
21
133.75
31
0.0
  0
LINE
 8
Front
10
-1022.13
20
166.2499999999999
30
0.0
11
-1022.13
21
169.7499999999999
31
0.0
  0
LINE
 8
Front
10
-1019.1300000000001
20
133.7499999999999
30
0.0
11
-1022.13
21
133.7499999999999
31
0.0
  0
LINE
 8
Front
10
-842.1300000000001
20
169.7499999999999
30
0.0
11
-842.1300000000001
21
166.24999999999994
31
0.0
  0
LINE
 8
Front
10
-1022.13
20
405.9999999999999
30
0.0
11
-1010.13
21
406.00000000000017
31
0.0
  0
LINE
 8
Front
10
-851.13
20
139.00000000000014
30
0.0
11
-845.13
21
139.00000000000014
31
0.0
  0
LINE
 8
Front
10
-848.1764910494134
20
13.296929528419621
30
0.0
11
-849.4785567661976
21
19.84285592775196
31
0.0
  0
LINE
 8
Front
10
-845.13
20
393.75000000000006
30
0.0
11
-842.1300000000001
21
393.75000000000006
31
0.0
  0
LINE
 8
Front
10
-832.13
20
509.99999999999994
30
0.0
11
-1032.13
21
509.99999999999994
31
0.0
  0
LINE
 8
Front
10
-832.13
20
126.0
30
0.0
11
-832.13
21
509.99999999999994
31
0.0
  0
LINE
 8
Front
10
-1032.13
20
509.99999999999994
30
0.0
11
-1032.13
21
125.99999999999997
31
0.0
  0
LINE
 8
Front
10
-951.88
20
499.9999999999997
30
0.0
11
-948.3799999999998
21
499.99999999999955
31
0.0
  0
LINE
 8
Front
10
-951.88
20
499.9999999999997
30
0.0
11
-951.88
21
487.99999999999955
31
0.0
  0
LINE
 8
Front
10
-948.3799999999995
20
487.99999999999983
30
0.0
11
-951.88
21
487.99999999999955
31
0.0
  0
LINE
 8
Front
10
-948.3799999999998
20
490.9999999999998
30
0.0
11
-948.3799999999995
21
487.99999999999983
31
0.0
  0
LINE
 8
Front
10
-943.1299999999997
20
490.9999999999995
30
0.0
11
-948.3799999999998
21
490.9999999999998
31
0.0
  0
LINE
 8
Front
10
-943.1300000000002
20
496.9999999999993
30
0.0
11
-948.3800000000001
21
496.99999999999966
31
0.0
  0
LINE
 8
Front
10
-948.3800000000001
20
496.99999999999966
30
0.0
11
-948.3799999999998
21
499.99999999999955
31
0.0
  0
LINE
 8
Front
10
-936.13
20
499.9999999999999
30
0.0
11
-928.13
21
500.0
31
0.0
  0
LINE
 8
Front
10
-936.13
20
499.9999999999999
30
0.0
11
-936.1299999999997
21
487.99999999999966
31
0.0
  0
LINE
 8
Front
10
-936.1299999999997
20
487.99999999999966
30
0.0
11
-928.13
21
487.99999999999903
31
0.0
  0
LINE
 8
Front
10
-928.13
20
500.0
30
0.0
11
-928.13
21
487.99999999999903
31
0.0
  0
LINE
 8
Front
10
-912.3799999999999
20
500.0
30
0.0
11
-912.3800000000003
21
487.99999999999983
31
0.0
  0
LINE
 8
Front
10
-915.8800000000001
20
499.99999999999983
30
0.0
11
-912.3799999999999
21
500.0
31
0.0
  0
LINE
 8
Front
10
-915.8800000000001
20
496.99999999999994
30
0.0
11
-915.8800000000001
21
499.99999999999983
31
0.0
  0
LINE
 8
Front
10
-915.8800000000001
20
496.99999999999994
30
0.0
11
-921.13
21
496.9999999999995
31
0.0
  0
LINE
 8
Front
10
-921.13
20
496.9999999999995
30
0.0
11
-921.1299999999999
21
493.9999999999999
31
0.0
  0
LINE
 8
Front
10
-921.1299999999999
20
493.9999999999999
30
0.0
11
-921.1299999999997
21
490.99999999999994
31
0.0
  0
LINE
 8
Front
10
-921.1299999999997
20
490.99999999999994
30
0.0
11
-915.8800000000001
21
490.9999999999996
31
0.0
  0
LINE
 8
Front
10
-915.8800000000001
20
490.9999999999996
30
0.0
11
-915.8800000000001
21
487.9999999999997
31
0.0
  0
LINE
 8
Front
10
-912.3800000000003
20
487.99999999999983
30
0.0
11
-915.8800000000001
21
487.9999999999997
31
0.0
  0
LINE
 8
Front
10
-929.6200993507039
20
127.11271976813332
30
0.0
11
-927.1304069456381
21
127.44997151923839
31
0.0
  0
LINE
 8
Front
10
-927.1304069456381
20
127.44997151923839
30
0.0
11
-924.680968324133
21
128.00903990051611
31
0.0
  0
LINE
 8
Front
10
-924.680968324133
20
128.00903990051611
30
0.0
11
-922.2915049257225
21
128.78542362208736
31
0.0
  0
LINE
 8
Front
10
-922.2915049257225
20
128.78542362208736
30
0.0
11
-919.9812553047085
21
129.77287169873227
31
0.0
  0
LINE
 8
Front
10
-908.7619488958036
20
139.57488451934114
30
0.0
11
-907.4733251080114
21
141.73167745075605
31
0.0
  0
LINE
 8
Front
10
-905.5004175437357
20
146.34752415750148
30
0.0
11
-904.832018458909
21
148.76941384922318
31
0.0
  0
LINE
 8
Front
10
-904.3834066704978
20
151.24146855710566
30
0.0
11
-904.1581941368432
21
153.7437847501856
31
0.0
  0
LINE
 8
Front
10
-904.832018458909
20
161.2305861507768
30
0.0
11
-905.5004175437357
21
163.65247584249855
31
0.0
  0
LINE
 8
Front
10
-905.5004175437357
20
163.65247584249855
30
0.0
11
-906.3832223685595
21
166.00470088630988
31
0.0
  0
LINE
 8
Front
10
-911.8917438128329
20
174.3497541716322
30
0.0
11
-913.7077156736881
21
176.0860010481011
31
0.0
  0
LINE
 8
Front
10
-913.7077156736881
20
176.0860010481011
30
0.0
11
-915.6720129358108
21
177.65247584249852
31
0.0
  0
LINE
 8
Front
10
-915.6720129358108
20
177.65247584249852
30
0.0
11
-917.7688202326347
21
179.03656622085225
31
0.0
  0
LINE
 8
Front
10
-917.7688202326347
20
179.03656622085225
30
0.0
11
-919.9812553047085
21
180.22712830126773
31
0.0
  0
LINE
 8
Front
10
-919.9812553047085
20
180.22712830126773
30
0.0
11
-922.2915049257225
21
181.21457637791266
31
0.0
  0
LINE
 8
Front
10
-948.5879870641892
20
177.65247584249852
30
0.0
11
-950.5522843263119
21
176.0860010481011
31
0.0
  0
LINE
 8
Front
10
-950.5522843263119
20
176.0860010481011
30
0.0
11
-952.3682561871669
21
174.3497541716322
31
0.0
  0
LINE
 8
Front
10
-957.8767776314406
20
166.00470088630988
30
0.0
11
-958.7595824562644
21
163.65247584249855
31
0.0
  0
LINE
 8
Front
10
-958.7595824562644
20
163.65247584249855
30
0.0
11
-959.4279815410911
21
161.23058615077682
31
0.0
  0
LINE
 8
Front
10
-959.4279815410911
20
148.7694138492232
30
0.0
11
-958.7595824562644
21
146.34752415750148
31
0.0
  0
LINE
 8
Front
10
-958.7595824562644
20
146.34752415750148
30
0.0
11
-957.8767776314406
21
143.99529911369015
31
0.0
  0
LINE
 8
Front
10
-955.4980511041964
20
139.57488451934114
30
0.0
11
-954.0212815091048
21
137.5422855479555
31
0.0
  0
LINE
 8
Front
10
-954.0212815091048
20
137.5422855479555
30
0.0
11
-952.3682561871669
21
135.65024582836782
31
0.0
  0
LINE
 8
Front
10
-952.3682561871669
20
135.65024582836782
30
0.0
11
-950.5522843263119
21
133.91399895189892
31
0.0
  0
LINE
 8
Front
10
-950.5522843263119
20
133.91399895189892
30
0.0
11
-948.5879870641892
21
132.34752415750148
31
0.0
  0
LINE
 8
Front
10
-937.129593054362
20
127.44997151923839
30
0.0
11
-934.6399006492962
21
127.11271976813332
31
0.0
  0
LINE
 8
Front
10
-934.6399006492962
20
127.11271976813332
30
0.0
11
-932.13
21
127.00000000000001
31
0.0
  0
LINE
 8
Front
10
-1022.13
20
130.2499999999999
30
0.0
11
-1010.13
21
130.2499999999999
31
0.0
  0
LINE
 8
Front
10
-1010.13
20
133.7499999999999
30
0.0
11
-1010.13
21
130.2499999999999
31
0.0
  0
LINE
 8
Front
10
-1013.13
20
133.7499999999999
30
0.0
11
-1010.13
21
133.7499999999999
31
0.0
  0
LINE
 8
Front
10
-1013.13
20
139.00000000000003
30
0.0
11
-1013.13
21
133.7499999999999
31
0.0
  0
LINE
 8
Front
10
-1019.1300000000001
20
139.00000000000003
30
0.0
11
-1013.13
21
139.00000000000003
31
0.0
  0
LINE
 8
Front
10
-1019.1300000000001
20
139.00000000000003
30
0.0
11
-1019.1300000000001
21
133.7499999999999
31
0.0
  0
LINE
 8
Front
10
-1022.13
20
130.2499999999999
30
0.0
11
-1022.13
21
133.7499999999999
31
0.0
  0
LINE
 8
Front
10
-1022.13
20
146.0
30
0.0
11
-1010.13
21
146.0
31
0.0
  0
LINE
 8
Front
10
-1010.13
20
146.0
30
0.0
11
-1010.13
21
153.99999999999994
31
0.0
  0
LINE
 8
Front
10
-1022.13
20
153.99999999999994
30
0.0
11
-1010.13
21
153.99999999999994
31
0.0
  0
LINE
 8
Front
10
-1022.13
20
146.0
30
0.0
11
-1022.13
21
153.99999999999994
31
0.0
  0
LINE
 8
Front
10
-1019.1300000000001
20
161.0
30
0.0
11
-1016.1300000000001
21
161.0
31
0.0
  0
LINE
 8
Front
10
-1016.1300000000001
20
161.0
30
0.0
11
-1013.13
21
161.0
31
0.0
  0
LINE
 8
Front
10
-1013.13
20
161.0
30
0.0
11
-1013.13
21
166.2499999999999
31
0.0
  0
LINE
 8
Front
10
-1013.13
20
166.2499999999999
30
0.0
11
-1010.13
21
166.2499999999999
31
0.0
  0
LINE
 8
Front
10
-1010.13
20
166.2499999999999
30
0.0
11
-1010.13
21
169.7499999999999
31
0.0
  0
LINE
 8
Front
10
-1022.13
20
169.7499999999999
30
0.0
11
-1010.13
21
169.7499999999999
31
0.0
  0
LINE
 8
Front
10
-1019.1300000000001
20
166.2499999999999
30
0.0
11
-1022.13
21
166.2499999999999
31
0.0
  0
LINE
 8
Front
10
-1019.1300000000001
20
166.2499999999999
30
0.0
11
-1019.1300000000001
21
161.0
31
0.0
  0
LINE
 8
Front
10
-854.1300000000001
20
145.99999999999986
30
0.0
11
-842.1300000000001
21
146.00000000000014
31
0.0
  0
LINE
 8
Front
10
-842.1300000000001
20
146.00000000000014
30
0.0
11
-842.1300000000001
21
149.48999999999995
31
0.0
  0
LINE
 8
Front
10
-842.1299999999999
20
154.00000000000003
30
0.0
11
-842.1300000000001
21
149.48999999999995
31
0.0
  0
LINE
 8
Front
10
-854.1300000000001
20
154.00000000000003
30
0.0
11
-842.1299999999999
21
154.00000000000003
31
0.0
  0
LINE
 8
Front
10
-854.1300000000001
20
145.99999999999986
30
0.0
11
-854.1300000000001
21
154.00000000000003
31
0.0
  0
LINE
 8
Front
10
-851.13
20
139.00000000000014
30
0.0
11
-851.13
21
133.75
31
0.0
  0
LINE
 8
Front
10
-851.13
20
133.75
30
0.0
11
-854.1300000000001
21
133.75
31
0.0
  0
LINE
 8
Front
10
-842.1300000000001
20
133.75
30
0.0
11
-842.1300000000001
21
130.25000000000003
31
0.0
  0
LINE
 8
Front
10
-845.13
20
133.75
30
0.0
11
-842.1300000000001
21
133.75
31
0.0
  0
LINE
 8
Front
10
-845.13
20
139.00000000000014
30
0.0
11
-845.13
21
133.75
31
0.0
  0
LINE
 8
Front
10
-851.13
20
161.00000000000006
30
0.0
11
-848.13
21
161.00000000000006
31
0.0
  0
LINE
 8
Front
10
-848.13
20
161.00000000000006
30
0.0
11
-845.13
21
161.00000000000006
31
0.0
  0
LINE
 8
Front
10
-845.13
20
166.24999999999994
30
0.0
11
-842.1300000000001
21
166.24999999999994
31
0.0
  0
LINE
 8
Front
10
-854.1300000000001
20
169.7499999999999
30
0.0
11
-842.1300000000001
21
169.7499999999999
31
0.0
  0
LINE
 8
Front
10
-854.1300000000001
20
166.24999999999994
30
0.0
11
-854.1300000000001
21
169.7499999999999
31
0.0
  0
LINE
 8
Front
10
-851.13
20
166.24999999999994
30
0.0
11
-854.1300000000001
21
166.24999999999994
31
0.0
  0
LINE
 8
Front
10
-851.13
20
166.24999999999994
30
0.0
11
-851.13
21
161.00000000000006
31
0.0
  0
LINE
 8
Front
10
-1010.13
20
406.00000000000017
30
0.0
11
-1010.13
21
414.00000000000006
31
0.0
  0
LINE
 8
Front
10
-1022.13
20
414.00000000000006
30
0.0
11
-1010.13
21
414.00000000000006
31
0.0
  0
LINE
 8
Front
10
-1022.13
20
405.9999999999999
30
0.0
11
-1022.13
21
414.00000000000006
31
0.0
  0
LINE
 8
Front
10
-854.1300000000001
20
405.9999999999999
30
0.0
11
-854.1300000000001
21
414.00000000000006
31
0.0
  0
LINE
 8
Front
10
-854.1300000000001
20
405.9999999999999
30
0.0
11
-842.1300000000001
21
406.00000000000017
31
0.0
  0
LINE
 8
Front
10
-842.1300000000001
20
406.00000000000017
30
0.0
11
-842.1300000000001
21
409.48999999999995
31
0.0
  0
LINE
 8
Front
10
-842.1299999999999
20
414.00000000000006
30
0.0
11
-842.1300000000001
21
409.48999999999995
31
0.0
  0
LINE
 8
Front
10
-854.1300000000001
20
414.00000000000006
30
0.0
11
-842.1299999999999
21
414.00000000000006
31
0.0
  0
LINE
 8
Front
10
-848.13
20
421.0000000000001
30
0.0
11
-845.13
21
421.0000000000001
31
0.0
  0
LINE
 8
Front
10
-845.13
20
421.0000000000001
30
0.0
11
-845.13
21
426.25
31
0.0
  0
LINE
 8
Front
10
-845.13
20
426.25
30
0.0
11
-842.1300000000001
21
426.25
31
0.0
  0
LINE
 8
Front
10
-842.1300000000001
20
429.7499999999999
30
0.0
11
-842.1300000000001
21
426.25
31
0.0
  0
LINE
 8
Front
10
-854.1300000000001
20
429.7499999999999
30
0.0
11
-842.1300000000001
21
429.7499999999999
31
0.0
  0
LINE
 8
Front
10
-854.1300000000001
20
426.25
30
0.0
11
-854.1300000000001
21
429.7499999999999
31
0.0
  0
LINE
 8
Front
10
-851.13
20
426.25
30
0.0
11
-854.1300000000001
21
426.25
31
0.0
  0
LINE
 8
Front
10
-851.13
20
426.25
30
0.0
11
-851.13
21
421.0000000000001
31
0.0
  0
LINE
 8
Front
10
-851.13
20
421.0000000000001
30
0.0
11
-848.13
21
421.0000000000001
31
0.0
  0
LINE
 8
Front
10
-851.13
20
399.0000000000002
30
0.0
11
-845.13
21
399.0000000000002
31
0.0
  0
LINE
 8
Front
10
-851.13
20
399.0000000000002
30
0.0
11
-851.13
21
393.75000000000006
31
0.0
  0
LINE
 8
Front
10
-851.13
20
393.75000000000006
30
0.0
11
-854.1300000000001
21
393.75000000000006
31
0.0
  0
LINE
 8
Front
10
-854.1300000000001
20
390.25000000000006
30
0.0
11
-854.1300000000001
21
393.75000000000006
31
0.0
  0
LINE
 8
Front
10
-854.1300000000001
20
390.25000000000006
30
0.0
11
-842.1300000000001
21
390.25000000000006
31
0.0
  0
LINE
 8
Front
10
-842.1300000000001
20
393.75000000000006
30
0.0
11
-842.1300000000001
21
390.25000000000006
31
0.0
  0
LINE
 8
Front
10
-845.13
20
399.0000000000002
30
0.0
11
-845.13
21
393.75000000000006
31
0.0
  0
LINE
 8
Front
10
-1019.1300000000001
20
399.0000000000001
30
0.0
11
-1013.13
21
399.0000000000001
31
0.0
  0
LINE
 8
Front
10
-1019.1300000000001
20
399.0000000000001
30
0.0
11
-1019.1300000000001
21
393.74999999999994
31
0.0
  0
LINE
 8
Front
10
-1019.1300000000001
20
393.74999999999994
30
0.0
11
-1022.13
21
393.74999999999994
31
0.0
  0
LINE
 8
Front
10
-1022.13
20
390.25000000000006
30
0.0
11
-1022.13
21
393.74999999999994
31
0.0
  0
LINE
 8
Front
10
-1022.13
20
390.25000000000006
30
0.0
11
-1010.13
21
390.25000000000006
31
0.0
  0
LINE
 8
Front
10
-1010.13
20
393.74999999999994
30
0.0
11
-1010.13
21
390.25000000000006
31
0.0
  0
LINE
 8
Front
10
-1013.13
20
393.74999999999994
30
0.0
11
-1010.13
21
393.74999999999994
31
0.0
  0
LINE
 8
Front
10
-1013.13
20
399.0000000000001
30
0.0
11
-1013.13
21
393.74999999999994
31
0.0
  0
LINE
 8
Front
10
-1016.1300000000001
20
421.0000000000001
30
0.0
11
-1013.13
21
421.0000000000001
31
0.0
  0
LINE
 8
Front
10
-1013.13
20
421.0000000000001
30
0.0
11
-1013.13
21
426.25
31
0.0
  0
LINE
 8
Front
10
-1013.13
20
426.25
30
0.0
11
-1010.13
21
426.25
31
0.0
  0
LINE
 8
Front
10
-1010.13
20
426.25
30
0.0
11
-1010.13
21
429.7499999999999
31
0.0
  0
LINE
 8
Front
10
-1022.13
20
429.7499999999999
30
0.0
11
-1010.13
21
429.7499999999999
31
0.0
  0
LINE
 8
Front
10
-1022.13
20
426.25
30
0.0
11
-1022.13
21
429.7499999999999
31
0.0
  0
LINE
 8
Front
10
-1019.1300000000001
20
426.25
30
0.0
11
-1022.13
21
426.25
31
0.0
  0
LINE
 8
Front
10
-1019.1300000000001
20
426.25
30
0.0
11
-1019.1300000000001
21
421.0000000000001
31
0.0
  0
LINE
 8
Front
10
-1019.1300000000001
20
421.0000000000001
30
0.0
11
-1016.1300000000001
21
421.0000000000001
31
0.0
  0
LINE
 8
Front
10
-970.7191924778614
20
75.73555455601127
30
0.0
11
-976.5423780008556
21
72.47441397009783
31
0.0
  0
LINE
 8
Front
10
-918.8330704715804
20
83.9535089505867
30
0.0
11
-925.4609768631332
21
84.73797336731587
31
0.0
  0
LINE
 8
Front
10
-992.2340764008566
20
60.10407640085654
30
0.0
11
-996.7645070760027
21
55.20308410806562
31
0.0
  0
LINE
 8
Front
10
-925.4609768631332
20
84.73797336731587
30
0.0
11
-932.13
21
84.99999999999999
31
0.0
  0
LINE
 8
Front
10
-932.13
20
84.99999999999999
30
0.0
11
-938.7990231368668
21
84.73797336731587
31
0.0
  0
LINE
 8
Front
10
-938.7990231368668
20
84.73797336731587
30
0.0
11
-945.4269295284197
21
83.9535089505867
31
0.0
  0
LINE
 8
Front
10
-945.4269295284197
20
83.9535089505867
30
0.0
11
-951.9728559277519
21
82.65144323380251
31
0.0
  0
LINE
 8
Front
10
-951.9728559277519
20
82.65144323380251
30
0.0
11
-958.3964445218705
21
80.83980388508805
31
0.0
  0
LINE
 8
Front
10
-958.3964445218705
20
80.83980388508805
30
0.0
11
-964.6580917510328
21
78.52976026345937
31
0.0
  0
LINE
 8
Front
10
-964.6580917510328
20
78.52976026345937
30
0.0
11
-970.7191924778614
21
75.73555455601127
31
0.0
  0
LINE
 8
Front
10
-976.5423780008556
20
72.47441397009783
30
0.0
11
-982.0917464448602
21
68.76644452187053
31
0.0
  0
LINE
 8
Front
10
-982.0917464448602
20
68.76644452187053
30
0.0
11
-987.3330841080657
21
64.63450707600263
31
0.0
  0
LINE
 8
Front
10
-987.3330841080657
20
64.63450707600263
30
0.0
11
-992.2340764008566
21
60.10407640085654
31
0.0
  0
LINE
 8
Front
10
-996.7645070760027
20
55.20308410806562
30
0.0
11
-1000.8964445218705
21
49.96174644486022
31
0.0
  0
LINE
 8
Front
10
-1000.8964445218705
20
49.96174644486022
30
0.0
11
-1004.6044139700979
21
44.41237800085566
31
0.0
  0
LINE
 8
Front
10
-1004.6044139700979
20
44.41237800085566
30
0.0
11
-1007.8655545560114
21
38.589192477861474
31
0.0
  0
LINE
 8
Front
10
-1007.8655545560114
20
38.589192477861474
30
0.0
11
-1010.6597602634594
21
32.52809175103263
31
0.0
  0
LINE
 8
Front
10
-1010.6597602634594
20
32.52809175103263
30
0.0
11
-1012.969803885088
21
26.266444521870536
31
0.0
  0
LINE
 8
Front
10
-1012.969803885088
20
26.266444521870536
30
0.0
11
-1014.7814432338025
21
19.842855927751966
31
0.0
  0
LINE
 8
Front
10
-1014.7814432338025
20
19.842855927751966
30
0.0
11
-1016.0835089505867
21
13.296929528419632
31
0.0
  0
LINE
 8
Front
10
-1016.0835089505867
20
13.296929528419632
30
0.0
11
-1016.8679733673159
21
6.66902313686683
31
0.0
  0
LINE
 8
Front
10
-1016.8679733673159
20
6.66902313686683
30
0.0
11
-1017.13
21
9.86988268891764e-15
31
0.0
  0
LINE
 8
Front
10
-1032.13
20
0.0
30
0.0
11
-1017.13
21
9.86988268891764e-15
31
0.0
  0
LINE
 8
Front
10
-832.13
20
0.0
30
0.0
11
-832.13
21
122.8
31
0.0
  0
LINE
 8
Front
10
-847.13
20
0.0
30
0.0
11
-832.13
21
0.0
31
0.0
  0
LINE
 8
Front
10
-847.13
20
0.0
30
0.0
11
-847.3920266326841
21
6.669023136866819
31
0.0
  0
LINE
 8
Front
10
-847.3920266326841
20
6.669023136866819
30
0.0
11
-848.1764910494134
21
13.296929528419621
31
0.0
  0
LINE
 8
Front
10
-849.4785567661976
20
19.84285592775196
30
0.0
11
-851.2901961149121
21
26.266444521870525
31
0.0
  0
LINE
 8
Front
10
-851.2901961149121
20
26.266444521870525
30
0.0
11
-853.6002397365407
21
32.528091751032626
31
0.0
  0
LINE
 8
Front
10
-853.6002397365407
20
32.528091751032626
30
0.0
11
-856.3944454439887
21
38.589192477861474
31
0.0
  0
LINE
 8
Front
10
-856.3944454439887
20
38.589192477861474
30
0.0
11
-859.6555860299022
21
44.41237800085563
31
0.0
  0
LINE
 8
Front
10
-859.6555860299022
20
44.41237800085563
30
0.0
11
-863.3635554781295
21
49.96174644486022
31
0.0
  0
LINE
 8
Front
10
-863.3635554781295
20
49.96174644486022
30
0.0
11
-867.4954929239973
21
55.2030841080656
31
0.0
  0
LINE
 8
Front
10
-867.4954929239973
20
55.2030841080656
30
0.0
11
-872.0259235991434
21
60.104076400856535
31
0.0
  0
LINE
 8
Front
10
-872.0259235991434
20
60.104076400856535
30
0.0
11
-876.9269158919344
21
64.63450707600262
31
0.0
  0
LINE
 8
Front
10
-876.9269158919344
20
64.63450707600262
30
0.0
11
-882.1682535551398
21
68.76644452187051
31
0.0
  0
LINE
 8
Front
10
-882.1682535551398
20
68.76644452187051
30
0.0
11
-887.7176219991444
21
72.47441397009783
31
0.0
  0
LINE
 8
Front
10
-887.7176219991444
20
72.47441397009783
30
0.0
11
-893.5408075221386
21
75.73555455601127
31
0.0
  0
LINE
 8
Front
10
-893.5408075221386
20
75.73555455601127
30
0.0
11
-899.6019082489673
21
78.52976026345937
31
0.0
  0
LINE
 8
Front
10
-899.6019082489673
20
78.52976026345937
30
0.0
11
-905.8635554781296
21
80.83980388508805
31
0.0
  0
LINE
 8
Front
10
-905.8635554781296
20
80.83980388508805
30
0.0
11
-912.2871440722481
21
82.6514432338025
31
0.0
  0
LINE
 8
Front
10
-912.2871440722481
20
82.6514432338025
30
0.0
11
-918.8330704715804
21
83.9535089505867
31
0.0
  0
LINE
 8
Front
10
-832.13
20
126.0
30
0.0
11
-832.13
21
122.8
31
0.0
  0
LINE
 8
Front
10
-1032.13
20
122.8
30
0.0
11
-1032.13
21
0.0
31
0.0
  0
LINE
 8
Front
10
-832.13
20
122.8
30
0.0
11
-1032.13
21
122.8
31
0.0
 0
ENDSEC
 0
EOF
